<svg width="34" height="34" viewBox="0 0 34 34" fill="none" xmlns="http://www.w3.org/2000/svg">
<path d="M34 18.4795L33.9956 15.8944C33.9986 15.1908 33.4157 14.607 32.6917 14.5886L19.628 14.5329L19.685 1.31695C19.688 0.612998 19.1051 0.0292358 18.3811 0.0111626L15.7622 1.29648e-05C15.0534 -0.00315765 14.4655 0.57562 14.4471 1.29465L14.3903 14.4803L1.32629 14.4553C0.617638 14.4522 0.0297238 15.031 0.0112196 15.7499L1.17803e-05 18.3503C-0.00302093 19.054 0.579882 19.6377 1.30387 19.6561L14.3676 19.7116L14.3117 32.6831C14.3086 33.3867 14.8915 33.9705 15.6155 33.9888L18.2345 34C18.9431 34.003 19.531 33.4242 19.5495 32.7054L19.5901 19.7185L32.6538 19.7743C33.3936 19.7771 33.9815 19.1983 34 18.4795Z" fill="#515151"/>
</svg>
