<svg width="38" height="37" viewBox="0 0 38 37" fill="none" xmlns="http://www.w3.org/2000/svg">
<path d="M37.1377 20.11L37.1329 17.2969C37.1362 16.5311 36.5019 15.8959 35.714 15.8759L21.4976 15.8152L21.5596 1.43315C21.5629 0.667086 20.9285 0.0318154 20.1407 0.0121476L17.2907 1.41087e-05C16.5193 -0.00343627 15.8795 0.62641 15.8596 1.40888L15.7977 15.758L1.58101 15.7307C0.809831 15.7274 0.170042 16.3573 0.149905 17.1396L0.137708 19.9695C0.134408 20.7352 0.768744 21.3705 1.55662 21.3905L15.773 21.4508L15.7122 35.5669C15.7089 36.3326 16.3432 36.9679 17.1311 36.9879L19.9811 37C20.7523 37.0033 21.3921 36.3734 21.4122 35.5911L21.4563 21.4584L35.6727 21.5191C36.4778 21.5222 37.1176 20.8923 37.1377 20.11Z" fill="#515151"/>
</svg>
