<svg width="24" height="24" viewBox="0 0 24 24" fill="none" xmlns="http://www.w3.org/2000/svg">
<circle cx="12" cy="12" r="12" fill="#185641"/>
<path d="M19.0151 12.6103L19.0133 11.5435C19.0146 11.2532 18.774 11.0123 18.4753 11.0047L13.0843 10.9817L13.1078 5.52784C13.109 5.23734 12.8685 4.99644 12.5697 4.98898L11.4889 4.98438C11.1964 4.98307 10.9538 5.22192 10.9463 5.51864L10.9228 10.96L5.53169 10.9496C5.23926 10.9484 4.99664 11.1872 4.989 11.4839L4.98438 12.557C4.98313 12.8474 5.22367 13.0883 5.52244 13.0959L10.9134 13.1187L10.8904 18.4717C10.8891 18.7621 11.1297 19.003 11.4284 19.0105L12.5092 19.0151C12.8016 19.0164 13.0442 18.7775 13.0519 18.4809L13.0686 13.1216L18.4596 13.1446C18.7649 13.1458 19.0075 12.9069 19.0151 12.6103Z" fill="white"/>
</svg>
