<svg width="44" height="44" viewBox="0 0 44 44" fill="none" xmlns="http://www.w3.org/2000/svg">
<g filter="url(#filter0_d)">
<circle cx="22" cy="18" r="12" fill="white"/>
</g>
<path d="M29.0151 18.6108L29.0133 17.544C29.0146 17.2536 28.774 17.0127 28.4753 17.0052L23.0843 16.9821L23.1078 11.5283C23.109 11.2378 22.8685 10.9969 22.5697 10.9895L21.4889 10.9849C21.1964 10.9836 20.9538 11.2224 20.9463 11.5191L20.9228 16.9604L15.5317 16.9501C15.2393 16.9489 14.9966 17.1877 14.989 17.4844L14.9844 18.5575C14.9831 18.8479 15.2237 19.0888 15.5224 19.0963L20.9134 19.1192L20.8904 24.4722C20.8891 24.7625 21.1297 25.0034 21.4284 25.011L22.5092 25.0156C22.8016 25.0169 23.0442 24.778 23.0519 24.4814L23.0686 19.1221L28.4596 19.1451C28.7649 19.1463 29.0075 18.9074 29.0151 18.6108Z" fill="#F3B95A"/>
<defs>
<filter id="filter0_d" x="0" y="0" width="44" height="44" filterUnits="userSpaceOnUse" color-interpolation-filters="sRGB">
<feFlood flood-opacity="0" result="BackgroundImageFix"/>
<feColorMatrix in="SourceAlpha" type="matrix" values="0 0 0 0 0 0 0 0 0 0 0 0 0 0 0 0 0 0 127 0"/>
<feOffset dy="4"/>
<feGaussianBlur stdDeviation="5"/>
<feColorMatrix type="matrix" values="0 0 0 0 0 0 0 0 0 0 0 0 0 0 0 0 0 0 0.2 0"/>
<feBlend mode="normal" in2="BackgroundImageFix" result="effect1_dropShadow"/>
<feBlend mode="normal" in="SourceGraphic" in2="effect1_dropShadow" result="shape"/>
</filter>
</defs>
</svg>
