<svg width="20" height="20" viewBox="0 0 20 20" fill="none" xmlns="http://www.w3.org/2000/svg">
<circle cx="10" cy="10" r="10" fill="#F3B95A"/>
<path d="M4 10.5222L4.00156 9.6098C4.00049 9.36145 4.20622 9.15542 4.46175 9.14893L9.07246 9.12925L9.05236 4.4648C9.05129 4.21635 9.25702 4.01032 9.51255 4.00394L10.4369 4C10.687 3.99889 10.8945 4.20316 10.901 4.45693L10.9211 9.11069L15.5319 9.10186C15.782 9.10079 15.9895 9.30507 15.996 9.55879L16 10.4766C16.0011 10.7249 15.7953 10.931 15.5398 10.9374L10.9291 10.957L10.9488 15.5352C10.9499 15.7835 10.7442 15.9896 10.4886 15.9961L9.56431 16C9.31419 16.0011 9.10669 15.7968 9.10016 15.5431L9.08584 10.9595L4.47513 10.9792C4.21403 10.9802 4.00653 10.7759 4 10.5222Z" fill="#515151"/>
</svg>
