<svg width="512" height="512" viewBox="0 0 512 512" fill="none" xmlns="http://www.w3.org/2000/svg">
<path d="M433.6 119.384C432.085 120.685 430.251 121.539 428.267 121.837C385.387 128.365 354.475 118.189 329.686 109.997C314.433 104.984 301.291 100.632 288.001 100.632C265.58 100.632 248.214 112.045 231.425 123.075C227.521 125.635 223.724 128.131 219.969 130.414L164.374 186.009C156.758 193.625 154.881 205.209 159.702 214.83C163.947 223.342 172.502 228.633 182.017 228.633H190.55C196.353 228.633 201.793 226.713 206.273 223.086C210.348 219.758 215.041 215.854 220.054 211.651C247.382 188.803 269.462 170.862 284.246 165.315C285.483 164.846 286.721 164.632 288.001 164.632C290.518 164.632 293.014 165.528 294.977 167.235L449.153 300.846L512 275.928V70.4883L433.6 119.384Z" fill="black"/>
<path d="M96.491 292.633C89.515 292.633 83.008 296.11 79.147 301.913L67.499 319.385C65.216 322.798 64 326.83 64 330.948V335.791C64 347.311 73.323 356.634 84.843 356.634C91.819 356.634 98.326 353.157 102.187 347.354L113.835 329.882C116.118 326.469 117.334 322.437 117.334 318.319V313.476C117.333 301.956 108.011 292.633 96.491 292.633Z" fill="black"/>
<path d="M139.157 313.965H138.432C131.861 313.965 125.696 317.058 121.749 322.306L100.181 351.085C97.472 354.691 96 359.064 96 363.587V367.79C96 379.31 105.323 388.633 116.843 388.633H117.568C124.139 388.633 130.304 385.54 134.251 380.292L155.819 351.513C158.528 347.908 160 343.534 160 339.012V334.809C160 323.288 150.677 313.965 139.157 313.965Z" fill="black"/>
<path d="M181.824 335.299H181.099C174.528 335.299 168.363 338.392 164.416 343.64L142.848 372.419C140.139 376.024 138.667 380.398 138.667 384.92V389.123C138.667 400.643 147.99 409.966 159.51 409.966H160.235C166.806 409.966 172.971 406.873 176.918 401.625L198.486 372.846C201.195 369.241 202.667 364.867 202.667 360.345V356.142C202.667 344.621 193.344 335.299 181.824 335.299Z" fill="black"/>
<path d="M224.491 356.633H223.766C217.195 356.633 211.03 359.726 207.083 364.974L185.515 393.753C182.806 397.358 181.334 401.732 181.334 406.254V410.457C181.334 421.977 190.657 431.3 202.177 431.3H202.902C209.473 431.3 215.638 428.207 219.585 422.959L241.153 394.18C243.862 390.575 245.313 386.18 245.313 381.679V377.476H245.334C245.333 365.956 236.011 356.633 224.491 356.633Z" fill="black"/>
<path d="M279.168 420.292L259.861 403.844C259.221 404.847 258.922 406.041 258.218 407.001L244.501 425.284L258.858 438.596C263.423 443.14 270.165 442.884 274.197 438.852C279.509 433.54 281.621 423.364 279.168 420.292Z" fill="black"/>
<path d="M441.579 323.928L286.229 187.907C272.554 195.544 250.453 214.019 233.749 227.992C228.672 232.259 223.914 236.227 219.776 239.597C211.435 246.402 201.344 249.965 190.571 249.965H182.038C164.374 249.965 148.523 240.152 140.63 224.365C131.67 206.53 135.147 185.069 149.291 170.925L208.854 112.194C211.905 110.338 214.998 108.311 218.134 106.263C184.683 99.4356 146.667 98.9665 104.193 105.644C82.71 109.121 60.972 103.084 44.438 89.3235L0 70.0605V275.906L55.467 298.967L61.398 290.071C69.206 278.338 82.326 271.298 96.491 271.298C112.384 271.298 126.08 280.237 133.27 293.25C134.977 293.015 136.662 292.631 138.411 292.631C154.816 292.631 168.662 301.57 175.894 314.583C177.643 314.348 179.329 313.964 181.078 313.964C197.483 313.964 211.329 322.903 218.561 335.916C220.289 335.703 221.974 335.297 223.745 335.297H224.492C247.745 335.297 266.668 354.22 266.668 377.473V381.633L293.441 404.396C293.462 404.439 293.505 404.46 293.548 404.503L303.745 413.164C309.676 417.9 317.441 420.631 325.356 420.631C334.167 420.631 341.335 413.463 341.335 404.652C341.335 399.895 339.223 395.436 335.575 392.385L238.487 311.489C233.964 307.713 233.346 300.993 237.122 296.47C240.898 291.969 247.618 291.329 252.162 295.126L372.098 395.073C375.405 397.804 379.543 399.297 383.831 399.297H386.967C397.1 399.297 405.314 391.062 405.314 380.95C405.314 375.617 403.074 370.625 399.106 367.126L281.154 268.843C276.631 265.067 276.013 258.347 279.81 253.803C283.607 249.259 290.327 248.704 294.829 252.438L412.397 350.401C412.589 350.55 412.781 350.721 412.952 350.87L414.701 352.321C418.029 355.116 422.253 356.63 426.584 356.63H429.443C439.662 356.63 448.003 348.289 448.003 338.07C448 332.589 445.675 327.491 441.579 323.928Z" fill="black"/>
</svg>
