<svg width="512" height="512" viewBox="0 0 512 512" fill="none" xmlns="http://www.w3.org/2000/svg">
<g clip-path="url(#clip0)">
<path d="M115.22 301.285C116.127 300.912 116.961 300.361 117.668 299.654C119.075 298.247 119.865 296.339 119.865 294.35V289.464C128.081 292.6 136.974 294.33 146.261 294.33C155.665 294.33 164.663 292.554 172.965 289.342V294.35C172.965 298.492 176.323 301.85 180.465 301.85H190.25V304.87C190.25 323.958 178.059 340.723 159.914 346.59C155.973 347.864 153.81 352.092 155.085 356.033C156.111 359.208 159.054 361.228 162.22 361.228C162.984 361.228 163.762 361.11 164.529 360.862C188.886 352.988 205.251 330.486 205.251 304.87V301.85H241.944C251.436 301.862 260.372 305.613 267.104 312.41C273.836 319.208 277.538 328.207 277.525 337.757V438.028H15V396.52C15 392.378 11.642 389.02 7.5 389.02C3.358 389.02 0 392.378 0 396.52V438.292C0 446.418 6.611 453.028 14.737 453.028H497.263C505.389 453.028 512 446.417 512 438.292V337.767C512.017 324.24 506.774 311.487 497.237 301.856C487.671 292.196 474.958 286.867 461.428 286.85H417.225H407.44V281.484C425.902 268.941 438.558 248.321 440.464 224.669C455.915 223.437 468.113 210.479 468.113 194.716C468.113 185.979 464.364 178.104 458.392 172.607L459.001 155.724C459.923 130.158 450.649 105.937 432.888 87.5238C415.127 69.1108 391.256 58.9697 365.673 58.9697C340.09 58.9697 316.219 69.1108 298.458 87.5238C280.697 105.937 271.423 130.158 272.345 155.725L272.958 172.723C267.058 178.215 263.359 186.04 263.359 194.716C263.359 210.478 275.558 223.437 291.008 224.669C292.925 248.45 305.713 269.16 324.339 281.683V286.847L187.965 286.849V281.483C206.427 268.94 219.083 248.32 220.989 224.668C236.44 223.436 248.638 210.478 248.638 194.715C248.638 186.342 245.194 178.762 239.651 173.306L242.716 134.264C243.452 124.893 240.214 115.561 233.833 108.659C229.5 103.973 223.938 100.644 217.871 98.9897L222.242 76.5197C223.086 72.1837 221.958 67.7417 219.149 64.3327C216.339 60.9237 212.195 58.9688 207.777 58.9688H122.223C98.974 58.9688 79.668 76.1858 76.385 98.5378C69.598 99.9818 63.334 103.498 58.562 108.659C52.181 115.561 48.943 124.893 49.679 134.264L52.753 173.418C47.279 178.865 43.884 186.4 43.884 194.715C43.884 210.477 56.082 223.436 71.533 224.668C73.164 244.898 82.664 262.899 96.933 275.536C92.861 273.64 88.327 272.574 83.547 272.574H60.498C47.949 272.574 37.076 279.877 31.897 290.454C12.71 298.1 0.026 316.544 0 337.402V364.479C0 368.621 3.358 371.979 7.5 371.979C11.642 371.979 15 368.621 15 364.479V337.412C15.014 326.226 20.212 316.021 28.672 309.418V323.432C28.672 332.225 35.825 339.378 44.618 339.378H98.765C105.971 349.317 116.122 356.805 127.807 360.698C128.594 360.96 129.393 361.085 130.179 361.085C133.32 361.085 136.246 359.097 137.293 355.954C138.603 352.024 136.479 347.777 132.548 346.468C124.652 343.837 117.698 338.996 112.464 332.589C114.292 329.995 115.375 326.841 115.375 323.433L115.22 301.285ZM221.263 209.522V179.913C228.289 181.183 233.64 187.331 233.64 194.718C233.64 202.103 228.289 208.252 221.263 209.522ZM64.635 133.092C64.219 127.801 65.975 122.741 69.578 118.844C73.181 114.947 78.088 112.801 83.395 112.801C87.537 112.801 90.895 109.443 90.895 105.301C90.895 88.0258 104.95 73.9707 122.225 73.9707H207.459L201.643 103.869C201.215 106.068 201.792 108.343 203.217 110.071C204.642 111.799 206.764 112.801 209.005 112.801C214.312 112.801 219.219 114.947 222.822 118.844C226.425 122.741 228.18 127.801 227.765 133.092L225.228 165.408C223.851 165.096 222.439 164.879 220.998 164.764C220.464 158.237 219.098 151.847 216.93 145.684C216.2 142.429 213.355 139.947 209.867 139.832C185.137 139.019 139.669 133.996 112.854 109.501C110.284 107.115 106.272 106.814 103.397 108.845C85.005 121.825 73.394 142.392 71.533 164.764C70.047 164.883 68.593 165.109 67.175 165.437L64.635 133.092ZM58.886 194.717C58.886 187.33 64.236 181.182 71.262 179.912V209.521C64.236 208.252 58.886 202.103 58.886 194.717ZM43.672 323.433V304.402C43.672 295.124 51.22 287.576 60.498 287.576H83.549C90.185 287.576 95.919 291.447 98.656 297.041C99.599 299.489 100.375 301.724 100.375 304.402V323.433C100.375 323.924 99.899 324.379 99.429 324.379H44.618C44.096 324.378 43.672 323.954 43.672 323.433V323.433ZM86.262 218.453V171.115C86.262 153.135 94.132 136.173 107.53 124.656C124.112 137.809 153.497 152.061 204.023 154.601C205.505 159.947 206.263 165.48 206.263 171.115V218.453C206.263 252.021 179.347 279.33 146.262 279.33C113.177 279.33 86.262 252.021 86.262 218.453ZM440.738 209.522V179.913C447.764 181.183 453.114 187.331 453.114 194.718C453.114 202.103 447.764 208.252 440.738 209.522ZM287.336 155.185C286.562 133.725 294.347 113.394 309.255 97.9378C324.163 82.4818 344.2 73.9707 365.674 73.9707C387.148 73.9707 407.185 82.4828 422.093 97.9378C437.001 113.393 444.786 133.724 444.012 155.184L443.651 165.189C442.603 164.991 441.537 164.849 440.454 164.763C437.251 125.888 404.975 95.2367 365.736 95.2367C326.497 95.2367 294.221 125.887 291.018 164.763C289.893 164.852 288.784 165.001 287.697 165.211L287.336 155.185ZM278.36 194.717C278.36 187.33 283.711 181.182 290.737 179.912V209.521C283.711 208.252 278.36 202.103 278.36 194.717ZM305.737 218.453V171.115C305.737 137.547 332.653 110.238 365.737 110.238C398.822 110.238 425.738 137.548 425.738 171.115V218.453C425.738 252.021 398.822 279.33 365.737 279.33C332.653 279.33 305.737 252.021 305.737 218.453ZM331.838 301.85H331.84C333.829 301.85 335.736 301.06 337.143 299.654C338.55 298.247 339.34 296.339 339.34 294.35V289.464C347.556 292.6 356.449 294.33 365.736 294.33C375.14 294.33 384.138 292.554 392.44 289.342V294.35C392.44 298.492 395.798 301.85 399.94 301.85H409.725V304.87C409.725 329.041 390.061 348.705 365.89 348.705C341.719 348.705 322.055 329.041 322.055 304.87V301.848L331.838 301.85ZM497 438.029H292.525V337.767C292.542 324.24 287.299 311.487 277.762 301.856C277.758 301.852 277.754 301.849 277.75 301.845H307.056V304.87C307.056 337.312 333.449 363.705 365.891 363.705C398.332 363.705 424.726 337.312 424.726 304.87V301.85H461.419C470.912 301.862 479.847 305.613 486.579 312.41C493.311 319.208 497.013 328.207 497 337.757V438.029Z" fill="black"/>
</g>
<defs>
<clipPath id="clip0">
<rect width="512" height="512" fill="white"/>
</clipPath>
</defs>
</svg>
