<svg width="512" height="512" viewBox="0 0 512 512" fill="none" xmlns="http://www.w3.org/2000/svg">
<g clip-path="url(#clip0)">
<path d="M491.656 363.986C495.237 352.719 489.464 340.424 478.294 336.092L446.983 323.946C441.522 321.827 435.73 321.984 430.656 323.951V297.046L439.041 290.856C450.01 282.761 457.009 270.305 458.375 256.861H463.407C478.831 256.861 491.381 244.313 491.381 228.888C491.381 219.404 486.632 211.012 479.392 205.951V177.554C479.392 144.463 457.078 116.505 426.712 107.883C425.105 85.7573 406.602 68.2422 384.074 68.2422C361.546 68.2422 343.043 85.7563 341.435 107.883C311.069 116.505 288.755 144.463 288.755 177.555V205.95C281.515 211.011 276.766 219.403 276.766 228.888C276.766 244.312 289.314 256.861 304.739 256.861H309.772C311.139 270.305 318.139 282.761 329.105 290.856L337.491 297.047V313.957C309.235 311.114 281.716 309.656 255.646 309.656C244.243 309.656 233.67 309.946 223.949 310.433V251.824C231.189 246.763 235.937 238.372 235.937 228.889C235.937 219.405 231.189 211.013 223.949 205.952V177.554C223.949 137.416 192.988 105.602 153.463 105.127C153.433 105.126 153.402 105.126 153.37 105.126C153.118 105.126 152.869 105.139 152.622 105.163C152.351 105.136 152.076 105.121 151.796 105.121H105.744C93.9135 105.121 82.1713 108.039 71.789 113.558C68.1259 115.504 66.736 120.053 68.6827 123.715C70.6304 127.378 75.1777 128.768 78.8397 126.821C87.059 122.451 96.3629 120.142 105.744 120.142H145.068V151.032C130.593 183.834 71.3083 199.12 63.8991 200.912H48.3347V177.554C48.3347 164.518 52.5915 152.232 60.6456 142.024C63.2152 138.768 62.6584 134.045 59.4019 131.476C56.1454 128.907 51.4239 129.464 48.8544 132.72C38.6883 145.605 33.3139 161.108 33.3139 177.554V205.95C26.074 211.011 21.3254 219.403 21.3254 228.887C21.3254 238.371 26.074 246.762 33.3139 251.823V336.581C28.2149 338.872 24.1833 342.888 21.9112 348.041C19.7322 352.983 19.4058 358.416 20.9228 363.537C7.80276 373.706 0 389.514 0 406.167V428.92C0 437.101 6.65518 443.757 14.8365 443.757H242.428C250.609 443.757 257.264 437.102 257.264 428.92V406.167C257.264 403.039 256.977 399.951 256.443 396.926H265.405C271.281 396.926 276.063 401.707 276.063 407.584V428.236C276.063 436.794 283.025 443.757 291.584 443.757H373.044C377.193 443.757 380.555 440.394 380.555 436.247C380.555 432.099 377.193 428.736 373.044 428.736H291.584C291.309 428.736 291.083 428.512 291.083 428.236V407.584C291.083 393.425 279.564 381.906 265.405 381.906H251.42C245.495 370.221 235.415 360.744 222.791 355.857L175.215 337.439V330.288C193.257 327.511 220.331 324.676 255.648 324.676C281.681 324.676 309.206 326.157 337.493 329.05V339.137C337.493 343.015 338.297 346.756 339.882 350.259C343.577 358.422 355.28 377.411 384.076 377.411C400.754 377.411 411.688 371.041 418.663 364.094C421.616 370.461 426.488 375.953 432.928 379.561C438.649 382.767 444.785 385.147 451.168 386.637C453.73 387.235 456.305 387.522 458.853 387.522C468.244 387.522 477.24 383.6 483.731 376.918C492.107 384.246 496.981 394.81 496.981 406.165V428.734H403.086C398.937 428.734 395.575 432.097 395.575 436.245C395.575 440.392 398.937 443.755 403.086 443.755H497.166C505.346 443.755 512.001 437.1 512.001 428.919V406.165C512 389.557 504.475 374.168 491.656 363.986V363.986ZM203.196 215.934H207.966C215.108 215.934 220.918 221.745 220.918 228.887C220.918 236.029 215.107 241.84 207.966 241.84H203.196V215.934ZM208.929 177.554V200.913H195.686H194.997C189.608 196.612 172.461 181.21 160.09 151.061V120.647C187.966 124.307 208.929 148.093 208.929 177.554ZM151.751 168.947C167.274 199.677 186.141 213.176 188.174 214.569V252.035C188.174 262.538 183.13 272.532 174.678 278.769L148.364 298.192C136.562 306.903 120.701 306.904 108.898 298.192L82.5839 278.769C74.1332 272.532 69.0883 262.538 69.0883 252.035V215.112C81.1719 212.082 129.429 198.431 151.751 168.947V168.947ZM160.193 339.138C160.193 340.866 159.838 342.523 159.139 344.068C156.042 350.911 147.962 362.392 128.631 362.392C109.302 362.392 101.22 350.911 98.1223 344.068C97.4243 342.524 97.0698 340.866 97.0698 339.138V308.132L99.9769 310.278C108.547 316.603 118.589 319.765 128.629 319.765C138.671 319.765 148.714 316.603 157.283 310.278L160.191 308.131V339.138H160.193ZM35.6542 354.101C36.4703 352.25 37.9593 350.827 39.8459 350.095L71.1561 337.949C72.0453 337.605 72.9716 337.432 73.8979 337.432C74.9363 337.432 75.9738 337.649 76.9521 338.08C78.8037 338.896 80.2266 340.385 80.9576 342.271V342.272C84.4845 351.363 80.8214 361.76 72.4379 366.458C67.9497 368.973 63.1351 370.841 58.1262 372.01C48.7652 374.199 39.0498 368.987 35.524 359.896C34.791 358.011 34.838 355.952 35.6542 354.101V354.101ZM49.298 241.84C42.1561 241.84 36.3451 236.03 36.3451 228.887C36.3451 221.745 42.1561 215.934 49.298 215.934H54.0676V241.84H49.298ZM54.3309 256.86C55.6978 270.304 62.6975 282.76 73.6646 290.855L82.0501 297.045V323.967C76.7809 321.919 71.0269 321.888 65.7236 323.945L48.3347 330.69V256.835C48.6551 256.846 54.3309 256.86 54.3309 256.86V256.86ZM242.243 406.167V428.736H15.0207V406.167C15.0207 394.784 20.0727 383.948 28.6515 376.597C35.1645 383.482 44.3101 387.525 53.8563 387.524C56.4028 387.524 58.9803 387.236 61.5409 386.639C67.9247 385.149 74.0611 382.768 79.781 379.563C86.2209 375.954 91.0916 370.463 94.0447 364.096C101.02 371.043 111.955 377.413 128.632 377.413C155.295 377.413 167.297 361.14 171.861 352.249L217.369 369.865C232.246 375.624 242.243 390.213 242.243 406.167V406.167ZM175.214 297.045L183.599 290.855C194.567 282.76 201.567 270.304 202.933 256.859H207.965C208.288 256.859 208.609 256.846 208.929 256.835V311.379C195.682 312.393 184.406 313.737 175.214 315.097V297.045ZM463.408 241.84H458.638V215.934H463.408C470.55 215.934 476.361 221.745 476.361 228.887C476.361 236.029 470.55 241.84 463.408 241.84ZM384.075 83.2629C397.402 83.2629 408.56 92.7099 411.216 105.257C409.807 105.175 408.391 105.122 406.962 105.122H361.188C359.759 105.122 358.342 105.175 356.934 105.257C359.589 92.7099 370.748 83.2629 384.075 83.2629ZM303.778 200.913V177.554C303.778 145.897 329.532 120.143 361.188 120.143H406.962C438.618 120.143 464.372 145.897 464.372 177.553V200.912H456.4C447.452 200.912 439.285 196.377 434.556 188.779L415.797 158.641C413.652 155.196 409.949 153.14 405.892 153.141C401.834 153.141 398.133 155.198 395.99 158.642L384.326 177.38C375.153 192.115 359.314 200.913 341.957 200.913H303.778ZM291.788 228.887C291.788 221.745 297.599 215.934 304.741 215.934H309.512V241.84H304.741C297.599 241.84 291.788 236.029 291.788 228.887ZM324.532 252.035V215.934H341.957C364.539 215.934 385.145 204.488 397.079 185.318L405.894 171.156L421.805 196.717C426.955 204.991 434.687 210.945 443.619 213.868V252.035C443.619 262.537 438.574 272.532 430.122 278.769L403.808 298.192C392.007 306.903 376.146 306.904 364.342 298.192L338.028 278.769C329.577 272.533 324.532 262.538 324.532 252.035V252.035ZM384.075 362.391C364.745 362.391 356.663 350.91 353.566 344.066C352.868 342.523 352.513 340.865 352.513 339.137V308.131L355.42 310.277C363.99 316.602 374.032 319.764 384.073 319.764C394.114 319.764 404.157 316.602 412.726 310.277L415.634 308.13V339.137C415.634 340.865 415.281 342.522 414.581 344.066C411.485 350.911 403.405 362.391 384.075 362.391V362.391ZM454.582 372.011C449.574 370.842 444.758 368.974 440.269 366.459C431.886 361.762 428.222 351.364 431.748 342.272C433.26 338.378 437.657 336.438 441.551 337.949L472.861 350.095C476.755 351.606 478.694 356.003 477.184 359.897C473.658 368.988 463.941 374.196 454.582 372.011V372.011Z" fill="black"/>
<path d="M128.633 276.287C139.081 276.287 148.786 271.085 154.597 262.371C156.899 258.92 155.966 254.257 152.516 251.956C149.064 249.655 144.4 250.587 142.1 254.039C139.082 258.565 134.048 261.268 128.634 261.268C123.219 261.268 118.183 258.565 115.166 254.039C112.865 250.588 108.204 249.656 104.751 251.956C101.3 254.257 100.368 258.92 102.669 262.371C108.478 271.085 118.184 276.287 128.633 276.287Z" fill="black"/>
<path d="M384.075 276.287C394.523 276.287 404.229 271.085 410.04 262.371C412.341 258.92 411.409 254.257 407.958 251.956C404.505 249.655 399.843 250.587 397.543 254.039C394.524 258.565 389.49 261.268 384.076 261.268C378.661 261.268 373.626 258.565 370.608 254.039C368.307 250.588 363.646 249.656 360.193 251.956C356.742 254.257 355.81 258.92 358.111 262.371C363.92 271.085 373.628 276.287 384.075 276.287V276.287Z" fill="black"/>
</g>
<defs>
<clipPath id="clip0">
<rect width="512" height="512" fill="white"/>
</clipPath>
</defs>
</svg>
