<svg width="512" height="512" viewBox="0 0 512 512" fill="none" xmlns="http://www.w3.org/2000/svg">
<g clip-path="url(#clip0)">
<path d="M439.903 401.082C459.033 302.676 438.263 228.566 417.585 183.451C401.672 148.727 383.009 125.568 372.665 114.212V84.3128C372.665 47.2954 342.945 16.9632 305.845 16.9632C304.648 16.9632 303.661 16.9977 302.432 17.0667C289.425 6.01815 273.501 0 256.208 0C238.916 0 222.313 6.07504 209.251 17.227C208.127 17.1856 206.858 17.1667 205.588 17.1667C168.482 17.1667 138.214 47.1695 138.214 84.3128V108.213C131.318 115.41 107.827 140.643 88.2086 183.451C67.6424 228.321 49.1604 311.999 67.839 410.078C61.0037 425.955 57.1387 442.435 57.1387 456.868C57.1387 461.896 60.059 466.47 64.6101 468.608C135.185 501.739 201.736 512.003 257.112 512.002C286.26 512.002 312.322 509.157 334.231 505.304C403.233 493.173 446.443 469.189 448.25 468.173C452.335 465.877 454.863 461.555 454.863 456.868C454.863 439.684 449.339 419.595 439.903 401.082ZM164.528 151.581C166.252 134.359 170.892 119.903 179.427 109.651C194.077 92.0531 217.514 83.3595 255.44 83.0681V83.0629C284.746 83.0629 311.635 91.8273 327.097 109.113C348.198 132.703 351.606 167.162 351.673 185.284C239.016 177.814 216.99 140.121 215.497 137.299C213.83 132.334 209.497 129.21 204.245 128.859C198.989 128.474 194.093 131.808 191.815 136.63C183.37 154.514 172.961 168.795 164.271 178.922C163.542 169.577 163.897 159.444 164.528 151.581ZM162.888 216.89C163.986 216.021 186.301 198.13 205.658 165.755C224.358 183.16 266.155 206.65 357.062 211.568C357.498 215.124 357.284 221.179 354.583 228.838C351.094 238.72 346.058 243.941 343.76 245.45C341.078 244.571 338.168 244.579 335.467 245.515C332.072 246.691 329.319 249.22 327.861 252.504C313.899 283.922 286.773 320.61 256.284 320.61C225.73 320.61 198.587 283.812 184.628 252.299C183.117 248.889 180.21 246.296 176.652 245.179C173.871 244.305 170.903 244.403 168.215 245.41C165.886 243.853 160.906 238.637 157.449 228.843C156.249 225.44 155.546 222.36 155.165 219.665C157.927 219.593 160.649 218.662 162.888 216.89ZM199.818 366.33C206.981 366.33 212.344 361.148 212.344 353.985V331.305C226.135 340.694 239.928 346.545 255.707 346.545C271.961 346.545 286.472 340.346 300.263 330.45V353.985C300.263 361.148 306.777 366.33 313.942 366.33H362.358C379.19 366.33 396.65 381.116 409.462 400.239C376.111 402.572 303.542 412.362 256.015 452.13C208.491 412.363 135.918 402.492 102.569 400.16C115.381 381.038 132.841 366.33 149.673 366.33H199.818ZM418.652 369.707C401.691 350.939 382.095 340.471 362.356 340.471H326.12V304.576C334.739 294.228 341.54 282.826 347.236 271.384C349.465 270.986 351.902 270.253 354.121 269.195C364.308 264.328 373.648 252.468 378.94 237.47C385.036 220.194 384.36 203.845 377.613 193.783C377.956 186.737 378.07 174.764 376.146 160.685C382.341 170.358 388.889 181.813 394.997 195.3C411.925 232.682 428.53 291.697 418.652 369.707ZM205.577 43.1028C208.249 43.1028 210.38 43.2166 211.945 43.4493C216.045 44.0596 220.212 42.6805 223.118 39.7395C231.913 30.8389 243.841 25.9362 256.245 25.9362C268.707 25.9362 280.164 30.8096 288.909 39.6584C291.816 42.5977 295.962 43.9699 300.047 43.3683C302.102 43.0614 303.843 42.9011 305.881 42.9011C328.681 42.9011 346.807 61.5969 346.807 84.3128V92.7789C346.807 92.5065 346.345 92.2255 346.107 91.9531C325.508 68.8442 293.365 57.1233 255.44 57.1233V57.1302C212.342 57.4578 183.036 67.5892 164.073 88.0243V84.3128C164.073 61.4693 182.773 43.1028 205.577 43.1028ZM138.788 148.594C137.064 160.213 137.852 174.568 139.338 188.485C128.448 197.125 125.604 216.286 133.073 237.47C136.607 247.484 141.996 256.365 148.328 262.484C153.553 267.531 159.108 270.581 164.821 271.463C170.789 283.445 177.864 295.379 186.483 306.095V340.471H149.673C128 340.471 106.587 353.028 88.5603 375.467C77.0946 294.597 94.194 233.736 111.537 195.437C120.447 175.759 130.168 160.097 138.788 148.594ZM329.742 479.758C271.458 490.006 182.06 492.675 83.6075 448.772C84.4971 441.365 86.5502 433.573 89.4826 425.855C110.828 426.618 200.433 432.595 246.844 479.006C249.377 481.537 252.697 482.804 256.014 482.804C259.332 482.804 262.652 481.537 265.183 479.006C311.484 432.705 401.192 426.648 422.546 425.86C425.529 433.705 427.601 441.63 428.466 449.148C414.144 456.02 378.854 471.124 329.742 479.758Z" fill="black"/>
</g>
<defs>
<clipPath id="clip0">
<rect width="512" height="512" fill="white"/>
</clipPath>
</defs>
</svg>
