<svg width="512" height="512" viewBox="0 0 512 512" fill="none" xmlns="http://www.w3.org/2000/svg">
<path d="M449.432 97.043C441.057 86.883 427.161 76.452 404.693 67.034C395.494 53.299 376.399 41.914 348.635 33.842C338.312 10.677 295.836 0 256 0C216.164 0 173.688 10.677 163.364 33.843C135.6 41.915 116.506 53.299 107.306 67.035C84.838 76.453 70.942 86.884 62.567 97.044C11.806 120.685 1 148.029 1 167V407C1 437.743 29.421 465.332 81.027 484.685C128 502.299 190.14 512 256 512C321.86 512 384 502.299 430.973 484.685C482.579 465.332 511 437.743 511 407V167C511 148.029 500.194 120.685 449.432 97.043V97.043ZM256 30C293.61 30 315.434 39.784 320.359 45C315.434 50.216 293.61 60 256 60C218.39 60 196.566 50.216 191.641 45C196.566 39.784 218.39 30 256 30ZM168.2 63.718C183.508 81.656 220.785 90 256 90C291.215 90 328.492 81.656 343.8 63.718C371.613 72.41 381 82.837 381 87C381 91.076 372.73 100.093 349.95 108.229C325.086 117.109 291.72 122 256 122C220.28 122 186.914 117.109 162.05 108.229C139.27 100.093 131 91.076 131 87C131 82.837 140.387 72.41 168.2 63.718ZM104.326 101.747C109.759 113.358 122.984 126.133 151.96 136.482C179.98 146.489 216.929 152 256 152C295.071 152 332.02 146.489 360.04 136.481C389.02 126.131 402.245 113.354 407.676 101.742C424.543 111.199 431 120.527 431 127C431 149.425 362.827 182 256 182C149.173 182 81 149.425 81 127C81 120.529 87.463 111.202 104.326 101.747V101.747ZM52.267 137.291C56.419 153.969 72.014 174.196 116.464 190.572C153.97 204.39 203.524 212 256 212C308.476 212 358.03 204.39 395.536 190.573C439.989 174.195 455.583 153.968 459.734 137.289C473.482 147.031 481 157.328 481 167C481 182.071 461.983 199.153 430.132 212.693C424.595 215.047 421 220.481 421 226.497V280C421 292.407 410.906 302.5 398.5 302.5C386.094 302.5 376 292.407 376 280V247.924C376 243.473 374.023 239.252 370.604 236.402C367.185 233.552 362.674 232.366 358.299 233.169C336.785 237.106 313.866 239.761 290.178 241.06C282.225 241.496 275.999 248.072 275.999 256.038V402.692C275.999 413.511 267.205 422.482 256.395 422.688C251.208 422.77 246.184 420.758 242.325 416.971C238.305 413.027 236 407.571 236 402V256.037C236 248.072 229.774 241.495 221.821 241.059C199.972 239.861 178.683 237.496 158.545 234.028C154.188 233.28 149.718 234.489 146.335 237.34C142.952 240.191 141 244.388 141 248.812V358C141 362.084 139.387 365.903 136.458 368.752C133.531 371.6 129.642 373.1 125.568 372.994C117.535 372.774 111 365.767 111 357.376V234.064C111 227.62 106.884 221.895 100.774 219.844C57.735 205.396 31 185.146 31 167C31 157.329 38.518 147.032 52.267 137.291V137.291ZM420.438 456.595C376.751 472.978 318.353 482 256 482C193.647 482 135.249 472.978 91.562 456.595C53.64 442.374 31 423.834 31 407V218.206C43.819 228.082 60.575 236.992 81 244.655V357.376C81 381.863 100.624 402.322 124.746 402.982C137.016 403.318 148.598 398.798 157.379 390.254C166.163 381.708 171 370.253 171 358V266.314C182.421 267.895 194.119 269.152 206 270.076V402C206 415.575 211.582 428.837 221.315 438.386C230.742 447.634 243.028 452.692 256.01 452.691C256.328 452.691 256.65 452.688 256.968 452.682C284.005 452.166 306 429.74 306 402.691V270.076C319.644 269.016 333.016 267.52 346 265.601V280C346 308.949 369.552 332.5 398.5 332.5C427.448 332.5 451 308.949 451 280V236.203C463.238 230.398 473.093 224.376 481 218.315V407C481 423.834 458.36 442.374 420.438 456.595V456.595Z" fill="black"/>
</svg>
