<svg width="35" height="27" viewBox="0 0 35 27" fill="none" xmlns="http://www.w3.org/2000/svg">
<path d="M33.4084 4.55689C32.735 3.85052 31.8051 3.43313 30.7468 3.43313H25.4236V3.36891C25.4236 2.56623 25.103 1.79565 24.5578 1.28194C24.0127 0.736112 23.2751 0.415039 22.4734 0.415039H12.8532C12.0195 0.415039 11.2819 0.736112 10.7368 1.28194C10.1916 1.82776 9.87097 2.56623 9.87097 3.36891V3.43313H4.57985C3.52163 3.43313 2.59167 3.85052 1.91826 4.55689C1.24484 5.23114 0.795898 6.19436 0.795898 7.2218V23.2112C0.795898 24.2708 1.21277 25.2019 1.91826 25.8762C2.59167 26.5504 3.55369 26.9999 4.57985 26.9999H30.7468C31.8051 26.9999 32.735 26.5825 33.4084 25.8762C34.0818 25.2019 34.5308 24.2387 34.5308 23.2112V7.2218C34.5308 6.16225 34.1139 5.23114 33.4084 4.55689ZM32.8633 23.2112H32.8312C32.8312 23.7892 32.6067 24.3029 32.2219 24.6882C31.8371 25.0735 31.324 25.2982 30.7468 25.2982H4.57985C4.00264 25.2982 3.48956 25.0735 3.10475 24.6882C2.71994 24.3029 2.49547 23.7892 2.49547 23.2112V7.2218C2.49547 6.64386 2.71994 6.13015 3.10475 5.74486C3.48956 5.35957 4.00264 5.13482 4.57985 5.13482H10.7689C11.2499 5.13482 11.6347 4.74953 11.6347 4.26792V3.33681C11.6347 2.98363 11.7629 2.66255 11.9874 2.4378C12.2119 2.21305 12.5326 2.08462 12.8853 2.08462H22.4734C22.8262 2.08462 23.1469 2.21305 23.3713 2.4378C23.5958 2.66255 23.7241 2.98363 23.7241 3.33681V4.26792C23.7241 4.74953 24.1089 5.13482 24.5899 5.13482H30.7789C31.3561 5.13482 31.8692 5.35957 32.254 5.74486C32.6388 6.13015 32.8633 6.64386 32.8633 7.2218V23.2112Z" fill="#F3B95A"/>
<path d="M33.4084 4.55689C32.735 3.85052 31.8051 3.43313 30.7468 3.43313H25.4236V3.36891C25.4236 2.56623 25.103 1.79565 24.5578 1.28194C24.0127 0.736112 23.2751 0.415039 22.4734 0.415039H12.8532C12.0195 0.415039 11.2819 0.736112 10.7368 1.28194C10.1916 1.82776 9.87097 2.56623 9.87097 3.36891V3.43313H4.57985C3.52163 3.43313 2.59167 3.85052 1.91826 4.55689C1.24484 5.23114 0.795898 6.19436 0.795898 7.2218V23.2112C0.795898 24.2708 1.21277 25.2019 1.91826 25.8762C2.59167 26.5504 3.55369 26.9999 4.57985 26.9999H30.7468C31.8051 26.9999 32.735 26.5825 33.4084 25.8762C34.0818 25.2019 34.5308 24.2387 34.5308 23.2112V7.2218C34.5308 6.16225 34.1139 5.23114 33.4084 4.55689ZM32.8633 23.2112H32.8312C32.8312 23.7892 32.6067 24.3029 32.2219 24.6882C31.8371 25.0735 31.324 25.2982 30.7468 25.2982H4.57985C4.00264 25.2982 3.48956 25.0735 3.10475 24.6882C2.71994 24.3029 2.49547 23.7892 2.49547 23.2112V7.2218C2.49547 6.64386 2.71994 6.13015 3.10475 5.74486C3.48956 5.35957 4.00264 5.13482 4.57985 5.13482H10.7689C11.2499 5.13482 11.6347 4.74953 11.6347 4.26792V3.33681C11.6347 2.98363 11.7629 2.66255 11.9874 2.4378C12.2119 2.21305 12.5326 2.08462 12.8853 2.08462H22.4734C22.8262 2.08462 23.1469 2.21305 23.3713 2.4378C23.5958 2.66255 23.7241 2.98363 23.7241 3.33681V4.26792C23.7241 4.74953 24.1089 5.13482 24.5899 5.13482H30.7789C31.3561 5.13482 31.8692 5.35957 32.254 5.74486C32.6388 6.13015 32.8633 6.64386 32.8633 7.2218V23.2112Z" stroke="#F3B95A"/>
<path d="M17.664 7.31836C15.4834 7.31836 13.4952 8.21737 12.0842 9.63009C10.6412 11.0749 9.77539 13.0335 9.77539 15.2168C9.77539 17.4001 10.6733 19.3907 12.0842 20.8034C13.5273 22.2483 15.4834 23.1152 17.664 23.1152C19.8446 23.1152 21.8327 22.2162 23.2437 20.8034C24.6867 19.3586 25.5525 17.4001 25.5525 15.2168C25.5525 13.0335 24.6547 11.0428 23.2437 9.63009C21.8327 8.21737 19.8446 7.31836 17.664 7.31836ZM22.0251 19.6155C20.9028 20.7071 19.3635 21.4135 17.664 21.4135C15.9644 21.4135 14.4252 20.7071 13.3028 19.6155C12.1804 18.4917 11.507 16.9506 11.507 15.2489C11.507 13.5472 12.2125 12.006 13.3028 10.8823C14.4252 9.75852 15.9644 9.08426 17.664 9.08426C19.3635 9.08426 20.9028 9.79062 22.0251 10.8823C23.1475 12.006 23.8209 13.5472 23.8209 15.2489C23.853 16.9506 23.1475 18.4917 22.0251 19.6155Z" fill="#F3B95A"/>
<path d="M17.664 7.31836C15.4834 7.31836 13.4952 8.21737 12.0842 9.63009C10.6412 11.0749 9.77539 13.0335 9.77539 15.2168C9.77539 17.4001 10.6733 19.3907 12.0842 20.8034C13.5273 22.2483 15.4834 23.1152 17.664 23.1152C19.8446 23.1152 21.8327 22.2162 23.2437 20.8034C24.6867 19.3586 25.5525 17.4001 25.5525 15.2168C25.5525 13.0335 24.6547 11.0428 23.2437 9.63009C21.8327 8.21737 19.8446 7.31836 17.664 7.31836ZM22.0251 19.6155C20.9028 20.7071 19.3635 21.4135 17.664 21.4135C15.9644 21.4135 14.4252 20.7071 13.3028 19.6155C12.1804 18.4917 11.507 16.9506 11.507 15.2489C11.507 13.5472 12.2125 12.006 13.3028 10.8823C14.4252 9.75852 15.9644 9.08426 17.664 9.08426C19.3635 9.08426 20.9028 9.79062 22.0251 10.8823C23.1475 12.006 23.8209 13.5472 23.8209 15.2489C23.853 16.9506 23.1475 18.4917 22.0251 19.6155Z" stroke="#F3B95A"/>
<path d="M29.0801 10.4327C29.9479 10.4327 30.6514 9.72828 30.6514 8.85939C30.6514 7.99051 29.9479 7.28613 29.0801 7.28613C28.2123 7.28613 27.5088 7.99051 27.5088 8.85939C27.5088 9.72828 28.2123 10.4327 29.0801 10.4327Z" fill="#F3B95A"/>
<path d="M29.0801 10.4327C29.9479 10.4327 30.6514 9.72828 30.6514 8.85939C30.6514 7.99051 29.9479 7.28613 29.0801 7.28613C28.2123 7.28613 27.5088 7.99051 27.5088 8.85939C27.5088 9.72828 28.2123 10.4327 29.0801 10.4327Z" stroke="#F3B95A"/>
</svg>
