<svg width="28" height="28" viewBox="0 0 28 28" fill="none" xmlns="http://www.w3.org/2000/svg">
<path d="M22.0453 16.9026C21.4997 16.3369 20.8415 16.0345 20.1439 16.0345C19.452 16.0345 18.7882 16.3313 18.22 16.897L16.4424 18.6611C16.2962 18.5827 16.1499 18.5099 16.0093 18.4371C15.8067 18.3362 15.6155 18.241 15.4523 18.1402C13.7872 17.0874 12.274 15.7153 10.8226 13.94C10.1194 13.0551 9.64691 12.3103 9.30376 11.5542C9.76505 11.1342 10.1926 10.6974 10.6089 10.2773C10.7664 10.1205 10.9239 9.95811 11.0814 9.8013C12.2627 8.62522 12.2627 7.10193 11.0814 5.92585L9.54565 4.39695C9.37127 4.22334 9.19125 4.04413 9.02249 3.86492C8.68497 3.5177 8.33056 3.15927 7.96491 2.82325C7.41925 2.28562 6.7667 2 6.0804 2C5.3941 2 4.7303 2.28562 4.16776 2.82325C4.16213 2.82885 4.16213 2.82885 4.15651 2.83445L2.24386 4.75538C1.52381 5.47222 1.11315 6.34588 1.02315 7.35954C0.888138 8.99485 1.37192 10.5181 1.7432 11.515C2.65452 13.9624 4.01587 16.2305 6.04665 18.6611C8.51058 21.5901 11.4752 23.903 14.8617 25.5327C16.1555 26.1431 17.8825 26.8656 19.812 26.9888C19.9302 26.9944 20.0539 27 20.1664 27C21.4659 27 22.5572 26.5352 23.4123 25.6111C23.4179 25.5999 23.4292 25.5943 23.4348 25.5831C23.7273 25.2303 24.0649 24.9111 24.4193 24.5694C24.6611 24.3398 24.9087 24.099 25.1506 23.847C25.7075 23.2702 26 22.5981 26 21.9093C26 21.2148 25.7019 20.5484 25.1337 19.9883L22.0453 16.9026ZM24.0592 22.7997C24.0536 22.8053 24.0536 22.7997 24.0592 22.7997C23.8398 23.0349 23.6148 23.2478 23.3729 23.483C23.0073 23.8302 22.636 24.1942 22.2872 24.603C21.7191 25.2079 21.0496 25.4935 20.1721 25.4935C20.0877 25.4935 19.9977 25.4935 19.9133 25.4879C18.2425 25.3815 16.6899 24.7319 15.5255 24.1774C12.3415 22.6429 9.54566 20.4644 7.22236 17.7034C5.30409 15.4017 4.0215 13.2735 3.17206 10.9886C2.64889 9.59409 2.45763 8.50762 2.54201 7.48275C2.59826 6.82751 2.85141 6.28427 3.31832 5.81944L5.23659 3.90972C5.51223 3.65211 5.80475 3.5121 6.09165 3.5121C6.44605 3.5121 6.73295 3.72491 6.91296 3.90412C6.91858 3.90972 6.92421 3.91532 6.92984 3.92092C7.27299 4.24014 7.59926 4.57056 7.94241 4.92339C8.1168 5.1026 8.29681 5.28181 8.47682 5.46662L10.0126 6.99552C10.6089 7.58916 10.6089 8.13799 10.0126 8.73163C9.84943 8.89404 9.69192 9.05645 9.52878 9.21326C9.05624 9.69489 8.60621 10.1429 8.1168 10.5797C8.10555 10.591 8.0943 10.5965 8.08867 10.6078C7.60489 11.0894 7.69489 11.5598 7.79615 11.879C7.80178 11.8958 7.8074 11.9126 7.81303 11.9294C8.21243 12.8927 8.77497 13.8 9.63004 14.8808L9.63566 14.8864C11.1883 16.7905 12.8253 18.2746 14.631 19.4115C14.8617 19.5571 15.0979 19.6747 15.323 19.7867C15.5255 19.8875 15.7167 19.9828 15.8799 20.0836C15.9024 20.0948 15.9249 20.1116 15.9474 20.1228C16.1386 20.218 16.3187 20.2628 16.5043 20.2628C16.9712 20.2628 17.2637 19.9715 17.3594 19.8763L19.2833 17.961C19.4745 17.7706 19.7783 17.541 20.1327 17.541C20.4815 17.541 20.7684 17.7594 20.9427 17.9498C20.9484 17.9554 20.9484 17.9554 20.954 17.961L24.0536 21.0468C24.633 21.6181 24.633 22.2061 24.0592 22.7997Z" fill="#F3B95A"/>
<path d="M24.0592 22.7997C24.0536 22.7997 24.0536 22.8053 24.0592 22.7997ZM24.0592 22.7997C23.8398 23.0349 23.6148 23.2478 23.3729 23.483C23.0073 23.8302 22.636 24.1942 22.2872 24.603C21.7191 25.2079 21.0496 25.4935 20.1721 25.4935C20.0877 25.4935 19.9977 25.4935 19.9133 25.4879C18.2425 25.3815 16.6899 24.7319 15.5255 24.1774C12.3415 22.6429 9.54565 20.4644 7.22236 17.7034C5.30409 15.4017 4.0215 13.2735 3.17206 10.9886C2.64889 9.59409 2.45763 8.50762 2.54201 7.48275C2.59826 6.82751 2.85141 6.28427 3.31832 5.81944L5.23659 3.90972C5.51223 3.65211 5.80475 3.5121 6.09165 3.5121C6.44605 3.5121 6.73295 3.72491 6.91296 3.90412C6.91858 3.90972 6.92421 3.91532 6.92984 3.92092C7.27299 4.24014 7.59926 4.57056 7.94241 4.92339C8.1168 5.1026 8.29681 5.28181 8.47682 5.46662L10.0126 6.99552C10.6089 7.58916 10.6089 8.13799 10.0126 8.73163C9.84943 8.89404 9.69192 9.05645 9.52878 9.21326C9.05624 9.69489 8.60621 10.1429 8.1168 10.5797C8.10555 10.5909 8.0943 10.5966 8.08867 10.6078C7.60489 11.0894 7.69489 11.5598 7.79615 11.879C7.80178 11.8958 7.8074 11.9126 7.81303 11.9294C8.21243 12.8927 8.77497 13.8 9.63004 14.8808L9.63566 14.8864C11.1883 16.7905 12.8253 18.2746 14.631 19.4115C14.8617 19.5571 15.0979 19.6747 15.323 19.7867C15.5255 19.8875 15.7167 19.9828 15.8799 20.0836C15.9024 20.0948 15.9249 20.1116 15.9474 20.1228C16.1386 20.218 16.3187 20.2628 16.5043 20.2628C16.9712 20.2628 17.2637 19.9715 17.3594 19.8763L19.2833 17.961C19.4745 17.7706 19.7783 17.541 20.1327 17.541C20.4815 17.541 20.7684 17.7594 20.9427 17.9498C20.9484 17.9554 20.9484 17.9554 20.954 17.961L24.0536 21.0468C24.633 21.6181 24.633 22.2061 24.0592 22.7997ZM22.0453 16.9026C21.4997 16.3369 20.8415 16.0345 20.1439 16.0345C19.452 16.0345 18.7882 16.3313 18.22 16.897L16.4424 18.6611C16.2962 18.5827 16.1499 18.5099 16.0093 18.4371C15.8067 18.3362 15.6155 18.241 15.4523 18.1402C13.7872 17.0874 12.274 15.7153 10.8226 13.94C10.1194 13.0551 9.64691 12.3103 9.30376 11.5542C9.76505 11.1342 10.1926 10.6974 10.6089 10.2773C10.7664 10.1205 10.9239 9.95811 11.0814 9.8013C12.2627 8.62522 12.2627 7.10193 11.0814 5.92585L9.54565 4.39695C9.37127 4.22334 9.19125 4.04413 9.02249 3.86492C8.68497 3.5177 8.33056 3.15927 7.96491 2.82325C7.41925 2.28562 6.7667 2 6.0804 2C5.3941 2 4.7303 2.28562 4.16776 2.82325C4.16213 2.82885 4.16213 2.82885 4.15651 2.83445L2.24386 4.75538C1.52381 5.47222 1.11315 6.34588 1.02315 7.35954C0.888138 8.99485 1.37192 10.5181 1.7432 11.515C2.65452 13.9624 4.01587 16.2305 6.04665 18.6611C8.51058 21.5901 11.4752 23.903 14.8617 25.5327C16.1555 26.1431 17.8825 26.8656 19.812 26.9888C19.9302 26.9944 20.0539 27 20.1664 27C21.4659 27 22.5572 26.5352 23.4123 25.6111C23.4179 25.5999 23.4292 25.5943 23.4348 25.5831C23.7273 25.2303 24.0649 24.9111 24.4193 24.5694C24.6612 24.3398 24.9087 24.099 25.1506 23.847C25.7075 23.2702 26 22.5981 26 21.9093C26 21.2148 25.7019 20.5484 25.1337 19.9884L22.0453 16.9026Z" stroke="#F3B95A" stroke-width="0.5"/>
<path d="M15.1313 6.66039C16.6796 6.92041 18.0861 7.6532 19.2089 8.77602C20.3317 9.89885 21.0586 11.3053 21.3245 12.8536C21.3896 13.2437 21.7264 13.5155 22.1105 13.5155C22.1578 13.5155 22.1992 13.5096 22.2464 13.5037C22.6838 13.4328 22.9733 13.0191 22.9024 12.5818C22.5833 10.7085 21.6969 9.00059 20.3436 7.64729C18.9903 6.294 17.2824 5.40756 15.409 5.08844C14.9717 5.01752 14.564 5.30709 14.4872 5.73849C14.4103 6.16989 14.694 6.58948 15.1313 6.66039Z" fill="#F3B95A" stroke="#F3B95A"/>
<path d="M26.9899 11.236C26.5542 8.67952 25.3499 6.35322 23.4993 4.50198C21.6487 2.65073 19.3232 1.44595 16.7677 1.01008C16.4103 0.946413 16.0725 1.19129 16.0088 1.5488C15.9501 1.91121 16.19 2.24914 16.5523 2.31281C18.8337 2.69971 20.9143 3.78205 22.5691 5.43249C24.2238 7.08784 25.3009 9.16926 25.6877 11.4515C25.7415 11.7747 26.0206 12 26.3388 12C26.378 12 26.4122 11.9951 26.4514 11.9902C26.8088 11.9363 27.0536 11.5935 26.9899 11.236Z" fill="#F3B95A" stroke="#F3B95A"/>
</svg>
