<svg width="512" height="512" viewBox="0 0 512 512" fill="none" xmlns="http://www.w3.org/2000/svg">
<path d="M492 392H369.182C374.068 388.035 378.782 383.802 383.292 379.292C417.282 345.302 436 300.096 436 252V212C436 200.954 427.046 192 416 192C404.954 192 396 200.954 396 212C396 223.028 387.028 232 376 232C364.972 232 356 223.028 356 212C356 166.683 332.821 133.653 312.371 104.512C293.667 77.858 276 52.683 276 20C276 8.954 267.046 0 256 0C244.954 0 236 8.954 236 20C236 52.683 218.333 77.858 199.629 104.512C179.179 133.653 156 166.683 156 212C156 223.028 147.028 232 136 232C124.972 232 116 223.028 116 212C116 200.954 107.046 192 96 192C84.954 192 76 200.954 76 212V252C76 300.096 94.718 345.302 128.708 379.292C133.219 383.803 137.932 388.036 142.818 392H20C8.954 392 0 400.954 0 412V492C0 503.046 8.954 512 20 512H492C503.046 512 512 503.046 512 492V412C512 400.954 503.046 392 492 392ZM117.017 268.923C122.986 270.919 129.369 272 136 272C169.084 272 196 245.084 196 212C196 179.317 213.667 154.142 232.371 127.488C240.344 116.126 248.732 104.173 256 91.131C263.268 104.173 271.656 116.126 279.629 127.488C298.333 154.142 316 179.317 316 212C316 245.084 342.916 272 376 272C382.631 272 389.014 270.919 394.983 268.923C386.605 338.172 327.472 392 256 392C184.528 392 125.395 338.172 117.017 268.923ZM472 472H40V432H472V472Z" fill="black"/>
<path d="M316 332C316 307.389 286.383 260.814 272.456 240.633C268.722 235.227 262.57 232 256 232C249.43 232 243.278 235.227 239.544 240.633C225.617 260.814 196 307.388 196 332C196 365.084 222.916 392 256 392C289.084 392 316 365.084 316 332ZM256 352C244.972 352 236 343.028 236 332.023C236.223 323.287 251.559 296.609 256 289.163C260.535 296.762 275.71 323.184 276 332.016C275.991 343.037 267.022 352 256 352Z" fill="black"/>
<path d="M136 132C147.046 132 156 123.046 156 112V72C156 60.954 147.046 52 136 52C124.954 52 116 60.954 116 72V112C116 123.046 124.954 132 136 132Z" fill="black"/>
<path d="M356 80C367.046 80 376 71.046 376 60V20C376 8.954 367.046 0 356 0C344.954 0 336 8.954 336 20V60C336 71.046 344.954 80 356 80Z" fill="black"/>
</svg>
