<svg width="84" height="64" viewBox="0 0 84 64" fill="none" xmlns="http://www.w3.org/2000/svg">
<path d="M77.8777 8.52102H55.6426L51.1527 1.16055C50.7135 0.440907 49.9189 0 49.0606 0H34.9392C34.0809 0 33.286 0.440907 32.847 1.16055L28.3571 8.52102H21.0608V6.89876C21.0608 5.5867 19.9707 4.52297 18.6261 4.52297H9.61755C8.2727 4.52297 7.18289 5.5867 7.18289 6.89876V8.52102H6.12232C2.7408 8.52102 0 11.1958 0 14.495V57.7499C0 61.0494 2.7408 63.7241 6.12205 63.7241H77.8777C81.2589 63.7241 84 61.0494 84 57.7499V14.495C84.0003 11.1958 81.2589 8.52102 77.8777 8.52102ZM41.9999 53.1274C32.3755 53.1274 24.5735 45.5141 24.5735 36.1222C24.5735 26.7308 32.3755 19.1172 41.9999 19.1172C51.6242 19.1172 59.4263 26.7308 59.4263 36.1222C59.4263 45.5141 51.6242 53.1274 41.9999 53.1274ZM74.058 20.8376H66.429C65.0844 20.8376 63.9943 19.7739 63.9943 18.4616C63.9943 17.1493 65.0844 16.0855 66.429 16.0855H74.058C75.4031 16.0855 76.4929 17.1493 76.4929 18.4616C76.4929 19.7739 75.4028 20.8376 74.058 20.8376Z" fill="#F3B95A"/>
<path d="M42.0003 47.2466C48.3992 47.2466 53.5865 42.0593 53.5865 35.6604C53.5865 29.2615 48.3992 24.0742 42.0003 24.0742C35.6014 24.0742 30.4141 29.2615 30.4141 35.6604C30.4141 42.0593 35.6014 47.2466 42.0003 47.2466Z" fill="#F3B95A"/>
</svg>
