<svg width="512" height="512" viewBox="0 0 512 512" fill="none" xmlns="http://www.w3.org/2000/svg">
<path d="M431.484 117.584C423.657 86.076 415.806 64.003 411.429 52.758C421.422 48.668 428.484 38.843 428.484 27.395C428.483 12.29 416.193 0 401.087 0H189.386C185.247 0 181.891 3.355 181.891 7.495C181.891 11.634 185.247 14.99 189.386 14.99H401.087C407.928 14.99 413.493 20.555 413.493 27.396C413.493 34.237 407.928 39.802 401.087 39.802H110.912C104.072 39.802 98.5059 34.236 98.5059 27.396C98.5059 20.555 104.071 14.99 110.912 14.99H155.41C159.549 14.99 162.905 11.634 162.905 7.495C162.905 3.356 159.549 0 155.41 0H110.912C95.8059 0 83.5159 12.29 83.5159 27.396C83.5159 38.844 90.5769 48.669 100.57 52.759C96.1939 64.004 88.3429 86.077 80.5139 117.585C58.0149 208.137 58.0149 303.863 80.5139 394.415C88.3429 425.923 96.1939 447.997 100.57 459.241C90.5769 463.331 83.5159 473.156 83.5159 484.604C83.5159 499.71 95.8059 512 110.912 512H401.087C416.193 512 428.483 499.71 428.483 484.604C428.483 473.156 421.422 463.331 411.429 459.241C415.806 447.996 423.657 425.923 431.484 394.415C453.984 303.864 453.984 208.136 431.484 117.584V117.584ZM115.901 54.792H396.099C397.819 59.059 400.618 66.35 403.976 76.379L377.127 85.24L334.94 71.317C330.904 69.982 326.454 69.981 322.402 71.316L280.223 85.24L238.03 71.314C233.933 69.963 229.601 69.964 225.5 71.315L183.32 85.24L141.127 71.314C137.03 69.963 132.698 69.964 128.597 71.315L107.379 78.319C111.024 67.286 114.073 59.328 115.901 54.792V54.792ZM101.902 95.913L133.291 85.551C134.32 85.212 135.407 85.212 136.431 85.55L180.97 100.25C182.495 100.754 184.143 100.754 185.668 100.25L230.194 85.551C231.221 85.213 232.308 85.212 233.333 85.55L277.873 100.25C279.399 100.754 281.046 100.754 282.572 100.25L327.097 85.551C328.113 85.217 329.226 85.216 330.236 85.55L374.776 100.25C376.302 100.754 377.948 100.754 379.474 100.25L408.529 90.661C409.183 92.813 411.175 99.625 411.353 100.249L378.697 111.027C377.681 111.362 376.568 111.362 375.558 111.028L331.018 96.328C329.492 95.824 327.846 95.824 326.32 96.328L281.777 111.029C280.773 111.362 279.665 111.362 278.655 111.028L234.115 96.328C233.352 96.076 232.559 95.95 231.766 95.95C230.973 95.95 230.18 96.076 229.417 96.328L184.873 111.029C183.868 111.362 182.761 111.362 181.751 111.028L137.212 96.328C135.687 95.824 134.039 95.824 132.514 96.328L98.6229 107.513C98.6609 107.378 101.856 96.07 101.902 95.913V95.913ZM94.2079 124.756L134.864 111.338L177.049 125.261C181.09 126.597 185.541 126.598 189.576 125.262L231.766 111.337L273.952 125.26C275.973 125.928 278.097 126.263 280.219 126.263C282.341 126.263 284.462 125.929 286.479 125.262L328.669 111.337L370.855 125.26C374.889 126.595 379.34 126.596 383.392 125.261L415.295 114.732C415.842 116.841 416.39 118.996 416.937 121.198C418.635 128.032 420.186 134.898 421.62 141.788H90.3839C91.5699 136.093 92.8419 130.414 94.2079 124.756V124.756ZM198.655 179.212L246.212 355.222H151.098L198.655 179.212ZM141.31 333.983L93.4299 156.778H189.189L141.31 333.983ZM208.12 156.778H303.88L256 333.983L208.12 156.778ZM313.345 179.212L360.902 355.222H265.788L313.345 179.212ZM322.81 156.778H418.57L370.69 333.983L322.81 156.778ZM83.9369 179.111L131.521 355.222H87.4709C77.0369 297.154 75.8639 237.531 83.9369 179.111ZM413.494 484.604C413.494 491.445 407.929 497.01 401.088 497.01H110.912C104.072 497.01 98.5059 491.445 98.5059 484.604C98.5059 477.763 104.071 472.198 110.912 472.198H401.087C407.928 472.198 413.494 477.763 413.494 484.604ZM108.024 435.621L134.864 426.76L177.05 440.683C181.09 442.019 185.54 442.018 189.576 440.684L231.766 426.759L273.953 440.682C275.974 441.35 278.097 441.684 280.219 441.684C282.341 441.684 284.462 441.35 286.479 440.683L328.669 426.758L370.856 440.681C374.892 442.015 379.342 442.016 383.392 440.682L404.621 433.676C400.976 444.71 397.926 452.669 396.098 457.206H115.901C114.181 452.941 111.382 445.65 108.024 435.621V435.621ZM417.793 387.24L377.126 400.662L334.939 386.739C330.903 385.405 326.454 385.404 322.402 386.738L319.891 387.567C315.961 388.865 313.826 393.103 315.124 397.034C316.422 400.964 320.659 403.095 324.591 401.801L327.097 400.973C328.112 400.638 329.226 400.637 330.237 400.972L374.777 415.672C376.303 416.176 377.949 416.176 379.475 415.672L413.377 404.484C413.337 404.632 410.147 415.922 410.098 416.088L378.698 426.45C377.683 426.785 376.569 426.786 375.558 426.451L331.018 411.751C329.492 411.247 327.846 411.247 326.32 411.751L281.778 426.452C280.772 426.785 279.665 426.784 278.655 426.451L234.115 411.751C232.591 411.248 230.943 411.248 229.417 411.751L184.874 426.452C183.868 426.785 182.761 426.785 181.751 426.451L137.212 411.751C135.687 411.247 134.039 411.247 132.514 411.751L103.47 421.339C103.456 421.343 100.927 412.735 100.646 411.751L133.29 400.974C134.32 400.636 135.407 400.636 136.432 400.973L180.971 415.673C182.496 416.177 184.144 416.177 185.669 415.673L230.193 400.975C231.223 400.636 232.309 400.636 233.334 400.974L277.874 415.674C279.4 416.178 281.048 416.178 282.572 415.674L291.854 412.61C295.785 411.313 297.92 407.074 296.622 403.143C295.324 399.212 291.084 397.079 287.156 398.375L280.223 400.664L238.028 386.738C233.931 385.389 229.601 385.389 225.5 386.739L183.32 400.664L141.125 386.738C137.03 385.389 132.699 385.389 128.596 386.739L96.7039 397.268C96.1569 395.159 95.6089 393.005 95.0619 390.802C93.3639 383.969 91.8139 377.102 90.3789 370.213H421.616C420.43 375.906 419.159 381.583 417.793 387.24V387.24ZM380.479 355.222L428.067 179.099C436.138 237.524 434.963 297.15 424.523 355.222H380.479Z" fill="black"/>
</svg>
