<svg width="512" height="512" viewBox="0 0 512 512" fill="none" xmlns="http://www.w3.org/2000/svg">
<path d="M81.5418 383.385C54.439 346.453 39.8803 301.81 39.9998 256C39.9989 244.878 40.848 233.772 42.5398 222.779L58.3528 225.221C56.7858 235.406 55.9991 245.696 55.9998 256C55.8874 298.413 69.3654 339.746 94.4578 373.939L81.5418 383.385Z" fill="black"/>
<path d="M256.001 472.001C236.348 472.014 216.785 469.349 197.852 464.082L202.152 448.67C242.688 459.925 285.733 458.188 325.231 443.701L330.771 458.711C306.832 467.537 281.515 472.037 256.001 472.001V472.001Z" fill="black"/>
<path d="M447.664 355.7L433.475 348.3C454.318 308.079 460.954 261.994 452.305 217.527L468.005 214.467C477.349 262.491 470.18 312.264 447.664 355.7V355.7Z" fill="black"/>
<path d="M371.379 92.6172C340.164 70.5917 303.298 57.9589 265.134 56.2109C226.971 54.4628 189.104 63.6725 156.006 82.7522L147.994 68.9012C183.742 48.2886 224.643 38.3385 265.865 40.2264C307.087 42.1143 346.907 55.7613 380.621 79.5552L371.379 92.6172Z" fill="black"/>
<path d="M376.153 210.766C369.031 191.437 357.35 174.113 342.102 160.262C326.854 146.412 308.49 136.445 288.568 131.207C268.646 125.97 247.755 125.616 227.667 130.176C207.579 134.736 188.887 144.075 173.179 157.401L162.82 145.209C180.491 130.217 201.518 119.709 224.117 114.579C246.716 109.448 270.219 109.845 292.631 115.737C315.043 121.629 335.703 132.841 352.857 148.421C370.012 164.002 383.153 183.492 391.167 205.236L376.153 210.766Z" fill="black"/>
<path d="M256 399.001C225.55 399.079 195.871 389.43 171.289 371.46L180.711 358.528C205.34 376.434 235.544 384.974 265.902 382.617C296.261 380.26 324.785 367.159 346.354 345.666L357.647 357.001C344.312 370.361 328.466 380.95 311.02 388.158C293.575 395.366 274.876 399.051 256 399.001V399.001Z" fill="black"/>
<path d="M492.137 65.278C486.115 38.897 473.287 22.691 456.017 19.646C439.145 16.666 421.693 27.523 406.868 50.202C394.528 69.081 384.868 94.534 380.375 120.036C376.18 143.827 378.531 165.009 387.175 181.293C390.634 187.913 395.362 193.787 401.09 198.581L340.642 456.7C339.774 460.408 339.671 464.253 340.339 468.002C341.008 471.75 342.434 475.323 344.531 478.502C346.628 481.68 349.351 484.398 352.534 486.488C355.716 488.579 359.292 489.998 363.042 490.659L384.429 494.431C388.179 495.092 392.024 494.982 395.73 494.106C399.436 493.23 402.924 491.608 405.982 489.338C409.039 487.068 411.601 484.199 413.512 480.905C415.422 477.611 416.641 473.962 417.093 470.181L448.724 205.7C454.861 203.154 460.512 199.564 465.424 195.089C479.114 182.742 488.567 163.642 492.762 139.851C497.3 114.093 497.076 86.911 492.137 65.278ZM401.206 468.278C401.012 469.899 400.49 471.463 399.671 472.875C398.853 474.286 397.754 475.516 396.444 476.489C395.133 477.462 393.638 478.158 392.05 478.533C390.461 478.908 388.813 478.956 387.206 478.672L365.82 474.9C364.213 474.617 362.681 474.008 361.317 473.113C359.953 472.217 358.786 471.052 357.888 469.69C356.989 468.328 356.378 466.797 356.091 465.191C355.804 463.585 355.848 461.937 356.22 460.348L415.581 206.86C420.337 208.547 425.346 209.406 430.392 209.402C430.985 209.402 431.579 209.39 432.172 209.367L401.206 468.278ZM477.006 137.078C472.496 162.655 462.392 176.283 454.706 183.212C445.906 191.143 435.25 194.702 425.454 192.975C415.658 191.248 406.854 184.257 401.305 173.795C396.455 164.657 391.621 148.395 396.131 122.817C400.205 99.717 409.225 75.841 420.26 58.96C425.105 51.546 437.311 35.17 450.525 35.17C451.434 35.1694 452.342 35.2484 453.237 35.406C477.068 39.6 484.889 92.358 477 137.075L477.006 137.078Z" fill="black"/>
<path d="M186.591 456.646L127.491 204.265C136.203 201.43 143.597 195.544 148.314 187.69C153.031 179.837 154.754 170.544 153.164 161.521L145.871 120.16L126.42 9.86133L110.663 12.6403L128.723 115.06L112.965 117.838L94.9061 15.4183L79.1491 18.2003L97.2081 120.62L81.4521 123.4L63.3921 20.9753L47.6351 23.7533L65.6951 126.173L49.9381 128.951L31.8781 26.5313L16.1221 29.3103L35.5701 139.61L42.8631 180.972C44.3958 189.601 48.8593 197.437 55.4999 203.156C62.1404 208.876 70.5512 212.129 79.3121 212.365L110.141 470.129C110.955 476.937 114.238 483.21 119.37 487.758C124.501 492.305 131.124 494.811 137.98 494.8C139.598 494.801 141.212 494.66 142.805 494.379L164.191 490.608C167.941 489.947 171.517 488.528 174.7 486.438C177.883 484.347 180.606 481.629 182.702 478.451C184.799 475.272 186.225 471.699 186.894 467.95C187.562 464.202 187.459 460.356 186.591 456.648V456.646ZM58.6201 178.192L52.7201 144.708L131.5 130.816L137.4 164.3C138.406 170.046 137.093 175.955 133.747 180.733C130.402 185.511 125.298 188.767 119.555 189.786L84.1011 196.037C78.3566 197.042 72.448 195.728 67.6712 192.383C62.8944 189.038 59.6394 183.934 58.6201 178.192V178.192ZM169.346 469.639C168.452 471.006 167.287 472.174 165.922 473.07C164.557 473.967 163.022 474.572 161.413 474.849L140.026 478.62C138.419 478.904 136.771 478.857 135.182 478.481C133.594 478.106 132.099 477.411 130.788 476.438C129.478 475.465 128.38 474.235 127.561 472.824C126.742 471.412 126.22 469.848 126.026 468.227L95.1821 210.327L111.79 207.398L171.013 460.3C171.391 461.888 171.438 463.537 171.151 465.143C170.864 466.75 170.25 468.28 169.346 469.639V469.639Z" fill="black"/>
<path d="M256 336.001C253.913 336.003 251.908 335.187 250.415 333.729L182.491 267.501C177.956 263.105 174.332 257.858 171.828 252.06C169.324 246.262 167.989 240.026 167.899 233.711C167.81 227.396 168.967 221.125 171.306 215.258C173.644 209.391 177.118 204.043 181.527 199.521C185.936 194.999 191.194 191.391 197 188.905C202.806 186.419 209.046 185.103 215.361 185.033C221.677 184.963 227.944 186.14 233.804 188.496C239.664 190.853 245.001 194.343 249.509 198.766L256 205.101L262.491 198.772C266.989 194.298 272.329 190.76 278.202 188.363C284.075 185.965 290.365 184.756 296.709 184.804C303.052 184.853 309.323 186.158 315.159 188.645C320.995 191.131 326.28 194.75 330.709 199.292C335.137 203.834 338.622 209.208 340.961 215.105C343.3 221.002 344.446 227.304 344.335 233.646C344.223 239.989 342.856 246.247 340.311 252.058C337.766 257.868 334.095 263.117 329.509 267.501L317.585 279.127L306.415 267.672L318.339 256.045C321.376 253.117 323.803 249.619 325.482 245.75C327.162 241.882 328.06 237.719 328.125 233.502C328.19 229.285 327.421 225.097 325.862 221.179C324.303 217.26 321.985 213.688 319.041 210.668C316.097 207.649 312.585 205.241 308.707 203.583C304.829 201.926 300.661 201.051 296.444 201.009C292.227 200.968 288.043 201.76 284.133 203.341C280.223 204.922 276.664 207.261 273.661 210.222L261.585 222.001C260.091 223.457 258.087 224.273 256 224.273C253.914 224.273 251.909 223.457 250.415 222.001L238.339 210.227C235.336 207.266 231.778 204.927 227.868 203.346C223.958 201.765 219.774 200.973 215.557 201.014C211.34 201.056 207.172 201.931 203.294 203.588C199.416 205.246 195.904 207.654 192.96 210.673C190.016 213.693 187.698 217.265 186.139 221.184C184.579 225.102 183.81 229.29 183.876 233.507C183.941 237.724 184.839 241.887 186.518 245.755C188.198 249.624 190.625 253.122 193.661 256.05L256 316.828L291.44 282.273L302.61 293.729L261.585 333.729C260.092 335.187 258.088 336.003 256 336.001V336.001Z" fill="black"/>
</svg>
