<svg width="21" height="17" viewBox="0 0 21 17" fill="none" xmlns="http://www.w3.org/2000/svg">
<path d="M20.5617 1.96745C19.7983 2.30514 18.9887 2.52692 18.1597 2.62545C19.0335 2.10288 19.6874 1.28046 19.9997 0.31145C19.1797 0.79945 18.2807 1.14145 17.3437 1.32645C16.7143 0.653029 15.8801 0.206413 14.9707 0.0560348C14.0613 -0.0943437 13.1277 0.0599411 12.315 0.494903C11.5023 0.929865 10.8561 1.62113 10.4768 2.46124C10.0976 3.30135 10.0065 4.24323 10.2177 5.14045C8.55482 5.0571 6.92804 4.62497 5.443 3.87211C3.95795 3.11925 2.64784 2.0625 1.59771 0.77045C1.226 1.4089 1.03067 2.13468 1.03171 2.87345C1.03171 4.32345 1.76971 5.60445 2.89171 6.35445C2.22772 6.33355 1.57834 6.15423 0.997711 5.83145V5.88345C0.997911 6.84915 1.33208 7.78507 1.94356 8.53251C2.55504 9.27995 3.40619 9.79293 4.35271 9.98445C3.73633 10.1515 3.09002 10.1761 2.46271 10.0564C2.72958 10.8877 3.24972 11.6146 3.9503 12.1356C4.65089 12.6565 5.49684 12.9452 6.36971 12.9614C5.50219 13.6428 4.50889 14.1464 3.44659 14.4436C2.38429 14.7408 1.27384 14.8257 0.178711 14.6934C2.09041 15.9229 4.31581 16.5756 6.58871 16.5734C14.2817 16.5734 18.4887 10.2005 18.4887 4.67345C18.4887 4.49345 18.4837 4.31145 18.4757 4.13345C19.2946 3.54162 20.0013 2.80847 20.5627 1.96845L20.5617 1.96745Z" fill="#F3B95A"/>
</svg>
