<svg width="18" height="18" viewBox="0 0 18 18" fill="none" xmlns="http://www.w3.org/2000/svg">
<path d="M10.5816 8.99979C10.5816 9.87336 9.87336 10.5816 8.99979 10.5816C8.12622 10.5816 7.41797 9.87336 7.41797 8.99979C7.41797 8.12622 8.12622 7.41797 8.99979 7.41797C9.87336 7.41797 10.5816 8.12622 10.5816 8.99979Z" fill="#F3B95A"/>
<path d="M11.6522 4.25439H6.34847C5.194 4.25439 4.25488 5.19351 4.25488 6.34798V11.6517C4.25488 12.8062 5.194 13.7453 6.34847 13.7453H11.6522C12.8067 13.7453 13.7458 12.8062 13.7458 11.6517V6.34798C13.7458 5.19351 12.8067 4.25439 11.6522 4.25439ZM9.00034 11.6168C7.55732 11.6168 6.38336 10.4429 6.38336 8.99985C6.38336 7.55683 7.55732 6.38287 9.00034 6.38287C10.4434 6.38287 11.6173 7.55683 11.6173 8.99985C11.6173 10.4429 10.4434 11.6168 9.00034 11.6168ZM12.0011 6.52244C11.712 6.52244 11.4777 6.28814 11.4777 5.99905C11.4777 5.70995 11.712 5.47565 12.0011 5.47565C12.2902 5.47565 12.5245 5.70995 12.5245 5.99905C12.5245 6.28814 12.2902 6.52244 12.0011 6.52244Z" fill="#F3B95A"/>
<path d="M13.2539 0H4.74609C2.12915 0 0 2.12915 0 4.74609V13.2539C0 15.8708 2.12915 18 4.74609 18H13.2539C15.8708 18 18 15.8708 18 13.2539V4.74609C18 2.12915 15.8708 0 13.2539 0ZM14.8359 11.6719C14.8359 13.4165 13.4165 14.8359 11.6719 14.8359H6.32812C4.5835 14.8359 3.16406 13.4165 3.16406 11.6719V6.32812C3.16406 4.5835 4.5835 3.16406 6.32812 3.16406H11.6719C13.4165 3.16406 14.8359 4.5835 14.8359 6.32812V11.6719Z" fill="#F3B95A"/>
</svg>
