<svg width="19" height="18" viewBox="0 0 19 18" fill="none" xmlns="http://www.w3.org/2000/svg">
<path d="M12.8024 18V11.034H15.1354L15.4844 8.326H12.8024V6.598C12.8024 5.814 13.0204 5.279 14.1444 5.279H15.5784V2.857C14.8842 2.78334 14.1865 2.74762 13.4884 2.75C11.4214 2.75 10.0064 4.012 10.0064 6.33V8.326H7.66839V11.034H10.0064V18H1.40039C1.13517 18 0.88082 17.8946 0.693284 17.7071C0.505747 17.5196 0.400391 17.2652 0.400391 17V1C0.400391 0.734784 0.505747 0.48043 0.693284 0.292893C0.88082 0.105357 1.13517 0 1.40039 0H17.4004C17.6656 0 17.92 0.105357 18.1075 0.292893C18.295 0.48043 18.4004 0.734784 18.4004 1V17C18.4004 17.2652 18.295 17.5196 18.1075 17.7071C17.92 17.8946 17.6656 18 17.4004 18H12.8024Z" fill="#F3B95A"/>
</svg>
