<svg width="512" height="512" viewBox="0 0 512 512" fill="none" xmlns="http://www.w3.org/2000/svg">
<path d="M375.716 136.378C351.802 57.561 278.521 0 192 0C86.135 0 0 86.135 0 192C0 276.669 55.78 351.229 136.285 375.625C160.199 454.443 233.479 512 320 512C425.865 512 512 425.865 512 320C512 235.367 456.207 160.755 375.716 136.378ZM21.333 192C21.333 97.896 97.896 21.333 192 21.333C286.104 21.333 362.667 97.896 362.667 192C362.667 283.63 290.024 358.415 199.331 362.296C196.946 355.512 195.13 348.486 193.912 341.237C275.368 340.198 341.334 273.698 341.334 192C341.334 109.656 274.344 42.667 192.001 42.667C109.658 42.667 42.667 109.656 42.667 192C42.667 250.143 76.184 302.079 128.341 326.728C128.633 335.051 129.454 343.225 130.776 351.25C65.573 326.198 21.333 263.092 21.333 192ZM383.145 208.868C422.902 231.435 448 273.445 448 320C448 390.583 390.583 448 320 448C272.387 448 230.848 421.819 208.799 383.148C301.243 375.081 375.044 301.303 383.145 208.868ZM192 320C192 249.417 249.417 192 320 192C320 262.583 262.583 320 192 320ZM128.854 303.138C89.081 280.582 64 238.594 64 192C64 121.417 121.417 64 192 64C239.613 64 281.152 90.181 303.201 128.852C210.754 136.919 136.951 210.701 128.854 303.138ZM320 490.667C225.896 490.667 149.333 414.104 149.333 320C149.333 228.37 221.976 153.585 312.669 149.704C315.054 156.488 316.87 163.514 318.088 170.763C236.633 171.802 170.667 238.302 170.667 320C170.667 402.344 237.657 469.333 320 469.333C402.343 469.333 469.333 402.344 469.333 320C469.333 261.9 435.8 209.9 383.659 185.259C383.369 176.935 382.544 168.76 381.221 160.736C446.414 185.788 490.667 248.93 490.667 320C490.667 414.104 414.104 490.667 320 490.667Z" fill="black"/>
</svg>
