<svg width="47" height="38" viewBox="0 0 47 38" fill="none" xmlns="http://www.w3.org/2000/svg">
<path d="M23.4968 0.000250548C23.1448 0.00658384 22.7873 0.132576 22.4401 0.360097L0.659664 17.6327C0.10016 18.1908 -0.293165 19.3924 0.283523 20.1336C0.860205 20.8749 2.07306 20.9744 2.77322 20.3495L23.4968 3.92257L44.2205 20.3495C44.9206 20.9744 46.159 20.8943 46.7102 20.1336C47.1937 19.4662 47.0748 18.1891 46.334 17.6327L24.5536 0.360097C24.1955 0.107272 23.8489 -0.00607699 23.4968 0.000250548ZM9.7408 16.859L6.30179 19.5939V36.2727C6.30184 36.7308 6.48301 37.1701 6.80547 37.494C7.12793 37.818 7.56527 38 8.0213 38H18.9115C19.3675 38 19.8049 37.818 20.1273 37.494C20.4498 37.1701 20.631 36.7308 20.631 36.2727V29.3637C20.631 27.739 21.8794 26.4849 23.4968 26.4849C25.1143 26.4849 26.3627 27.739 26.3627 29.3637V36.2727C26.3627 36.7308 26.5439 37.1701 26.8664 37.494C27.1888 37.818 27.6262 38 28.0822 38H38.9724C39.4284 38 39.8658 37.818 40.1882 37.494C40.5107 37.1701 40.6918 36.7308 40.6919 36.2727V19.5939L37.2529 16.859V34.5455H29.8017V29.3637C29.8017 25.8849 26.96 23.0304 23.4968 23.0304C20.0337 23.0304 17.192 25.8849 17.192 29.3637V34.5455H9.7408V16.859Z" fill="white"/>
</svg>
