<svg width="24" height="24" viewBox="0 0 24 24" fill="none" xmlns="http://www.w3.org/2000/svg">
<path d="M21.9211 10.0163H13.9846V2.07986C13.9846 0.984622 13.0977 0.0957031 12.0005 0.0957031C10.9032 0.0957031 10.0163 0.984622 10.0163 2.07986V10.0163H2.07986C0.982622 10.0163 0.0957031 10.9052 0.0957031 12.0005C0.0957031 13.0957 0.982622 13.9846 2.07986 13.9846H10.0163V21.9211C10.0163 23.0163 10.9032 23.9052 12.0005 23.9052C13.0977 23.9052 13.9846 23.0163 13.9846 21.9211V13.9846H21.9211C23.0183 13.9846 23.9052 13.0957 23.9052 12.0005C23.9052 10.9052 23.0183 10.0163 21.9211 10.0163Z" fill="white"/>
</svg>
