<svg width="56" height="95" viewBox="0 0 56 95" fill="none" xmlns="http://www.w3.org/2000/svg">
<path d="M1.52048 43.334L43.9393 1.50176C44.9204 0.533449 46.2301 0 47.6266 0C49.0231 0 50.3327 0.533449 51.3138 1.50176L54.4377 4.5817C56.4704 6.58863 56.4704 9.85047 54.4377 11.8543L18.8175 46.9825L54.4772 82.1497C55.4583 83.118 56 84.4088 56 85.7852C56 87.1632 55.4583 88.454 54.4772 89.4231L51.3534 92.5022C50.3715 93.4706 49.0626 94.004 47.6661 94.004C46.2696 94.004 44.96 93.4706 43.9789 92.5022L1.52048 50.6318C0.537056 49.6605 -0.00308609 48.3635 1.14441e-05 46.9848C-0.00308609 45.6007 0.537056 44.3046 1.52048 43.334Z" fill="#F3B95A"/>
</svg>
