<svg width="17" height="21" viewBox="0 0 17 21" fill="none" xmlns="http://www.w3.org/2000/svg">
<path d="M8.5 0C6.24566 0 4.08365 0.884995 2.48959 2.4603C0.895533 4.0356 0 6.17216 0 8.39997C0 14.07 7.49063 20.4749 7.80938 20.7479C8.00183 20.9106 8.24675 21 8.5 21C8.75325 21 8.99817 20.9106 9.19062 20.7479C9.5625 20.4749 17 14.07 17 8.39997C17 6.17216 16.1045 4.0356 14.5104 2.4603C12.9163 0.884995 10.7543 0 8.5 0ZM8.5 18.5324C6.23688 16.4324 2.125 11.907 2.125 8.39997C2.125 6.72911 2.79665 5.12669 3.99219 3.94521C5.18774 2.76374 6.80925 2.09999 8.5 2.09999C10.1908 2.09999 11.8123 2.76374 13.0078 3.94521C14.2034 5.12669 14.875 6.72911 14.875 8.39997C14.875 11.907 10.7631 16.4429 8.5 18.5324ZM8.5 4.19999C7.65943 4.19999 6.83774 4.44631 6.13883 4.90781C5.43992 5.36931 4.89518 6.02526 4.57351 6.79271C4.25184 7.56015 4.16768 8.40463 4.33166 9.21935C4.49565 10.0341 4.90042 10.7824 5.4948 11.3698C6.08917 11.9572 6.84645 12.3572 7.67087 12.5193C8.49529 12.6813 9.34982 12.5981 10.1264 12.2803C10.903 11.9624 11.5667 11.424 12.0337 10.7334C12.5007 10.0427 12.75 9.23065 12.75 8.39997C12.75 7.28607 12.3022 6.21778 11.5052 5.43013C10.7082 4.64248 9.62717 4.19999 8.5 4.19999ZM8.5 10.5C8.07971 10.5 7.66887 10.3768 7.31941 10.1461C6.96996 9.9153 6.69759 9.58733 6.53676 9.20361C6.37592 8.81988 6.33384 8.39764 6.41583 7.99028C6.49782 7.58293 6.70021 7.20874 6.9974 6.91505C7.29459 6.62136 7.67322 6.42136 8.08543 6.34033C8.49764 6.2593 8.92491 6.30089 9.3132 6.45983C9.7015 6.61878 10.0334 6.88794 10.2669 7.23328C10.5004 7.57862 10.625 7.98463 10.625 8.39997C10.625 8.95693 10.4011 9.49107 10.0026 9.88489C9.60409 10.2787 9.06359 10.5 8.5 10.5Z" fill="#F3B95A"/>
</svg>
