<svg width="23" height="28" viewBox="0 0 23 28" fill="none" xmlns="http://www.w3.org/2000/svg">
<path d="M11.6895 0.413818C8.77207 0.413818 5.97418 1.57274 3.91128 3.63564C1.84838 5.69854 0.689453 8.49644 0.689453 11.4138C0.689453 18.8388 10.3832 27.2263 10.7957 27.5838C11.0448 27.7968 11.3617 27.9139 11.6895 27.9139C12.0172 27.9139 12.3341 27.7968 12.5832 27.5838C13.0645 27.2263 22.6895 18.8388 22.6895 11.4138C22.6895 8.49644 21.5305 5.69854 19.4676 3.63564C17.4047 1.57274 14.6068 0.413818 11.6895 0.413818ZM11.6895 24.6826C8.7607 21.9326 3.43945 16.0063 3.43945 11.4138C3.43945 9.22578 4.30865 7.12736 5.85582 5.58019C7.403 4.03301 9.50142 3.16382 11.6895 3.16382C13.8775 3.16382 15.9759 4.03301 17.5231 5.58019C19.0703 7.12736 19.9395 9.22578 19.9395 11.4138C19.9395 16.0063 14.6182 21.9463 11.6895 24.6826ZM11.6895 5.91382C10.6017 5.91382 9.53829 6.23639 8.63382 6.84074C7.72935 7.44508 7.0244 8.30407 6.60811 9.30906C6.19183 10.3141 6.08291 11.4199 6.29513 12.4868C6.50735 13.5537 7.03118 14.5337 7.80036 15.3029C8.56955 16.0721 9.54956 16.5959 10.6165 16.8081C11.6834 17.0204 12.7892 16.9114 13.7942 16.4952C14.7992 16.0789 15.6582 15.3739 16.2625 14.4695C16.8669 13.565 17.1895 12.5016 17.1895 11.4138C17.1895 9.95513 16.61 8.55618 15.5785 7.52473C14.5471 6.49328 13.1481 5.91382 11.6895 5.91382ZM11.6895 14.1638C11.1456 14.1638 10.6139 14.0025 10.1616 13.7004C9.7094 13.3982 9.35692 12.9687 9.14878 12.4662C8.94064 11.9637 8.88618 11.4108 8.99229 10.8773C9.0984 10.3439 9.36032 9.85387 9.74491 9.46928C10.1295 9.08468 10.6195 8.82277 11.153 8.71666C11.6864 8.61055 12.2393 8.66501 12.7418 8.87315C13.2443 9.08129 13.6738 9.43377 13.976 9.886C14.2782 10.3382 14.4395 10.8699 14.4395 11.4138C14.4395 12.1432 14.1497 12.8426 13.634 13.3584C13.1183 13.8741 12.4188 14.1638 11.6895 14.1638Z" fill="#F3B95A"/>
</svg>
