<svg width="132" height="133" viewBox="0 0 132 133" fill="none" xmlns="http://www.w3.org/2000/svg">
<path d="M112.15 74.8252L111.34 77.2607L116.607 79.0113C116.924 79.6435 117.019 80.1494 116.898 80.5131C116.688 81.1458 116.261 81.32 115.17 80.9573L110.615 79.4433L109.8 81.8947L115.067 83.6453C115.383 84.2774 115.484 84.7675 115.358 85.1471C115.153 85.7639 114.721 85.954 113.629 85.5912L109.075 84.0772L108.265 86.5128L113.136 88.132C115.097 88.7838 116.567 88.4295 117.135 86.7214C117.482 85.6776 117.123 84.7503 116.653 83.8389C117.623 83.7222 118.308 83.1946 118.67 82.1033C119.017 81.0595 118.711 80.1848 118.288 79.3419L118.309 79.2787L119.348 79.4306L120.01 77.4379L112.15 74.8252Z" fill="#FF8276"/>
<path d="M104.921 91.2843C104.389 92.0513 104.305 92.905 104.422 93.8179L104.384 93.8727L103.595 93.5486L102.398 95.2744L106.261 97.9521C108.398 99.4334 110.054 99.1213 111.269 97.3681C112.01 96.2998 112.342 95.0899 112.411 93.8198L110.528 93.6099C110.437 94.5606 110.249 95.2414 109.869 95.7893C109.385 96.4879 108.857 96.5476 108.257 96.2131C109.845 93.3386 109.833 91.6879 108.395 90.6909C107.258 89.9028 105.785 90.0378 104.921 91.2843ZM106.062 93.1496C106.384 92.6839 106.757 92.5566 107.154 92.832C107.633 93.1643 107.718 93.8316 106.956 95.311L105.874 94.5609C105.773 94.0043 105.767 93.5742 106.062 93.1496Z" fill="#FF8276"/>
<path d="M97.5208 100.057C96.9373 100.579 96.607 101.434 96.5617 102.258L96.5245 102.291L95.8542 101.818L94.2775 103.23L102.05 111.908L103.974 110.184L102.117 108.111L101.233 107.248C101.975 107.277 102.607 107.158 103.289 106.547C104.568 105.401 104.745 103.051 102.943 101.039C101.142 99.0283 99.0478 98.6888 97.5208 100.057ZM98.424 102.089C99.082 101.5 99.9241 101.64 100.98 102.82C102.015 103.974 101.975 104.905 101.429 105.394C101.119 105.672 100.67 105.895 100.138 105.901L97.9365 103.443C97.8773 102.803 98.0516 102.423 98.424 102.089Z" fill="#FF8276"/>
<path d="M87.9101 106.904C87.0474 107.375 86.2051 108.197 85.7406 109.154L87.2156 110.114C87.5674 109.542 88.0058 109.093 88.5322 108.805C89.4533 108.301 90.3725 108.349 91.1131 109.217L86.8289 111.56C86.897 111.789 87.061 112.193 87.285 112.603C88.3647 114.576 90.22 115.537 92.3256 114.386C94.0656 113.434 94.9699 111.059 93.6822 108.704C92.3546 106.277 89.9864 105.768 87.9101 106.904ZM91.9741 110.722C92.2918 111.65 91.9747 112.355 91.3313 112.707C90.5125 113.155 89.8949 112.79 89.503 112.073L91.9741 110.722Z" fill="#FF8276"/>
<path d="M75.4815 111.816L72.5173 112.152L72.2306 115.389C72.168 116.167 72.1514 116.907 72.1261 117.866L72.0599 117.874C71.8202 116.945 71.605 116.231 71.3695 115.487L70.3479 112.399L67.3009 112.745L66.298 121.195L68.666 120.926L68.9734 117.134C69.0322 116.322 69.0082 115.52 69.0557 114.609L69.1219 114.601C69.3725 115.478 69.6118 116.256 69.8842 117.031L71.1831 120.64L73.4518 120.383L73.8752 116.577C73.9689 115.778 74.0093 114.952 74.0568 114.041L74.123 114.033C74.3405 114.914 74.5301 115.698 74.7528 116.478L75.9193 120.103L78.4529 119.815L75.4815 111.816Z" fill="#FF8276"/>
<path d="M62.062 112.441L59.5129 112.142L58.5472 120.369L61.0963 120.668L62.062 112.441ZM59.6858 121.677C58.8416 121.578 58.1855 122.021 58.0903 122.832C57.997 123.627 58.5327 124.21 59.3768 124.309C60.221 124.408 60.8772 123.965 60.9704 123.17C61.0656 122.359 60.53 121.776 59.6858 121.677Z" fill="#FF8276"/>
<path d="M52.3763 110.337C51.5911 110.113 50.9364 110.099 50.4739 110.14L50.3634 111.98C50.5946 111.96 50.8762 112.006 51.1326 112.079C51.7254 112.249 52.0458 112.704 51.7891 113.602L50.9181 116.646L49.0434 116.11L48.4887 118.049L50.3634 118.585L49.6666 121.02L51.7176 121.607L52.7028 119.254L53.9436 119.522L54.4753 117.664L53.4017 117.357L54.2819 114.28C54.8182 112.405 54.3632 110.906 52.3763 110.337Z" fill="#FF8276"/>
<path d="M47.5728 108.928L45.305 107.726L42.7064 112.63C42.0314 112.8 41.5895 112.887 41.074 112.614C40.485 112.302 40.3838 111.852 40.9222 110.836L43.1696 106.595L40.887 105.385L38.4835 109.921C37.5159 111.747 37.5924 113.24 39.1829 114.083C40.1843 114.613 41.1565 114.487 41.9589 114.29L41.1613 115.546L39.8503 118.02L42.1182 119.222L47.5728 108.928Z" fill="#FF8276"/>
<path d="M33.4515 98.9705C33.1682 98.4797 32.8649 98.1545 32.6222 97.9674L31.1268 99.1772C31.2224 99.276 31.2557 99.3337 31.3057 99.4203C31.4057 99.5935 31.3947 99.9078 30.9328 100.174L23.081 104.708L24.3643 106.93L32.1295 102.447C33.6306 101.581 34.3348 100.5 33.4515 98.9705Z" fill="#FF8276"/>
<path d="M27.4207 91.6319C26.2588 89.8627 23.851 89.1111 21.5525 90.6207C19.2539 92.1303 19.0009 94.6293 20.1628 96.3985C21.3156 98.1538 23.7095 98.9145 26.008 97.4049C28.3066 95.8953 28.5735 93.3871 27.4207 91.6319ZM25.6794 92.7755C26.21 93.5835 25.7187 94.4445 24.5625 95.2039C23.4202 95.9541 22.4209 96.072 21.8902 95.264C21.3596 94.4561 21.8648 93.5859 23.0071 92.8357C24.1634 92.0763 25.1487 91.9675 25.6794 92.7755Z" fill="#FF8276"/>
<path d="M22.8554 83.3996L21.8291 80.5984L13.1342 80.944L13.9827 83.2601L17.9161 82.9017C18.7517 82.8086 19.64 82.7139 20.5283 82.6192L20.5512 82.6818C19.8063 83.1677 19.0671 83.6693 18.3691 84.138L15.1409 86.4212L16.0296 88.8468L22.8554 83.3996Z" fill="#FF8276"/>
<path d="M20.0684 71.6656C19.9411 70.6906 19.4804 69.6078 18.7568 68.8282L17.3277 69.8551C17.7337 70.3904 17.9932 70.9616 18.0708 71.5565C18.2067 72.5977 17.8288 73.437 16.7518 73.8129L16.1198 68.9707C15.882 68.9513 15.4458 68.9578 14.9831 69.0182C12.752 69.3094 11.1843 70.6906 11.4949 73.0703C11.7516 75.0369 13.6379 76.7404 16.2986 76.3932C19.0419 76.0351 20.3747 74.0123 20.0684 71.6656ZM15.0374 74.0702C14.0573 74.0301 13.5148 73.479 13.4199 72.7519C13.2991 71.8264 13.8631 71.383 14.6729 71.2773L15.0374 74.0702Z" fill="#FF8276"/>
<path d="M19.5552 59.6654L20.2409 57.1921L14.8927 55.7094C14.5445 55.094 14.4238 54.5936 14.5262 54.2242C14.7043 53.5817 15.1217 53.3862 16.2299 53.6934L20.8553 54.9757L21.5455 52.4863L16.1973 51.0036C15.8491 50.3882 15.7239 49.9039 15.8308 49.5184C16.0045 48.8921 16.4263 48.6804 17.5345 48.9877L22.1599 50.27L22.8456 47.7967L17.899 46.4253C15.9075 45.8732 14.4571 46.3012 13.9762 48.0358C13.6823 49.0957 14.0878 50.0037 14.603 50.8902C13.6405 51.0558 12.9833 51.6173 12.6761 52.7254C12.3822 53.7854 12.7323 54.6435 13.1967 55.464L13.1789 55.5282L12.1341 55.4288L11.5731 57.4525L19.5552 59.6654Z" fill="#FF8276"/>
<path d="M25.9443 42.8624C26.4367 42.0695 26.4784 41.2126 26.315 40.3068L26.3502 40.2501L27.1548 40.534L28.2627 38.75L24.27 36.2706C22.0613 34.899 20.423 35.2942 19.2976 37.1064C18.6118 38.2108 18.3415 39.4359 18.3363 40.7079L20.2269 40.8225C20.2701 39.8684 20.4236 39.179 20.7753 38.6127C21.2237 37.8906 21.7481 37.8043 22.3638 38.1081C20.9237 41.059 21.0185 42.707 22.5052 43.6302C23.6803 44.36 25.1442 44.1508 25.9443 42.8624ZM24.7113 41.0569C24.4124 41.5383 24.0471 41.6842 23.6365 41.4292C23.141 41.1215 23.0225 40.4594 23.7088 38.9434L24.8274 39.638C24.9561 40.1888 24.9839 40.618 24.7113 41.0569Z" fill="#FF8276"/>
<path d="M32.893 33.7276C33.4493 33.1762 33.7361 32.3054 33.7398 31.4805L33.7753 31.4453L34.4687 31.8845L35.972 30.3945L27.7715 22.12L25.9367 23.9384L27.8959 25.9153L28.8232 26.7326C28.0807 26.7411 27.4555 26.8915 26.8044 27.5367C25.5851 28.7451 25.5274 31.1019 27.4279 33.0196C29.3285 34.9373 31.4369 35.1706 32.893 33.7276ZM31.8884 31.7432C31.261 32.365 30.4129 32.2669 29.2984 31.1424C28.2073 30.0415 28.1997 29.1104 28.7206 28.5942C29.0165 28.3009 29.4537 28.0554 29.9841 28.0224L32.307 30.3663C32.3985 31.0031 32.2435 31.3913 31.8884 31.7432Z" fill="#FF8276"/>
<path d="M42.1461 26.4043C42.9839 25.8895 43.7837 25.0264 44.1992 24.0473L42.6778 23.1629C42.3553 23.7523 41.9401 24.2226 41.4289 24.5367C40.5343 25.0864 39.6139 25.0847 38.8305 24.2555L42.991 21.699C42.9115 21.474 42.7272 21.0786 42.4829 20.6811C41.305 18.7641 39.4036 17.8981 37.3588 19.1545C35.669 20.1928 34.8857 22.6107 36.2904 24.8969C37.7388 27.2541 40.1297 27.6433 42.1461 26.4043ZM37.8947 22.7962C37.5306 21.8853 37.8117 21.1649 38.4365 20.781C39.2317 20.2924 39.8669 20.6258 40.2944 21.3216L37.8947 22.7962Z" fill="#FF8276"/>
<path d="M54.3107 20.8716L57.2541 20.386L57.3772 17.1393C57.4004 16.3585 57.3796 15.6187 57.3565 14.6597L57.4223 14.6488C57.7085 15.5644 57.9595 16.2663 58.2323 16.9983L59.4083 20.0305L62.434 19.5313L63.0094 11.0412L60.6579 11.4292L60.5422 15.232C60.5244 16.0457 60.5889 16.8459 60.5874 17.7583L60.5216 17.7691C60.2271 16.9056 59.9489 16.1407 59.6377 15.3812L58.1584 11.8416L55.9056 12.2133L55.6747 16.0351C55.6214 16.8379 55.6228 17.6653 55.6213 18.5777L55.5555 18.5886C55.2939 17.7196 55.065 16.9466 54.8032 16.179L53.4554 12.6176L50.9395 13.0327L54.3107 20.8716Z" fill="#FF8276"/>
<path d="M67.6825 19.5707L70.2434 19.7409L70.7929 11.476L68.232 11.3058L67.6825 19.5707ZM69.5898 10.2268C70.438 10.2832 71.0709 9.80748 71.1251 8.99263C71.1781 8.19441 70.6137 7.63909 69.7656 7.58271C68.9175 7.52632 68.2846 8.00203 68.2315 8.80026C68.1773 9.61511 68.7417 10.1704 69.5898 10.2268Z" fill="#FF8276"/>
<path d="M77.4614 21.1832C78.2569 21.368 78.9115 21.3489 79.3713 21.2846L79.3888 19.4408C79.1589 19.473 78.8754 19.4413 78.6156 19.381C78.015 19.2415 77.672 18.8026 77.8832 17.8935L78.5995 14.8089L80.4989 15.25L80.9551 13.2857L79.0556 12.8446L79.6287 10.377L77.5507 9.89441L76.6854 12.2942L75.4328 12.0888L74.9955 13.972L76.0832 14.2246L75.3593 17.3416C74.9182 19.241 75.4483 20.7158 77.4614 21.1832Z" fill="#FF8276"/>
<path d="M82.3307 22.3487L84.6563 23.4345L87.0042 18.4058C87.6697 18.2015 88.1067 18.0928 88.6353 18.3396C89.2393 18.6216 89.3631 19.0657 88.8766 20.1077L86.846 24.4569L89.1867 25.5497L91.3583 20.8985C92.2326 19.0259 92.0809 17.5388 90.4499 16.7773C89.423 16.2979 88.4584 16.4729 87.667 16.7103L88.4002 15.4157L89.5847 12.8786L87.2591 11.7928L82.3307 22.3487Z" fill="#FF8276"/>
<path d="M98.1915 32.7273C98.607 33.1126 98.9927 33.3338 99.2798 33.4409L100.352 31.8437C100.231 31.7775 100.182 31.7322 100.109 31.6642C99.9623 31.5282 99.8801 31.2247 100.243 30.8336L106.407 24.1851L104.525 22.4401L98.4286 29.0152C97.2501 30.2863 96.896 31.5262 98.1915 32.7273Z" fill="#FF8276"/>
<path d="M103.329 38.6054C104.579 40.3137 107.022 40.9429 109.241 39.3193C111.461 37.6957 111.587 35.1871 110.338 33.4788C109.098 31.7839 106.669 31.1449 104.449 32.7685C102.23 34.3921 102.089 36.9105 103.329 38.6054ZM105.011 37.3754C104.44 36.5952 104.887 35.7105 106.004 34.8938C107.107 34.0869 108.099 33.9187 108.67 34.6989C109.24 35.4791 108.78 36.3736 107.677 37.1805C106.56 37.9972 105.581 38.1556 105.011 37.3754Z" fill="#FF8276"/>
<path d="M108.304 46.5973L109.471 49.3431L118.137 48.5593L117.173 46.289L113.262 46.8453C112.433 46.9805 111.55 47.1199 110.668 47.2593L110.642 47.1979C111.361 46.675 112.074 46.1368 112.748 45.6335L115.857 43.1903L114.847 40.8127L108.304 46.5973Z" fill="#FF8276"/>
<path d="M111.68 58.1762C111.856 59.1436 112.371 60.2018 113.133 60.9438L114.508 59.8461C114.076 59.332 113.788 58.7746 113.68 58.1843C113.492 57.1514 113.827 56.2941 114.884 55.8644L115.759 60.6685C115.998 60.6759 116.433 60.6474 116.892 60.5637C119.106 60.1603 120.602 58.7019 120.171 56.3408C119.816 54.3896 117.846 52.7835 115.206 53.2645C112.485 53.7605 111.256 55.8479 111.68 58.1762ZM116.583 55.5209C117.564 55.5115 118.134 56.0345 118.265 56.756C118.432 57.6742 117.891 58.1454 117.088 58.2918L116.583 55.5209Z" fill="#FF8276"/>
</svg>
