<svg width="512" height="512" viewBox="0 0 512 512" fill="none" xmlns="http://www.w3.org/2000/svg">
<g clip-path="url(#clip0)">
<path d="M507.603 371.059C507.602 371.058 507.6 371.056 507.599 371.055C493.013 356.47 476.514 344.664 458.37 335.759C492.469 298.302 505.8 253.297 505.8 246.108C505.8 239.047 500.916 233.126 494.344 231.531C469.967 225.045 444.446 223.117 419.389 225.754C420.313 221.079 421.103 216.365 421.73 211.608C425.536 182.699 423.64 153.762 416.096 125.599C413.863 117.265 405.397 112.935 397.718 114.992C369.461 122.56 342.929 135.772 319.833 153.601C304.485 111.179 280.773 83.9779 266.61 69.8139C263.797 67.0009 259.973 65.4199 255.995 65.4199C252.017 65.4199 248.202 67.0009 245.389 69.8139C231.271 83.9319 207.529 111.136 192.166 153.6C169.07 135.771 142.538 122.559 114.281 114.991C106.277 112.849 98.056 117.595 95.911 125.596C90.665 145.167 83.77 181.019 92.609 225.753C67.569 223.118 42.066 225.041 17.704 231.517C11.104 233.093 6.197 239.034 6.197 246.116C6.197 251.569 17.918 296.529 53.628 335.758C35.482 344.663 18.983 356.469 4.397 371.055C1.581 373.868 0 377.691 0 381.669C0 385.647 1.581 389.462 4.394 392.275C39.413 427.294 85.973 446.58 135.497 446.58C180.175 446.58 222.441 430.881 255.997 402.097C289.553 430.881 331.818 446.58 376.497 446.58C425.876 446.58 472.31 427.406 507.293 392.581C510.191 389.846 512.001 385.968 512.001 381.668C512 377.525 510.319 373.773 507.603 371.059V371.059ZM410.692 257.227C430.796 253.718 451.482 253.723 471.587 257.22C457.416 296.157 430.287 328.567 393.975 349.529C369.439 363.697 342.48 371.618 314.978 373.044C359.006 347.024 382.662 312.903 394.021 293.229C400.641 281.763 406.23 269.688 410.692 257.227V257.227ZM40.408 257.219C60.512 253.723 81.198 253.717 101.3 257.226C105.761 269.687 111.352 281.764 117.971 293.226C129.327 312.895 152.985 347.024 197.014 373.042C169.514 371.615 142.55 363.693 118.015 349.526C81.712 328.571 54.585 296.161 40.408 257.219V257.219ZM135.496 416.581C99.288 416.581 64.973 404.284 37.316 381.662C49.427 371.748 62.826 363.825 77.349 357.993C85.455 364.467 94.058 370.339 103.015 375.509C120.561 385.641 153.679 401.443 199.049 403.084C179.319 411.929 157.767 416.581 135.496 416.581V416.581ZM143.952 278.227C133.293 259.767 109.906 211.844 121.447 148.637C144.127 156.767 165.175 169.169 183.28 185.104C180.175 200.209 178.605 215.623 178.605 231.045C178.605 254.969 182.313 298.75 209.37 345.462C173.037 323.108 153.452 294.681 143.952 278.227ZM255.996 359.601C212.498 308.713 208.605 253.271 208.605 231.045C208.605 208.796 212.505 153.366 255.996 102.488C299.487 153.367 303.387 208.793 303.387 231.045C303.387 253.291 299.486 308.724 255.996 359.601V359.601ZM333.387 231.044C333.387 215.622 331.817 200.209 328.712 185.103C346.82 169.166 367.869 156.764 390.551 148.634C402.085 211.843 378.7 259.765 368.041 278.226C358.51 294.733 338.919 323.13 302.622 345.46C329.668 298.769 333.387 254.982 333.387 231.044V231.044ZM376.496 416.581C354.226 416.581 332.673 411.93 312.943 403.083C358.387 401.439 391.531 385.583 408.974 375.51C417.933 370.339 426.536 364.467 434.642 357.992C449.165 363.825 462.564 371.748 474.676 381.661C447.02 404.283 412.704 416.581 376.496 416.581V416.581Z" fill="black"/>
</g>
<defs>
<clipPath id="clip0">
<rect width="512" height="512" fill="white"/>
</clipPath>
</defs>
</svg>
