<svg width="512" height="512" viewBox="0 0 512 512" fill="none" xmlns="http://www.w3.org/2000/svg">
<path d="M415.706 107.28C409.243 100.938 400.792 97.5472 391.896 97.7063C385.333 97.8313 379.215 99.8822 374.081 103.31V57.6475C374.081 39.2033 358.57 23.2503 339.971 23.6234C333.274 23.7495 327.036 25.8854 321.839 29.44C319.546 12.8487 304.91 -0.32118 288.045 0.00596516C271.316 0.323106 257.47 13.1618 255.47 29.394C250.285 25.8664 244.075 23.7495 237.406 23.6234C218.807 23.2673 203.296 39.1923 203.296 57.6475L203.293 287.604C203.291 297.21 189.714 299.568 186.451 290.544C182.924 280.796 178.182 267.691 177.696 266.321L150.971 193.955C144.835 176.596 125.724 167.437 108.333 173.536C91.2645 179.523 81.8293 198.769 87.7759 215.997L122.087 330.564C124.821 339.694 139.251 335.569 136.463 326.258L124.229 285.411L163.55 271.33L163.586 271.426C163.946 272.444 166.646 279.915 172.339 295.65C181.104 319.877 218.296 313.399 218.3 287.608L218.301 224.6H255.222V230.998C255.222 240.7 270.229 240.7 270.229 230.998V124.033H307.148V230.998C307.148 240.7 322.155 240.7 322.155 230.998V224.6H359.073V258.657C359.073 268.358 374.08 268.358 374.08 258.657V213.221H410.999V241.159C410.999 250.86 426.006 250.86 426.006 241.159V131.73C426.008 122.616 422.253 113.703 415.706 107.28V107.28ZM102.777 197.111C104.912 192.671 108.649 189.328 113.302 187.695C122.908 184.326 133.465 189.393 136.836 198.989C136.85 199.027 136.862 199.064 136.877 199.101L144.453 219.617L108.394 232.529L102.106 211.533C100.702 206.805 100.585 201.671 102.777 197.111V197.111ZM119.919 271.014L112.705 246.926L149.651 233.697L158.351 257.252L119.919 271.014ZM392.18 112.711C402.509 112.513 411 121.556 411 131.731V158.102H374.081V131.147C374.081 121.171 382.2 112.9 392.18 112.711ZM359.074 128.73H322.156V103.623H359.074V128.73ZM322.156 143.737H359.074V182.686H322.156V143.737ZM340.255 38.6271C350.584 38.45 359.075 47.458 359.075 57.6475V88.6173H322.157V57.0633C322.156 47.0868 330.274 38.8162 340.255 38.6271ZM270.23 33.4458C270.23 23.4694 278.349 15.1997 288.33 15.0096C298.659 14.8365 307.15 23.8375 307.15 34.03V68.9135H270.23V33.4458ZM218.304 103.624H255.223V128.731H218.304V103.624ZM224.109 43.9074C227.673 40.4109 232.293 38.5431 237.124 38.6271C247.105 38.8162 255.223 47.0868 255.223 57.0633V88.6173H218.304V57.6475C218.304 52.5353 220.42 47.527 224.109 43.9074V43.9074ZM255.152 209.593H218.302V197.693H255.152V209.593ZM218.303 182.687V143.738H255.222V182.687H218.303ZM270.23 109.026V83.9202H307.149V109.026H270.23ZM322.156 209.593V197.693H359.074V209.593H322.156ZM374.081 198.215V173.108H411V198.215H374.081Z" fill="black"/>
<path d="M418.505 270.62C414.36 270.62 411.002 273.979 411.002 278.123V369.865C411.002 394.826 399.783 418.541 378.519 438.618C370.025 437.8 362.06 436.293 354.643 434.105C358.461 429.317 361.704 424.169 364.335 418.739L372.54 422.767C380.932 426.89 387.839 413.56 379.152 409.296L369.623 404.619C370.897 399.939 371.76 395.12 372.196 390.205H383.389C393.091 390.205 393.091 375.198 383.389 375.198H372.146C371.484 368.625 369.983 362.2 367.838 355.971L378.498 351.055C387.308 346.994 381.027 333.369 372.217 337.427L361.934 342.168C358.495 335.426 354.41 328.988 349.966 322.925L359.747 314.594C367.133 308.304 357.402 296.878 350.016 303.17L340.585 311.204C335.153 304.946 329.513 299.232 324.086 294.167L333.146 283.882C339.559 276.602 328.298 266.683 321.885 273.962L312.822 284.251C305.582 278.232 299.472 273.796 295.853 271.28V258.184C295.853 248.483 280.846 248.483 280.846 258.184V271.186C277.435 273.474 271.872 277.396 265.277 282.757L257.53 273.961C251.118 266.681 239.856 276.601 246.269 283.881L253.949 292.599C248.294 297.837 242.313 304.016 237.336 309.93L229.399 303.17C222.013 296.878 212.283 308.303 219.668 314.594L228.16 321.827C223.562 328.407 219.687 335.06 216.559 341.743L207.198 337.428C198.388 333.365 192.107 346.995 200.917 351.056L211.108 355.755C209.094 362.249 207.793 368.744 207.221 375.199H196.025C186.324 375.199 186.324 390.206 196.025 390.206H207.219C207.656 395.119 208.52 399.937 209.795 404.618L200.262 409.297C191.717 413.491 198.394 426.934 206.874 422.768L215.085 418.737C217.581 423.887 220.625 428.784 224.189 433.361C213.829 436.945 204.992 438.135 200.405 438.528C169.658 423.175 154.725 389.356 147.594 363.426C145.022 354.071 130.551 358.051 133.125 367.406C144.082 407.254 163.987 435.837 190.874 450.479C191.09 450.793 191.329 451.089 191.589 451.365V504.723C191.589 514.425 206.596 514.425 206.596 504.723V452.943C213.443 452.014 223.365 449.991 234.351 445.581V468.099C234.351 477.801 249.358 477.801 249.358 468.099V438.208C259.865 432.016 271.03 423.067 280.678 410.171V445.717C280.678 455.419 295.685 455.419 295.685 445.717V411.741C296.847 413.263 298.094 414.804 299.429 416.349C306.232 424.226 316.137 433.103 330.058 440.294V468.099C330.058 477.801 345.065 477.801 345.065 468.099V446.724C353.506 449.663 363.057 451.941 373.838 453.21V504.723C373.838 514.425 388.845 514.425 388.845 504.723V449.509C413.173 426.536 426.007 399.063 426.007 369.866V278.123C426.008 273.979 422.649 270.62 418.505 270.62V270.62ZM256.518 311.085C269.152 298.007 281.953 288.616 288.25 284.308C319.735 306.187 390.174 370.014 340.245 427.888C335.575 426.1 331.882 424.43 327.555 421.485C372.143 374.939 309.374 319.562 292.778 307.724C290.163 305.813 286.62 305.795 283.986 307.677C268.412 317.945 209.406 373.246 250.194 419.744C246.528 422.467 242.628 424.929 238.498 427.129C205.332 388.799 227.599 339.523 256.518 311.085ZM295.465 379.815C293.857 373.321 284.024 371.616 281.187 378.901C276.251 390.91 269.653 401.232 261.448 409.81C233.178 378.738 270.263 337.436 288.338 323.325C292.703 326.917 299.711 333.063 306.634 340.735C325.023 360.568 339.219 388.908 316.192 411.604C316.192 411.604 302.894 396.726 295.465 379.815V379.815Z" fill="black"/>
<path d="M241.855 490.1C232.198 490.1 232.182 505.106 241.855 505.106C251.511 505.106 251.527 490.1 241.855 490.1Z" fill="black"/>
<path d="M337.561 490.1C327.904 490.1 327.888 505.106 337.561 505.106C347.217 505.106 347.233 490.1 337.561 490.1Z" fill="black"/>
<path d="M289.707 465.682C280.051 465.682 280.035 480.688 289.707 480.688C299.363 480.688 299.379 465.682 289.707 465.682Z" fill="black"/>
<path d="M288.18 347.67C278.524 347.67 278.508 362.677 288.18 362.677C297.836 362.677 297.852 347.67 288.18 347.67Z" fill="black"/>
<path d="M288.35 140.807C278.693 140.807 278.677 155.813 288.35 155.813C298.006 155.813 298.022 140.807 288.35 140.807Z" fill="black"/>
<path d="M288.35 187.69C298.006 187.69 298.022 172.684 288.35 172.684C278.693 172.684 278.677 187.69 288.35 187.69Z" fill="black"/>
<path d="M288.35 219.567C298.006 219.567 298.022 204.561 288.35 204.561C278.693 204.561 278.677 219.567 288.35 219.567Z" fill="black"/>
</svg>
