<svg width="204" height="48" viewBox="0 0 204 48" fill="none" xmlns="http://www.w3.org/2000/svg">
<path d="M22.752 43.592C23.008 43.592 23.296 43.528 23.616 43.368C24.768 42.888 26.432 40.808 28.192 37.704C29.76 34.92 30.848 32.392 34.912 22.536C38.016 14.856 39.136 12.424 41.248 8.712C42.656 6.248 42.944 5.832 43.552 5.256C44.128 4.744 44.224 4.584 44.256 4.232C44.224 3.752 44 3.208 43.68 3.144C43.392 3.144 42.24 4.776 41.472 6.312C40.576 7.912 38.304 12.616 37.216 15.08C36.352 16.936 35.84 18.056 32.352 26.632C29.312 33.992 28.416 35.976 27.04 38.184C26.016 39.912 24 42.76 22.848 42.76C22.176 42.76 21.856 41.64 21.856 39.496C21.952 34.024 22.528 29.64 24.704 19.4C26.176 12.424 26.816 8.744 26.816 6.76C26.816 5.064 26.272 4.456 25.536 4.456C24.64 4.456 23.392 5.544 21.824 7.624C19.68 10.568 17.504 14.12 11.872 24.2C8.544 30.184 2.752 40.424 1.472 40.424L1.248 40.36C0.768 40.36 0 41.448 0 42.248C0 42.664 0.288 43.016 0.576 43.016C0.8 43.016 1.056 42.856 1.408 42.568C2.752 41.384 6.784 35.048 10.464 28.296C15.008 19.88 19.68 11.816 21.632 8.968C23.232 6.632 24.736 5.128 25.44 5.128C25.696 5.192 26.08 5.224 26.08 6.632C26.08 10.184 23.456 20.776 22.784 24.488C21.76 29.96 21.024 36.456 21.024 39.688C21.024 40.296 21.056 40.776 21.12 41.128C21.312 42.568 21.76 43.592 22.752 43.592ZM36.3332 32.808C36.1412 32.808 36.1412 32.776 36.1412 32.648C36.1412 32.264 37.0373 30.984 37.9973 29.992C39.2453 28.808 39.4373 28.52 40.3333 28.424C41.0693 28.424 41.5173 29.544 41.5173 29.576C41.4852 29.8 39.2453 31.464 37.9653 32.104C37.0373 32.616 36.5572 32.808 36.3332 32.808ZM43.2773 34.216C43.8533 34.216 44.6213 34.024 45.5813 33.576C47.4053 32.68 49.9333 30.728 49.9653 30.248C49.9653 30.152 49.9333 30.088 49.8693 30.088C49.7733 30.088 49.6453 30.184 49.4533 30.376C48.8133 31.016 46.4773 32.552 45.2613 33.128C44.4613 33.544 43.8213 33.736 43.3413 33.736C42.5093 33.736 42.1253 32.936 42.1253 32.136C42.1253 31.176 43.0853 29.8 43.0853 29.224C43.0533 29.032 43.0213 28.904 42.8933 28.904L42.7333 28.936C42.3173 28.936 42.0933 27.272 40.7173 27.272C40.4293 27.272 40.0773 27.368 39.6613 27.56C38.1573 28.232 35.3412 31.496 35.3412 32.712C35.3412 33.16 35.7253 33.512 36.2372 33.512C37.9013 33.512 41.3893 30.568 41.7093 30.568L41.7413 30.6C41.7413 30.632 41.4213 31.304 41.4213 32.136C41.4213 33.096 41.8373 34.216 43.2773 34.216ZM54.233 37.192C55.513 37.192 57.305 35.464 58.521 31.784L58.873 30.696C59.257 30.92 59.801 31.016 60.441 31.016C61.657 31.016 63.161 30.632 63.865 30.312C63.929 30.28 63.961 30.216 63.961 30.152C63.929 30.056 63.929 30.056 63.865 30.056L63.705 30.088C63.161 30.376 61.817 30.696 60.697 30.696C60.057 30.696 59.481 30.6 59.161 30.312C59.097 30.28 59.065 30.216 59.065 30.088C59.097 29.736 59.129 29.608 59.129 29.416C59.129 28.808 59.001 28.488 58.617 28.488C58.297 28.488 58.073 28.968 58.073 29.288C58.073 29.704 58.297 29.832 58.297 30.376C58.297 31.56 57.081 34.632 55.609 35.912C54.969 36.456 54.745 36.616 54.425 36.616C53.593 36.584 53.305 35.944 53.305 34.888C53.305 33.256 54.073 30.856 54.073 30.056C54.073 29.768 53.945 29.704 53.817 29.704C53.465 29.704 52.921 30.472 52.089 31.496C50.553 33.352 48.761 35.176 48.473 35.176C48.377 35.176 48.313 35.08 48.313 34.888C48.313 33.928 49.849 30.728 51.193 29.064C51.449 28.808 51.705 28.552 51.769 28.552L51.833 28.584C51.929 28.584 52.505 28.136 52.505 27.784C52.505 27.592 52.281 27.336 51.993 27.336C50.969 27.336 47.737 32.744 47.737 34.792C47.737 35.304 47.961 35.688 48.377 35.688C49.849 35.688 53.177 30.824 53.433 30.824C52.985 32.648 52.697 33.48 52.697 34.728C52.697 36.328 53.337 37.192 54.233 37.192ZM63.2707 32.808C63.0787 32.808 63.0787 32.776 63.0787 32.648C63.0787 32.264 63.9748 30.984 64.9348 29.992C66.1828 28.808 66.3748 28.52 67.2708 28.424C68.0068 28.424 68.4548 29.544 68.4548 29.576C68.4227 29.8 66.1828 31.464 64.9028 32.104C63.9748 32.616 63.4947 32.808 63.2707 32.808ZM70.2148 34.216C70.7908 34.216 71.5588 34.024 72.5188 33.576C74.3428 32.68 76.8708 30.728 76.9028 30.248C76.9028 30.152 76.8708 30.088 76.8068 30.088C76.7108 30.088 76.5828 30.184 76.3908 30.376C75.7508 31.016 73.4148 32.552 72.1988 33.128C71.3988 33.544 70.7588 33.736 70.2788 33.736C69.4468 33.736 69.0628 32.936 69.0628 32.136C69.0628 31.176 70.0228 29.8 70.0228 29.224C69.9908 29.032 69.9588 28.904 69.8308 28.904L69.6708 28.936C69.2548 28.936 69.0308 27.272 67.6548 27.272C67.3668 27.272 67.0148 27.368 66.5988 27.56C65.0948 28.232 62.2787 31.496 62.2787 32.712C62.2787 33.16 62.6628 33.512 63.1747 33.512C64.8388 33.512 68.3268 30.568 68.6468 30.568L68.6788 30.6C68.6788 30.632 68.3588 31.304 68.3588 32.136C68.3588 33.096 68.7748 34.216 70.2148 34.216ZM79.3785 26.12C79.3145 26.12 79.2825 26.088 79.2825 26.024C79.4745 25.32 82.0345 21.288 83.1545 19.656C88.2425 12.2 92.5945 8.136 94.3545 8.136C94.7385 8.136 94.9625 8.328 94.9625 8.776C94.9625 9.256 94.7065 10.024 94.0985 11.048C92.9785 13.064 90.3225 16.296 87.6025 19.176C83.9865 22.888 80.0505 26.12 79.3785 26.12ZM78.9305 39.208C79.6345 39.208 80.4025 39.016 81.2665 38.632C82.1945 38.184 82.6425 37.832 84.0505 36.552C86.4185 34.248 89.4905 31.144 89.8425 30.536C90.0025 30.216 90.0025 30.216 90.0025 30.152C90.0025 30.12 89.9705 30.088 89.9065 30.088C89.8425 30.088 89.7145 30.152 89.5225 30.344C87.4105 32.232 83.4425 36.776 81.2985 37.864C80.4665 38.312 79.6985 38.504 79.0265 38.504C77.3625 38.504 76.4345 37.32 76.3385 35.016C76.3385 32.232 78.3865 26.952 79.1225 26.76C80.2745 26.536 83.4425 23.816 87.6665 19.432C93.2345 13.864 95.2185 10.984 95.3785 8.648C95.3785 7.784 94.9945 7.4 94.3545 7.4C93.5545 7.4 92.3385 8.008 90.9305 9.16C87.9865 11.688 83.6345 17.128 80.2105 22.76C78.0665 26.28 75.6025 31.112 75.6025 34.792C75.6025 37.48 76.9145 39.208 78.9305 39.208ZM105.532 42.152C105.66 42.152 105.82 41.928 105.916 41.608C106.396 39.976 108.028 35.688 108.572 34.568C109.18 33.352 109.212 33.288 109.884 33.096C111.1 32.648 113.5 31.496 114.972 30.632C117.052 29.448 118.972 27.912 118.972 27.592C118.972 27.528 118.94 27.496 118.876 27.496C118.716 27.496 118.236 27.816 117.468 28.392C114.908 30.344 110.716 32.36 107.836 33.032C107.068 33.192 106.684 33.256 106.332 33.256C106.076 33.256 105.82 33.224 105.468 33.16C103.932 32.904 102.876 32.008 102.876 30.952C102.876 29.64 105.02 26.856 107.228 25.224C108.796 24.136 111.228 22.856 113.628 21.896C115.004 21.352 115.676 21.032 115.676 20.84C115.676 20.648 115.132 20.552 114.044 20.456C111.26 20.168 109.692 19.72 109.692 19.016C109.692 18.28 111.708 16.776 114.332 15.496C115.26 15.08 115.676 14.888 115.932 14.888C116.156 14.888 116.124 14.952 116.348 15.016C116.444 15.016 116.508 14.952 116.604 14.824C116.828 14.504 118.076 14.216 119.164 14.216C119.708 14.216 119.932 14.248 119.932 14.344C119.772 14.664 119.644 14.76 119.644 15.272C119.676 15.848 119.836 16.072 120.156 16.072C120.7 16.072 121.468 15.24 121.468 14.184C121.468 13.32 121.276 13.096 119.708 13.096C118.588 13.096 118.62 13.128 117.276 13.16C119.356 9.672 120.892 7.144 120.892 6.632C120.86 6.568 120.86 6.6 120.796 6.568C120.7 6.568 120.572 6.632 120.508 6.696C120.06 7.112 116.636 13.096 116.316 13.416C116.22 13.48 115.836 13.672 115.452 13.768C113.148 14.504 109.82 16.776 108.988 18.12C108.796 18.504 108.7 18.76 108.7 19.016C108.7 19.208 108.764 19.4 108.892 19.656C109.34 20.296 110.844 20.808 112.924 20.936C113.532 20.968 113.884 20.968 113.884 21.064C113.884 21.192 113.436 21.352 112.54 21.736C110.524 22.632 107.932 24.072 106.588 25.096C105.148 26.184 103.228 28.36 102.652 29.48C102.428 30.056 102.3 30.6 102.3 31.112C102.3 31.464 102.364 31.784 102.524 32.072C102.652 32.328 103.068 32.712 103.452 33.032C104.156 33.64 104.924 33.896 106.012 33.896C106.972 33.896 107.068 33.832 108.156 33.672C107.196 35.624 105.34 41.064 105.34 41.96C105.372 42.088 105.436 42.152 105.532 42.152ZM148.084 27.784H147.956C147.732 27.784 147.636 27.72 147.636 27.656L147.668 27.56C152.66 21.864 157.652 16.264 161.46 11.528C161.748 11.112 161.908 10.952 161.972 10.952L162.004 10.984C162.004 11.112 161.812 11.528 161.588 12.104C158.996 17.416 156.916 22.248 155.22 27.08C155.156 27.272 155.092 27.368 154.9 27.368C154.228 27.432 149.556 27.624 148.084 27.784ZM153.364 47.24C153.492 47.24 153.556 47.112 153.556 46.984C153.556 46.856 153.492 46.696 153.396 46.6C153.108 46.376 152.852 45.192 152.852 43.816C152.852 40.136 154.196 33.736 155.7 28.072C155.796 27.848 155.892 27.816 156.052 27.816H156.148C158.996 27.496 160.02 27.624 163.124 27.464C163.124 27.56 163.22 27.592 163.38 27.592C163.7 27.592 164.244 27.368 164.244 27.208C164.244 27.016 164.18 26.92 163.604 26.92C161.428 26.92 157.076 27.304 156.212 27.304C156.116 27.272 156.052 27.272 156.052 27.208C156.372 25.864 159.22 18.504 161.268 14.024C163.764 8.584 164.404 7.624 166.612 4.712L168.884 1.608C169.012 1.352 169.076 1.16 169.076 1.032C169.076 0.84 168.98 0.775997 168.82 0.775997C168.116 0.775997 166.356 3.112 164.532 6.056C161.3 11.368 151.38 23.24 146.804 27.528C146.58 27.688 146.196 27.912 145.972 27.944C140.404 28.52 138.516 28.52 134.996 29.128L133.94 29.224C133.684 29.224 133.716 29.192 133.62 29.16L133.364 29.096C132.948 29.096 132.372 29.352 132.212 29.448C131.924 29.544 131.796 29.768 131.796 29.96C131.796 30.216 131.988 30.408 132.276 30.408L132.564 30.376C135.796 29.288 143.956 28.68 145.364 28.616C145.524 28.616 145.62 28.648 145.62 28.744C145.62 28.808 145.556 28.904 145.492 28.968C141.428 33.256 138.932 36.136 134.452 40.04C133.78 40.648 133.172 41.096 132.916 41.096L132.692 41.064C132.5 41.064 132.18 41.192 131.796 41.448C131.316 41.832 131.156 42.28 131.156 42.664C131.22 43.112 131.252 43.272 131.636 43.272C132.308 43.272 132.596 42.664 133.716 41.672C139.156 36.488 141.556 33.672 145.94 29.16C146.26 28.808 146.516 28.584 147.028 28.52L154.868 27.88C154.932 27.88 154.964 27.912 154.964 27.976C154.484 30.024 152.244 37.736 152.244 43.56C152.244 45.096 152.436 46.344 152.948 46.952C153.108 47.176 153.268 47.24 153.364 47.24ZM159.861 37.224L159.573 37.192C158.997 37.064 158.805 36.808 158.805 36.456C158.805 35.496 160.149 34.408 160.918 33.864C161.878 33.256 162.902 32.712 163.606 32.392L163.766 32.328C164.406 32.552 164.918 33.128 164.918 33.832C164.918 35.144 161.718 37.224 159.861 37.224ZM159.925 37.448C161.718 37.448 164.502 35.816 165.206 34.632C165.43 34.248 165.526 33.896 165.526 33.544C165.526 32.904 165.174 32.36 164.661 31.88C166.39 31.112 168.982 30.536 170.55 30.248C170.71 30.184 170.806 30.152 170.806 30.12L170.742 30.088L170.518 30.12C168.854 30.312 165.814 31.272 164.566 31.784C164.342 31.624 161.27 30.536 161.238 29.672C161.238 28.136 164.982 26.92 166.614 26.76C166.71 26.76 166.742 26.792 166.742 26.856C166.678 27.144 166.422 27.432 166.422 27.816C166.422 27.976 166.454 28.104 166.582 28.104C166.87 28.104 168.086 27.144 168.086 26.568C168.086 26.376 167.99 26.216 167.83 26.056C167.67 25.832 167.542 25.768 167.222 25.768C165.654 25.768 160.341 27.176 160.341 29.736C160.373 30.728 162.582 31.656 163.478 32.104C163.542 32.136 163.542 32.168 163.542 32.2C163.542 32.264 163.51 32.264 163.51 32.296C162.774 32.68 161.814 33.192 160.886 33.832C160.021 34.408 158.645 35.4 158.645 36.52C158.709 37.256 159.221 37.384 159.925 37.448ZM167.843 36.2C168.163 36.2 168.739 35.624 170.083 34.12C173.379 30.28 175.619 28.104 177.091 27.784C177.379 27.784 177.475 27.976 177.475 28.328C177.475 29.48 176.131 32.328 176.131 33.576C176.131 33.928 176.259 34.152 176.547 34.152C176.963 34.152 180.739 29.864 181.443 29.864C181.667 29.864 181.667 30.312 181.667 30.92V30.984C181.667 32.232 181.699 34.216 183.651 34.536L184.163 34.568C187.363 34.568 191.267 30.568 191.267 30.12C191.267 29.992 191.235 29.928 191.139 29.928C190.979 29.928 190.659 30.184 190.147 30.632C188.259 32.328 185.603 33.8 184.355 33.8C181.507 33.768 182.979 30.216 182.179 29.352C182.019 29.16 181.827 29.064 181.603 29.064C180.995 29.064 180.067 29.768 178.435 31.368C177.859 31.976 177.379 32.36 177.315 32.36L177.347 32.328C177.795 30.76 178.179 28.968 178.211 28.2C178.211 27.112 177.795 26.984 177.091 26.984C175.331 26.984 171.491 31.368 171.171 31.368L171.139 31.336C171.203 31.112 173.283 28.264 173.283 27.624C173.283 27.272 173.123 26.984 172.803 26.984C172.387 26.984 171.523 27.72 171.491 28.136C171.459 28.904 167.587 34.888 167.587 35.944C167.587 36.168 167.747 36.2 167.843 36.2ZM190.364 32.808C190.172 32.808 190.172 32.776 190.172 32.648C190.172 32.264 191.069 30.984 192.029 29.992C193.277 28.808 193.469 28.52 194.365 28.424C195.101 28.424 195.549 29.544 195.549 29.576C195.516 29.8 193.277 31.464 191.997 32.104C191.069 32.616 190.588 32.808 190.364 32.808ZM197.309 34.216C197.885 34.216 198.653 34.024 199.613 33.576C201.437 32.68 203.965 30.728 203.997 30.248C203.997 30.152 203.965 30.088 203.901 30.088C203.805 30.088 203.677 30.184 203.485 30.376C202.845 31.016 200.509 32.552 199.293 33.128C198.493 33.544 197.853 33.736 197.373 33.736C196.541 33.736 196.157 32.936 196.157 32.136C196.157 31.176 197.117 29.8 197.117 29.224C197.085 29.032 197.053 28.904 196.925 28.904L196.765 28.936C196.349 28.936 196.125 27.272 194.749 27.272C194.461 27.272 194.109 27.368 193.693 27.56C192.189 28.232 189.372 31.496 189.372 32.712C189.372 33.16 189.757 33.512 190.268 33.512C191.933 33.512 195.421 30.568 195.741 30.568L195.773 30.6C195.773 30.632 195.453 31.304 195.453 32.136C195.453 33.096 195.869 34.216 197.309 34.216Z" fill="black"/>
</svg>
