<svg width="512" height="512" viewBox="0 0 512 512" fill="none" xmlns="http://www.w3.org/2000/svg">
<path d="M304.468 3.651C289.491 1.194 275.927 0 262.999 0C122.392 0 7.99902 114.841 7.99902 256C7.99902 397.159 122.392 512 262.999 512C371.485 512 468.02 441.828 503.214 337.384C505.538 330.487 502.575 322.916 496.187 319.428C489.798 315.941 481.828 317.543 477.284 323.227C442.85 366.298 392.083 391 337.999 391C238.747 391 157.999 310.252 157.999 211C157.999 123.852 219.734 49.075 304.791 33.199C311.952 31.862 317.118 25.574 317.038 18.289C316.958 11.005 311.656 4.831 304.468 3.651V3.651ZM127.999 211C127.999 326.794 222.205 421 337.999 421C373.99 421 408.702 411.674 439.338 394.379C397.689 448.612 333.169 482 262.999 482C138.934 482 37.999 380.617 37.999 256C37.999 144.321 119.072 51.3 225.201 33.189C163.13 73.036 127.999 141.02 127.999 211Z" fill="black"/>
<path d="M427.719 176.962C425.962 171.559 421.304 167.612 415.686 166.766L361.103 158.55L336.416 109.164C333.876 104.081 328.681 100.871 322.999 100.871C317.317 100.871 312.122 104.081 309.582 109.164L284.895 158.55L230.312 166.766C224.694 167.612 220.036 171.558 218.279 176.962C216.523 182.365 217.969 188.296 222.016 192.284L261.337 231.027L252.274 285.484C251.341 291.088 253.656 296.739 258.252 300.08C262.848 303.42 268.938 303.879 273.98 301.261L323 275.827L372.02 301.261C377.063 303.877 383.151 303.421 387.748 300.08C392.344 296.739 394.658 291.089 393.726 285.484L384.663 231.027L423.984 192.284C428.028 188.297 429.475 182.365 427.719 176.962V176.962ZM358.058 215.124C354.579 218.55 352.988 223.455 353.788 228.271L359.205 260.815L329.907 245.614C327.741 244.49 325.37 243.928 322.999 243.928C320.628 243.928 318.257 244.49 316.091 245.614L286.793 260.815L292.21 228.271C293.011 223.455 291.419 218.55 287.94 215.124L264.439 191.968L297.062 187.058C301.891 186.331 306.063 183.3 308.247 178.932L322.999 149.42L337.751 178.932C339.935 183.3 344.106 186.331 348.936 187.058L381.559 191.968L358.058 215.124Z" fill="black"/>
</svg>
