<svg width="22" height="22" viewBox="0 0 22 22" fill="none" xmlns="http://www.w3.org/2000/svg">
<path d="M22 11.9573L21.9971 10.2846C21.9991 9.82933 21.6219 9.4516 21.1535 9.43971L12.7005 9.40363L12.7373 0.852141C12.7393 0.396646 12.3621 0.0189173 11.8937 0.00722288L10.1991 8.38896e-06C9.74042 -0.00204319 9.36 0.37246 9.34813 0.837713L9.31136 9.3696L0.858188 9.35341C0.399648 9.35145 0.019233 9.72596 0.00725974 10.1911L7.62255e-06 11.8737C-0.00195472 12.329 0.375218 12.7068 0.843684 12.7187L9.29667 12.7545L9.26049 21.1479C9.25853 21.6032 9.6357 21.9809 10.1042 21.9928L11.7988 22C12.2573 22.0019 12.6377 21.6274 12.6497 21.1623L12.676 12.759L21.1289 12.7951C21.6076 12.797 21.988 12.4225 22 11.9573Z" fill="white"/>
</svg>
