<svg width="512" height="512" viewBox="0 0 512 512" fill="none" xmlns="http://www.w3.org/2000/svg">
<path d="M340.403 128.963C336.577 128.963 333.451 132.089 333.451 135.915V162.485C338.058 161.54 342.976 161.661 347.41 162.647V135.915C347.41 132.089 344.284 128.963 340.403 128.963Z" fill="black"/>
<path d="M322.671 149.928V146.856C316.473 140.496 312.862 131.496 313.185 122.172C314.263 90.7514 330.701 75.7154 342.072 69.0864C346.491 66.4994 352.043 69.6794 351.881 74.7994C351.558 85.4164 353.013 102.285 362.983 116.513C371.175 128.208 367.834 143.406 358.187 151.059V154.293C384.649 146.478 397.422 112.147 379.799 87.0324C362.391 62.2414 359.858 32.8684 360.397 14.3284C360.666 5.38236 351.019 -0.223636 343.312 4.30436C323.479 15.9454 294.807 42.1384 292.867 96.8954C292.167 119.046 303.97 140.012 322.671 149.928V149.928Z" fill="black"/>
<path d="M256.651 244.245C269.028 244.245 270.686 246.221 354.2 264.402C368.051 267.474 378.938 277.93 382.549 291.727C382.603 291.781 382.603 291.835 382.657 291.942C384.112 290.595 385.729 289.247 387.454 287.738C402.922 274.156 426.043 253.946 462.961 224.573C456.494 223.172 448.301 225.004 438.762 224.088C394.299 224.088 373.334 197.626 358.028 180.649C348.327 169.924 331.512 169.924 321.811 180.649C318.2 184.637 314.481 188.733 310.762 192.883C275.784 232.388 229.381 222.687 219.896 224.088C211.65 224.088 205.56 230.825 205.56 238.424C205.56 247.263 206.907 255.886 209.44 263.97C221.889 251.413 239.027 244.245 256.651 244.245V244.245Z" fill="black"/>
<path d="M498.585 234.059C493.249 225.166 481.123 223.226 473.308 230.071C369.83 312.26 371.986 324.333 349.081 321.045L283.221 310.482C280.311 310.051 278.317 307.248 278.748 304.338C279.233 301.374 281.982 299.38 284.946 299.865L350.806 310.374C358.405 311.667 375.166 305.793 372.148 294.475C369.669 285.151 362.285 277.229 351.83 274.911L268.993 256.425C249.753 252.06 229.65 258.204 216.069 272.593L173.977 317.272C177.228 321.303 223.356 408.67 224.907 413.582H327.092C348.865 413.582 365.25 406.63 377.268 394.288L493.896 274.157C504.405 263.27 506.184 246.832 498.585 234.059V234.059Z" fill="black"/>
<path d="M168.096 327.839C162.136 316.612 148.206 312.315 136.98 318.345L19.9698 381.524C9.62977 387.108 5.74077 399.995 11.2678 410.365L57.9568 497.98C63.5368 508.451 76.5808 512.368 87.0058 506.704L203.579 443.366C214.598 437.406 218.756 423.615 212.866 412.596L168.096 327.839Z" fill="black"/>
</svg>
