<svg width="512" height="512" viewBox="0 0 512 512" fill="none" xmlns="http://www.w3.org/2000/svg">
<g clip-path="url(#clip0)">
<path d="M501.333 490.667H490.666V405.334C490.666 381.803 471.531 362.667 447.999 362.667V277.334C447.999 253.803 428.864 234.667 405.332 234.667V149.334C405.332 125.803 386.197 106.667 362.665 106.667H279.903L308.623 74.667C315.958 66.417 320 55.531 320 44C320 19.74 301.927 0 279.708 0C271.52 0 263.468 3.917 256 11.448C248.531 3.917 240.479 0 232.292 0C210.073 0 192 19.74 192 44C192 55.531 196.042 66.417 203.406 74.698L232.096 106.667H149.333C125.802 106.667 106.666 125.802 106.666 149.334V234.667C83.135 234.667 64 253.802 64 277.333V362.666C40.469 362.666 21.333 381.801 21.333 405.333V490.666H10.667C4.771 490.667 0 495.438 0 501.333C0 507.229 4.771 512 10.667 512H501.334C507.23 512 512.001 507.229 512.001 501.333C512 495.438 507.229 490.667 501.333 490.667ZM128 149.333C128 137.573 137.573 128 149.333 128H362.666C374.426 128 383.999 137.573 383.999 149.333V166.94C380.18 165.387 376.767 163.482 373.124 161.406C363.207 155.75 351.968 149.333 330.447 149.333C308.957 149.333 297.728 155.75 287.832 161.406C279.134 166.375 271.624 170.666 255.801 170.666C239.968 170.666 232.468 166.374 223.77 161.406C213.874 155.75 202.655 149.333 181.166 149.333C159.676 149.333 148.458 155.75 138.562 161.406C135.016 163.431 131.699 165.301 127.999 166.833V149.333H128ZM85.333 277.333C85.333 265.573 94.906 256 106.666 256H405.333C417.093 256 426.666 265.573 426.666 277.333V294.841C421.553 296.948 415.037 298.667 405.228 298.667C389.363 298.667 381.843 294.375 373.134 289.407C363.217 283.751 351.978 277.334 330.446 277.334C308.946 277.334 297.727 283.751 287.831 289.407C279.133 294.376 271.633 298.667 255.8 298.667C239.967 298.667 232.467 294.375 223.769 289.407C213.873 283.751 202.654 277.334 181.165 277.334C159.675 277.334 148.457 283.751 138.561 289.407C129.863 294.376 122.363 298.667 106.54 298.667C96.841 298.667 90.393 296.978 85.332 294.9V277.333H85.333ZM469.333 406.145C454.669 407.885 445.397 412.801 437.323 417.407C428.615 422.376 421.094 426.667 405.229 426.667C389.364 426.667 381.844 422.375 373.135 417.407C363.218 411.751 351.979 405.334 330.447 405.334C308.957 405.334 297.728 411.751 287.832 417.407C279.134 422.376 271.624 426.667 255.801 426.667C239.968 426.667 232.468 422.375 223.77 417.407C213.874 411.751 202.655 405.334 181.166 405.334C159.676 405.334 148.458 411.751 138.562 417.407C129.864 422.376 122.364 426.667 106.541 426.667C90.739 426.667 83.249 422.375 74.572 417.407C66.519 412.804 57.278 407.89 42.666 406.147V405.334C42.667 393.573 52.24 384 64 384H448C459.76 384 469.333 393.573 469.333 405.333V406.145V406.145Z" fill="black"/>
</g>
<defs>
<clipPath id="clip0">
<rect width="512" height="512" fill="white"/>
</clipPath>
</defs>
</svg>
