<svg width="30" height="30" viewBox="0 0 30 30" fill="none" xmlns="http://www.w3.org/2000/svg">
<path d="M28.809 9.17976C28.0149 7.33062 26.9471 5.73548 25.6061 4.3945C24.2649 3.05344 22.6698 1.98583 20.8207 1.19137C18.9717 0.396919 17.0319 0 15.0005 0C13.0865 0 11.2344 0.361003 9.44381 1.08383C7.6536 1.80652 6.06177 2.82536 4.66848 4.14062L2.12911 1.62072C1.73842 1.21703 1.28938 1.12597 0.781374 1.34714C0.260435 1.56879 0 1.95306 0 2.49986V11.2501C0 11.5886 0.123753 11.8816 0.37119 12.1289C0.618765 12.3764 0.911763 12.5001 1.25025 12.5001H10.0003C10.5473 12.5001 10.9314 12.2397 11.1527 11.7188C11.374 11.211 11.2829 10.7619 10.8792 10.3711L8.20334 7.67582C9.1151 6.81637 10.1566 6.15559 11.3285 5.69327C12.5004 5.23102 13.7243 4.99973 15.0004 4.99973C16.3544 4.99973 17.6469 5.26366 18.8774 5.79076C20.1081 6.31821 21.1722 7.03111 22.0707 7.92962C22.9692 8.82792 23.6821 9.89232 24.2095 11.123C24.7365 12.3535 25.0004 13.6456 25.0004 15.0001C25.0004 16.3545 24.7366 17.6466 24.2095 18.877C23.6821 20.1075 22.9692 21.1718 22.0707 22.0704C21.1722 22.9689 20.1077 23.682 18.8774 24.2092C17.6469 24.7365 16.3544 25.0001 15.0004 25.0001C13.4508 25.0001 11.986 24.6616 10.6057 23.9847C9.22558 23.3079 8.06022 22.3509 7.10967 21.1133C7.01862 20.9832 6.8688 20.9049 6.66043 20.8787C6.46505 20.8787 6.30223 20.9372 6.17205 21.0543L3.49628 23.7498C3.39223 23.8545 3.33688 23.9877 3.33032 24.1502C3.32389 24.3134 3.36637 24.4597 3.45742 24.5899C4.87685 26.3087 6.59544 27.6401 8.61366 28.5838C10.6319 29.5278 12.761 30 15.0005 30C17.0319 30 18.9717 29.6027 20.8207 28.8086C22.6698 28.0145 24.2644 26.9464 25.6058 25.6055C26.947 24.264 28.0146 22.6692 28.8089 20.8202C29.6032 18.9712 30 17.0308 30 14.9999C30.0001 12.9682 29.603 11.0288 28.809 9.17976Z" fill="#F3B95A"/>
</svg>
