<svg width="55" height="95" viewBox="0 0 55 95" fill="none" xmlns="http://www.w3.org/2000/svg">
<path d="M53.5067 43.334L11.8453 1.50176C10.8817 0.533449 9.59543 0 8.22389 0C6.85236 0 5.56606 0.533449 4.60249 1.50176L1.53442 4.5817C-0.461999 6.58863 -0.461999 9.85047 1.53442 11.8543L36.5185 46.9825L1.4956 82.1497C0.532022 83.118 0 84.4088 0 85.7852C0 87.1632 0.532022 88.454 1.4956 89.4231L4.56367 92.5022C5.52801 93.4706 6.81354 94.004 8.18508 94.004C9.55661 94.004 10.8429 93.4706 11.8065 92.5022L53.5067 50.6318C54.4725 49.6605 55.003 48.3635 55 46.9848C55.003 45.6007 54.4725 44.3046 53.5067 43.334Z" fill="#F3B95A"/>
</svg>
