<svg width="513" height="513" viewBox="0 0 513 513" fill="none" xmlns="http://www.w3.org/2000/svg">
<g clip-path="url(#clip0)">
<path d="M506.048 125.038C502.3 122.204 497.439 121.289 492.915 122.569L280.915 182.569C274.458 184.397 270 190.291 270 197.002V400.074C261.167 394.951 250.925 392.002 240 392.002C206.916 392.002 180 418.918 180 452.002C180 485.086 206.916 512.002 240 512.002C273.084 512.002 300 485.086 300 452.002C300 450.444 300 268.346 300 268.346L482 216.836V340.074C473.167 334.951 462.925 332.002 452 332.002C418.916 332.002 392 358.918 392 392.002C392 425.086 418.916 452.002 452 452.002C485.084 452.002 512 425.086 512 392.002C512 390.671 512 137.002 512 137.002C512.001 132.302 509.797 127.873 506.048 125.038ZM240.001 482.002C223.459 482.002 210.001 468.544 210.001 452.002C210.001 435.46 223.459 422.002 240.001 422.002C256.543 422.002 270.001 435.46 270.001 452.002C270.001 468.544 256.543 482.002 240.001 482.002ZM452.001 422.002C435.459 422.002 422.001 408.544 422.001 392.002C422.001 375.46 435.459 362.002 452.001 362.002C468.543 362.002 482.001 375.46 482.001 392.002C482.001 408.544 468.543 422.002 452.001 422.002ZM482.001 185.659L300.001 237.168V208.346L482.001 156.837V185.659Z" fill="black"/>
<path d="M209.305 106.481C176.025 82.0846 151.644 57.9226 134.77 32.6116L117.481 6.68059C113.814 1.18059 106.979 -1.27041 100.654 0.644593C94.328 2.56059 90.001 8.39159 90.001 15.0016V250.074C81.168 244.951 70.926 242.002 60.001 242.002C26.917 242.002 0.000976562 268.918 0.000976562 302.002C0.000976562 335.086 26.917 362.002 60.001 362.002C93.085 362.002 120.001 335.086 120.001 302.002V63.3946C137.928 86.4936 161.49 108.629 191.568 130.678C203.11 139.138 210.001 152.717 210.001 167.003C210.001 191.816 189.814 212.003 165.001 212.003C156.717 212.003 150.001 218.719 150.001 227.003C150.001 235.287 156.717 242.003 165.001 242.003C206.356 242.002 240.001 208.357 240.001 167.002C240.001 143.195 228.525 120.57 209.305 106.481ZM60.001 332.002C43.459 332.002 30.001 318.544 30.001 302.002C30.001 285.46 43.459 272.002 60.001 272.002C76.543 272.002 90.001 285.46 90.001 302.002C90.001 318.544 76.543 332.002 60.001 332.002Z" fill="black"/>
</g>
<defs>
<clipPath id="clip0">
<rect width="512.002" height="512.002" fill="white"/>
</clipPath>
</defs>
</svg>
