<svg width="35" height="37" viewBox="0 0 35 37" fill="none" xmlns="http://www.w3.org/2000/svg">
<path d="M31.5992 36.6121H2.90082C1.29551 36.6121 0 35.3166 0 33.7112V5.01288C0 3.40757 1.30959 2.11206 2.90082 2.11206H31.5992C33.2045 2.11206 34.5 3.42165 34.5 5.01288V33.7112C34.5 35.3166 33.2045 36.6121 31.5992 36.6121ZM2.90082 4.22431C2.46429 4.22431 2.11225 4.57635 2.11225 5.01288V33.7112C2.11225 34.1478 2.46429 34.4998 2.90082 34.4998H31.5992C32.0357 34.4998 32.3878 34.1478 32.3878 33.7112V5.01288C32.3878 4.57635 32.0357 4.22431 31.5992 4.22431H2.90082Z" fill="white"/>
<path d="M34.1475 11.2651H0.351562V13.3774H34.1475V11.2651Z" fill="white"/>
<path d="M11.6167 7.7449C11.0393 7.7449 10.5605 7.26612 10.5605 6.68878V1.05612C10.5605 0.478776 11.0393 0 11.6167 0C12.194 0 12.6728 0.478776 12.6728 1.05612V6.68878C12.6728 7.26612 12.194 7.7449 11.6167 7.7449Z" fill="white"/>
<path d="M22.8833 7.7449C22.3059 7.7449 21.8271 7.26612 21.8271 6.68878V1.05612C21.8271 0.478776 22.3059 0 22.8833 0C23.4606 0 23.9394 0.478776 23.9394 1.05612V6.68878C23.9394 7.26612 23.4606 7.7449 22.8833 7.7449Z" fill="white"/>
<path d="M20.3335 18.447C19.0661 18.447 17.9396 19.0666 17.2496 20.0101C16.5596 19.0525 15.4331 18.447 14.1657 18.447C12.0676 18.447 10.3496 20.1509 10.3496 22.2631C10.3496 25.4597 17.2355 30.6276 17.2355 30.6276C17.2355 30.6276 24.1214 25.4597 24.1214 22.2631C24.1355 20.1509 22.4317 18.447 20.3335 18.447Z" fill="white"/>
</svg>
