<svg width="48" height="55" viewBox="0 0 48 55" fill="none" xmlns="http://www.w3.org/2000/svg">
<rect width="48" height="55" rx="5" fill="#F3B95A"/>
<path d="M22.2069 32.7588V36.7066C22.2069 36.9824 22.3744 37.2267 22.6225 37.3135C22.6846 37.3348 22.7482 37.345 22.811 37.345C22.9995 37.345 23.1815 37.2514 23.2975 37.0845L25.4828 33.9419L22.2069 32.7588Z" fill="white"/>
<path d="M33.7506 19.1094C33.5685 18.9812 33.3294 18.9639 33.1315 19.0669L15.3191 28.3048C15.1085 28.4141 14.9842 28.6374 15.0016 28.8724C15.0198 29.1083 15.1774 29.3096 15.4014 29.3858L20.3533 31.0667L30.899 22.1119L22.7386 31.8757L31.0376 34.6927C31.0993 34.7131 31.1642 34.7241 31.2291 34.7241C31.3368 34.7241 31.4437 34.695 31.5379 34.6384C31.6883 34.5472 31.7904 34.3939 31.8166 34.2218L33.9936 19.677C34.0261 19.4569 33.9327 19.2383 33.7506 19.1094Z" fill="white"/>
</svg>
