<svg width="18" height="31" viewBox="0 0 18 31" fill="none" xmlns="http://www.w3.org/2000/svg">
<path d="M6.04866 15.5066L17.5108 3.90902C17.8264 3.59046 18 3.16452 18 2.71036C18 2.25594 17.8264 1.83026 17.5108 1.51119L16.5064 0.495496C16.1913 0.175919 15.7701 0 15.3212 0C14.8723 0 14.4516 0.175919 14.1362 0.495496L0.488742 14.3033C0.172135 14.6234 -0.00123883 15.0511 6.67373e-06 15.5058C-0.00123883 15.9625 0.171886 16.3897 0.488742 16.71L14.1235 30.5045C14.4389 30.8241 14.8596 31 15.3087 31C15.7576 31 16.1783 30.8241 16.4939 30.5045L17.4981 29.4888C18.1515 28.8277 18.1515 27.7516 17.4981 27.0907L6.04866 15.5066Z" fill="#F3B95A"/>
</svg>
