<svg width="17" height="4" viewBox="0 0 17 4" fill="none" xmlns="http://www.w3.org/2000/svg">
<path fill-rule="evenodd" clip-rule="evenodd" d="M0 1.75006C0 0.783555 0.78351 0 1.74997 0C2.71649 0 3.5 0.783555 3.5 1.75006C3.5 2.71656 2.71649 3.5 1.74997 3.5C0.78351 3.5 0 2.71656 0 1.75006Z" fill="#18573F"/>
<path fill-rule="evenodd" clip-rule="evenodd" d="M6.5 1.75006C6.5 0.783555 7.28351 0 8.24997 0C9.21649 0 10 0.783555 10 1.75006C10 2.71656 9.21649 3.5 8.24997 3.5C7.28351 3.5 6.5 2.71656 6.5 1.75006Z" fill="#18573F"/>
<path fill-rule="evenodd" clip-rule="evenodd" d="M13 1.75006C13 0.783555 13.7835 0 14.75 0C15.7165 0 16.5 0.783555 16.5 1.75006C16.5 2.71656 15.7165 3.5 14.75 3.5C13.7835 3.5 13 2.71656 13 1.75006Z" fill="#18573F"/>
</svg>
