<svg width="33" height="33" viewBox="0 0 33 33" fill="none" xmlns="http://www.w3.org/2000/svg">
<circle cx="16.5" cy="16.5" r="16" fill="white" stroke="#F3B95A"/>
<path d="M24 17.1527L23.9981 16.0122C23.9994 15.7018 23.7422 15.4443 23.4228 15.4362L17.6594 15.4116L17.6845 9.58101C17.6859 9.27044 17.4287 9.0129 17.1093 9.00492L15.9539 9.00001C15.6412 8.99861 15.3818 9.25395 15.3737 9.57117L15.3487 15.3884L9.58513 15.3773C9.27249 15.376 9.01311 15.6313 9.00495 15.9485L9.00001 17.0957C8.99867 17.4062 9.25583 17.6637 9.57524 17.6718L15.3386 17.6963L15.314 23.419C15.3126 23.7294 15.5698 23.987 15.8892 23.9951L17.0446 24C17.3573 24.0013 17.6166 23.746 17.6248 23.4288L17.6427 17.6993L23.4061 17.7239C23.7325 17.7252 23.9918 17.4699 24 17.1527Z" fill="#F3B95A"/>
</svg>
