<svg width="30" height="30" viewBox="0 0 30 30" fill="none" xmlns="http://www.w3.org/2000/svg">
<path d="M23.7495 14.9987C23.0583 14.9987 22.4996 15.5588 22.4996 16.2486V26.2485C22.4996 26.9372 21.9396 27.4984 21.2497 27.4984H3.74994C3.05987 27.4984 2.50003 26.9372 2.50003 26.2485V8.74872C2.50003 8.06002 3.05987 7.49881 3.74994 7.49881H13.7498C14.4411 7.49881 14.9997 6.93875 14.9997 6.24891C14.9997 5.55884 14.4411 4.99878 13.7498 4.99878H3.74994C1.68248 4.99878 0 6.68126 0 8.74872V26.2485C0 28.316 1.68248 29.9984 3.74994 29.9984H21.2497C23.3172 29.9984 24.9997 28.316 24.9997 26.2485V16.2486C24.9997 15.5574 24.4407 14.9987 23.7495 14.9987Z" fill="#18573F"/>
<path d="M11.7194 13.86C11.632 13.9475 11.5732 14.0587 11.5482 14.1786L10.6645 18.5987C10.6233 18.8036 10.6883 19.0148 10.8357 19.1636C10.9545 19.2824 11.1145 19.346 11.2784 19.346C11.3182 19.346 11.3596 19.3423 11.4008 19.3337L15.8195 18.45C15.942 18.4248 16.0532 18.3662 16.1395 18.2785L26.0293 8.3887L21.6106 3.97021L11.7194 13.86Z" fill="#18573F"/>
<path d="M29.0841 0.914082C27.8656 -0.304694 25.883 -0.304694 24.6654 0.914082L22.9355 2.64394L27.3543 7.06266L29.0841 5.33257C29.6742 4.7439 29.9992 3.95885 29.9992 3.1239C29.9992 2.28895 29.6742 1.5039 29.0841 0.914082Z" fill="#18573F"/>
</svg>
