<svg width="512" height="512" viewBox="0 0 512 512" fill="none" xmlns="http://www.w3.org/2000/svg">
<path d="M504 255.98H424C421.878 255.98 419.843 256.823 418.343 258.323C416.843 259.824 416 261.858 416 263.98V271.979H363.408C352.957 261.749 338.921 256.007 324.296 255.98H232C227.055 256.003 222.238 257.551 218.207 260.415C214.176 263.279 211.128 267.318 209.48 271.979H96V263.98C96 261.858 95.1571 259.824 93.6569 258.323C92.1566 256.823 90.1217 255.98 88 255.98H8C5.87827 255.98 3.84344 256.823 2.34315 258.323C0.842855 259.824 0 261.858 0 263.98L0 431.967C0 434.088 0.842855 436.123 2.34315 437.623C3.84344 439.123 5.87827 439.966 8 439.966H88C90.1217 439.966 92.1566 439.123 93.6569 437.623C95.1571 436.123 96 434.088 96 431.967V423.967H110.336C109.122 428.077 109.035 432.437 110.085 436.592C111.135 440.746 113.283 444.542 116.304 447.582L117.68 448.957C121.841 453.156 127.417 455.654 133.32 455.965C133.633 461.867 136.121 467.444 140.304 471.62L141.68 472.996C145.848 477.179 151.422 479.663 157.32 479.963C157.633 485.865 160.121 491.442 164.304 495.618L165.68 496.994C170.259 501.342 176.333 503.767 182.648 503.767C188.963 503.767 195.037 501.342 199.616 496.994C200.789 499.453 202.375 501.693 204.304 503.617L205.68 504.993C210.187 509.48 216.288 512 222.648 512C229.008 512 235.109 509.48 239.616 504.993L255.328 489.29L271.032 504.993C275.539 509.48 281.64 512 288 512C294.36 512 300.461 509.48 304.968 504.993L306.344 503.617C308.272 501.692 309.858 499.452 311.032 496.994C315.609 501.346 321.684 503.773 328 503.773C334.316 503.773 340.391 501.346 344.968 496.994L346.344 495.618C350.527 491.442 353.015 485.865 353.328 479.963C359.226 479.663 364.8 477.179 368.968 472.996L370.344 471.62C374.531 467.448 377.017 461.868 377.32 455.965C383.221 455.66 388.797 453.174 392.968 448.989L394.344 447.614C397.415 444.6 399.596 440.8 400.649 436.628C401.701 432.457 401.585 428.077 400.312 423.967H416V431.967C416 434.088 416.843 436.123 418.343 437.623C419.843 439.123 421.878 439.966 424 439.966H504C506.122 439.966 508.157 439.123 509.657 437.623C511.157 436.123 512 434.088 512 431.967V263.98C512 261.858 511.157 259.824 509.657 258.323C508.157 256.823 506.122 255.98 504 255.98V255.98ZM80 423.967H56V333.478C56 331.357 55.1571 329.322 53.6569 327.822C52.1566 326.322 50.1217 325.479 48 325.479C45.8783 325.479 43.8434 326.322 42.3431 327.822C40.8429 329.322 40 331.357 40 333.478V423.967H16V271.979H80V423.967ZM128.992 437.646L127.616 436.27C126.116 434.77 125.274 432.736 125.274 430.615C125.274 428.494 126.116 426.459 127.616 424.959L168.984 383.603C170.516 382.164 172.539 381.364 174.64 381.364C176.741 381.364 178.764 382.164 180.296 383.603L181.672 384.978C183.172 386.479 184.014 388.513 184.014 390.634C184.014 392.755 183.172 394.789 181.672 396.29L140.304 437.646C138.772 439.084 136.749 439.885 134.648 439.885C132.547 439.885 130.524 439.084 128.992 437.646V437.646ZM152.992 461.644L151.616 460.269C150.116 458.768 149.274 456.734 149.274 454.613C149.274 452.492 150.116 450.458 151.616 448.957L192.984 407.601C194.516 406.163 196.539 405.362 198.64 405.362C200.741 405.362 202.764 406.163 204.296 407.601L205.672 408.985C207.167 410.484 208.006 412.515 208.006 414.632C208.006 416.749 207.167 418.78 205.672 420.28V420.28L164.304 461.644C162.772 463.083 160.749 463.883 158.648 463.883C156.547 463.883 154.524 463.083 152.992 461.644V461.644ZM188.304 485.643C186.772 487.081 184.749 487.881 182.648 487.881C180.547 487.881 178.524 487.081 176.992 485.643L175.616 484.267C174.116 482.767 173.274 480.732 173.274 478.611C173.274 476.49 174.116 474.456 175.616 472.956L216.96 431.623C218.49 430.181 220.513 429.378 222.616 429.378C224.719 429.378 226.742 430.181 228.272 431.623L229.648 433.007C231.143 434.506 231.982 436.537 231.982 438.654C231.982 440.771 231.143 442.802 229.648 444.302V444.302L204.304 469.644L188.304 485.643ZM228.304 493.642C226.772 495.08 224.749 495.881 222.648 495.881C220.547 495.881 218.524 495.08 216.992 493.642L215.616 492.266C214.116 490.766 213.274 488.732 213.274 486.611C213.274 484.489 214.116 482.455 215.616 480.955L240.96 455.621C242.49 454.179 244.513 453.376 246.616 453.376C248.719 453.376 250.742 454.179 252.272 455.621L253.648 457.005C255.145 458.505 255.986 460.537 255.986 462.656C255.986 464.776 255.145 466.808 253.648 468.308L228.304 493.642ZM383.032 436.27L381.656 437.646C380.124 439.084 378.101 439.885 376 439.885C373.899 439.885 371.876 439.084 370.344 437.646C369.606 436.882 368.723 436.273 367.747 435.854C366.771 435.434 365.721 435.214 364.659 435.205C363.597 435.195 362.544 435.398 361.56 435.8C360.577 436.202 359.684 436.796 358.933 437.547C358.182 438.298 357.588 439.191 357.185 440.175C356.783 441.158 356.581 442.211 356.59 443.273C356.599 444.335 356.82 445.385 357.239 446.361C357.658 447.337 358.268 448.22 359.032 448.957C360.518 450.465 361.351 452.496 361.351 454.613C361.351 456.73 360.518 458.761 359.032 460.269L357.656 461.644C356.124 463.083 354.101 463.883 352 463.883C349.899 463.883 347.876 463.083 346.344 461.644C345.606 460.88 344.723 460.271 343.747 459.852C342.771 459.433 341.721 459.212 340.659 459.203C339.597 459.193 338.544 459.396 337.56 459.798C336.577 460.2 335.684 460.794 334.933 461.545C334.182 462.296 333.588 463.19 333.185 464.173C332.783 465.156 332.581 466.209 332.59 467.271C332.599 468.333 332.82 469.383 333.239 470.359C333.658 471.335 334.268 472.218 335.032 472.956C336.532 474.456 337.374 476.49 337.374 478.611C337.374 480.732 336.532 482.767 335.032 484.267L333.656 485.643C332.124 487.081 330.101 487.881 328 487.881C325.899 487.881 323.876 487.081 322.344 485.643L306.344 469.644C305.606 468.88 304.723 468.27 303.747 467.851C302.771 467.432 301.721 467.211 300.659 467.202C299.597 467.193 298.544 467.395 297.56 467.797C296.577 468.2 295.684 468.794 294.933 469.545C294.182 470.296 293.588 471.189 293.185 472.172C292.783 473.155 292.581 474.208 292.59 475.271C292.599 476.333 292.82 477.382 293.239 478.358C293.658 479.334 294.268 480.217 295.032 480.955C296.532 482.455 297.374 484.489 297.374 486.611C297.374 488.732 296.532 490.766 295.032 492.266L293.656 493.642C292.124 495.08 290.101 495.881 288 495.881C285.899 495.881 283.876 495.08 282.344 493.642L266.56 477.859C266.848 477.507 267.056 477.123 267.32 476.763C267.688 476.259 268.04 475.771 268.36 475.251C268.826 474.476 269.248 473.675 269.624 472.852C269.872 472.34 270.136 471.828 270.344 471.3C270.683 470.374 270.966 469.428 271.192 468.468C271.312 467.996 271.48 467.54 271.56 467.068C271.842 465.605 271.989 464.119 272 462.628C272.012 459.477 271.398 456.354 270.194 453.442C268.989 450.529 267.218 447.885 264.984 445.662L263.608 444.278C259.446 440.107 253.885 437.627 248 437.318C247.702 431.414 245.215 425.833 241.024 421.664L239.648 420.28C235.476 416.099 229.899 413.619 224 413.32C223.702 407.416 221.215 401.835 217.024 397.665L215.648 396.29C211.478 392.104 205.9 389.621 200 389.322C199.687 383.42 197.199 377.843 193.016 373.667L191.64 372.291C187.061 367.943 180.987 365.519 174.672 365.519C168.357 365.519 162.283 367.943 157.704 372.291L121.984 407.969H96V287.978H208V295.977C208 302.342 210.529 308.446 215.029 312.947C219.53 317.447 225.635 319.975 232 319.975H284.528L378.344 420.272L383.032 424.959C384.518 426.467 385.351 428.498 385.351 430.615C385.351 432.732 384.518 434.763 383.032 436.27V436.27ZM389.016 407.969L297.272 310.168L293.84 306.505C293.091 305.706 292.187 305.07 291.182 304.635C290.178 304.2 289.095 303.976 288 303.977H232C229.878 303.977 227.843 303.134 226.343 301.634C224.843 300.134 224 298.099 224 295.977V279.979C224 277.857 224.843 275.822 226.343 274.322C227.843 272.822 229.878 271.979 232 271.979H324.296C329.914 271.989 335.467 273.183 340.593 275.482C345.72 277.781 350.304 281.134 354.048 285.322C354.798 286.158 355.716 286.826 356.741 287.284C357.767 287.741 358.877 287.978 360 287.978H416V407.969H389.016ZM496 423.967H432V271.979H456V362.468C456 364.59 456.843 366.624 458.343 368.125C459.843 369.625 461.878 370.468 464 370.468C466.122 370.468 468.157 369.625 469.657 368.125C471.157 366.624 472 364.59 472 362.468V271.979H496V423.967Z" fill="black"/>
<path d="M458.319 386.284C457.207 387.406 456.451 388.831 456.148 390.381C455.845 391.931 456.007 393.536 456.614 394.994C457.222 396.452 458.247 397.697 459.561 398.573C460.875 399.449 462.42 399.917 463.999 399.917C465.578 399.917 467.123 399.449 468.437 398.573C469.751 397.697 470.776 396.452 471.384 394.994C471.991 393.536 472.153 391.931 471.85 390.381C471.547 388.831 470.791 387.406 469.679 386.284C468.134 384.853 466.105 384.059 463.999 384.059C461.893 384.059 459.864 384.853 458.319 386.284V386.284Z" fill="black"/>
<path d="M42.3204 298.298C40.8331 299.814 40 301.854 40 303.978C40 306.102 40.8331 308.141 42.3204 309.657C43.8535 311.119 45.8823 311.948 48.0004 311.977C50.1208 311.959 52.1536 311.129 53.6804 309.657C55.141 308.123 55.9694 306.095 56.0004 303.978C55.9879 301.856 55.1568 299.822 53.6804 298.298C52.1334 296.871 50.1055 296.078 48.0004 296.078C45.8954 296.078 43.8675 296.871 42.3204 298.298V298.298Z" fill="black"/>
<path d="M216 111.991H296C302.365 111.991 308.47 109.463 312.971 104.962C317.471 100.462 320 94.3579 320 87.9932V23.9981C320 17.6334 317.471 11.5294 312.971 7.02889C308.47 2.52837 302.365 0 296 0L216 0C209.635 0 203.53 2.52837 199.029 7.02889C194.529 11.5294 192 17.6334 192 23.9981V87.9932C192 94.3579 194.529 100.462 199.029 104.962C203.53 109.463 209.635 111.991 216 111.991V111.991ZM245.936 48.6522C246.543 48.2328 247.262 48.0044 248 47.9963C248.987 48.0068 249.935 48.3863 250.656 49.0602C252.124 50.3779 254.027 51.1067 256 51.1067C257.973 51.1067 259.876 50.3779 261.344 49.0602C262.065 48.3863 263.013 48.0068 264 47.9963C264.738 48.0068 265.456 48.235 266.064 48.6522L266.352 48.8442C266.836 49.2184 267.237 49.6898 267.528 50.2281V50.2281C267.82 50.773 267.981 51.3781 268 51.996C267.928 53.0284 267.553 54.0166 266.92 54.8357C266.848 54.9397 266.744 55.0437 266.664 55.1477C266.02 55.9937 265.294 56.7735 264.496 57.4755C261.92 59.7365 259.064 61.6587 256 63.1951C250.28 60.2833 244 55.4517 244 51.996C244.013 51.387 244.169 50.7896 244.456 50.2521C244.747 49.7138 245.148 49.2424 245.632 48.8682L245.936 48.6522ZM304 87.9932C304 90.1147 303.157 92.1494 301.657 93.6496C300.157 95.1497 298.122 95.9925 296 95.9925H216C213.878 95.9925 211.843 95.1497 210.343 93.6496C208.843 92.1494 208 90.1147 208 87.9932V38.213L228.064 50.3961C228.064 50.924 228 51.46 228 51.996C228 68.9226 250.472 78.3939 253.032 79.4258C254.937 80.187 257.063 80.187 258.968 79.4258C261.528 78.3939 284 68.9226 284 51.996C284 51.46 284 50.924 283.936 50.3961L304 38.213V87.9932ZM216 15.9988H296C297.426 15.9987 298.826 16.3799 300.056 17.1028C301.285 17.8257 302.299 18.8641 302.992 20.1104L276.352 36.2852C276.152 36.1332 275.92 36.0132 275.72 35.8612C275.312 35.5652 274.92 35.2933 274.464 35.0613C273.84 34.6746 273.193 34.3247 272.528 34.0134C272.112 33.8134 271.688 33.6054 271.248 33.4374C270.486 33.1456 269.705 32.9024 268.912 32.7095C268.512 32.6055 268.112 32.4855 267.736 32.4055C266.506 32.1564 265.255 32.0198 264 31.9975C261.244 31.9969 258.519 32.5747 256 33.6934C254.424 33.0235 252.767 32.561 251.072 32.3175L250.328 32.2375C248.745 31.9089 247.111 31.9089 245.528 32.2375H245.288C241.933 32.6854 238.749 33.9853 236.04 36.0132C235.912 36.1092 235.752 36.1492 235.624 36.2532L208.984 20.0784C209.683 18.8345 210.703 17.8002 211.936 17.0829C213.17 16.3656 214.573 15.9912 216 15.9988V15.9988Z" fill="black"/>
<path d="M48 118.516V167.992C48 170.113 48.8429 172.148 50.3431 173.648C51.8434 175.149 53.8783 175.991 56 175.991C58.1217 175.991 60.1566 175.149 61.6569 173.648C63.1571 172.148 64 170.113 64 167.992V118.516C68.662 116.868 72.7011 113.82 75.565 109.789C78.4289 105.759 79.9779 100.942 80 95.9975C80 83.2545 70.4 64 56 64C41.6 64 32 83.2545 32 95.9975C32.0221 100.942 33.5711 105.759 36.435 109.789C39.2989 113.82 43.338 116.868 48 118.516V118.516ZM56 79.9988C58.584 80.3507 64 89.438 64 95.9975C64 98.1191 63.1571 100.154 61.6569 101.654C60.1566 103.154 58.1217 103.997 56 103.997C53.8783 103.997 51.8434 103.154 50.3431 101.654C48.8429 100.154 48 98.1191 48 95.9975C48 89.438 53.44 80.3507 56 79.9988Z" fill="black"/>
<path d="M96 175.991C98.1217 175.991 100.157 175.149 101.657 173.648C103.157 172.148 104 170.113 104 167.992V143.994H120C122.122 143.994 124.157 143.151 125.657 141.651C127.157 140.151 128 138.116 128 135.994V95.9975C128 87.5112 124.629 79.3726 118.627 73.3719C112.626 67.3712 104.487 64 96 64C93.8783 64 91.8434 64.8428 90.3431 66.343C88.8429 67.8431 88 69.8778 88 71.9994V167.992C88 170.113 88.8429 172.148 90.3431 173.648C91.8434 175.149 93.8783 175.991 96 175.991ZM112 95.9975V127.995H104V82.1506C106.431 83.5541 108.45 85.5724 109.854 88.0029C111.259 90.4334 111.999 93.1906 112 95.9975Z" fill="black"/>
<path d="M408.003 175.991H472.003C474.124 175.991 476.159 175.149 477.659 173.648C479.16 172.148 480.003 170.113 480.003 167.992C480.341 151.684 475.939 135.627 467.331 121.772C471.199 118.663 474.338 114.744 476.527 110.291C478.717 105.838 479.903 100.959 480.003 95.9975C479.98 91.0532 478.431 86.2364 475.568 82.2057C472.704 78.1751 468.665 75.1273 464.003 73.4793V71.9994C464.003 69.8778 463.16 67.8431 461.659 66.343C460.159 64.8428 458.124 64 456.003 64C453.881 64 451.846 64.8428 450.346 66.343C448.845 67.8431 448.003 69.8778 448.003 71.9994V73.4473C445.162 74.4276 442.47 75.795 440.003 77.511C437.535 75.7963 434.843 74.429 432.003 73.4473V71.9994C432.003 69.8778 431.16 67.8431 429.659 66.343C428.159 64.8428 426.124 64 424.003 64C421.881 64 419.846 64.8428 418.346 66.343C416.845 67.8431 416.003 69.8778 416.003 71.9994V73.4793C411.341 75.1273 407.301 78.1751 404.438 82.2057C401.574 86.2364 400.025 91.0532 400.003 95.9975C400.102 100.959 401.288 105.838 403.478 110.291C405.667 114.744 408.807 118.663 412.675 121.772C404.066 135.627 399.664 151.684 400.003 167.992C400.003 170.113 400.845 172.148 402.346 173.648C403.846 175.149 405.881 175.991 408.003 175.991ZM416.379 159.993C417.184 148.493 421.109 137.431 427.731 127.995H452.275C458.898 137.43 462.823 148.493 463.627 159.993H416.379ZM424.003 87.9981C427.864 88.566 431.411 90.4509 434.043 93.3337C434.813 94.1375 435.738 94.7772 436.763 95.2142C437.787 95.6511 438.889 95.8764 440.003 95.8764C441.116 95.8764 442.218 95.6511 443.242 95.2142C444.267 94.7772 445.192 94.1375 445.963 93.3337C448.587 90.4424 452.137 88.5558 456.003 87.9981C458.124 87.9981 460.159 88.8409 461.659 90.3411C463.16 91.8413 464.003 93.8759 464.003 95.9975C463.714 99.2859 462.638 102.457 460.866 105.241C459.093 108.026 456.676 110.343 453.819 111.996H426.179C423.324 110.341 420.909 108.023 419.138 105.239C417.367 102.454 416.291 99.2848 416.003 95.9975C416.003 93.8759 416.845 91.8413 418.346 90.3411C419.846 88.8409 421.881 87.9981 424.003 87.9981Z" fill="black"/>
<path d="M248 143.98V215.974C248 218.096 248.843 220.131 250.343 221.631C251.843 223.131 253.878 223.974 256 223.974C258.122 223.974 260.157 223.131 261.657 221.631C263.157 220.131 264 218.096 264 215.974V143.98C264 141.858 263.157 139.824 261.657 138.323C260.157 136.823 258.122 135.98 256 135.98C253.878 135.98 251.843 136.823 250.343 138.323C248.843 139.824 248 141.858 248 143.98Z" fill="black"/>
<path d="M314.342 221.632C315.843 223.132 317.877 223.974 319.998 223.974C322.12 223.974 324.154 223.132 325.654 221.632L357.654 189.635C359.112 188.126 359.918 186.105 359.9 184.008C359.881 181.911 359.04 179.904 357.557 178.421C356.074 176.938 354.067 176.097 351.97 176.078C349.872 176.06 347.851 176.866 346.342 178.324L314.342 210.321C312.843 211.821 312 213.856 312 215.977C312 218.098 312.843 220.132 314.342 221.632V221.632Z" fill="black"/>
<path d="M186.347 221.632C187.856 223.089 189.877 223.896 191.974 223.878C194.072 223.859 196.079 223.018 197.562 221.535C199.045 220.052 199.886 218.045 199.905 215.948C199.923 213.851 199.117 211.83 197.659 210.321L165.659 178.324C164.15 176.866 162.13 176.06 160.032 176.078C157.934 176.097 155.928 176.938 154.445 178.421C152.961 179.904 152.12 181.911 152.102 184.008C152.084 186.105 152.89 188.126 154.347 189.635L186.347 221.632Z" fill="black"/>
</svg>
