<svg width="19" height="19" viewBox="0 0 19 19" fill="none" xmlns="http://www.w3.org/2000/svg">
<mask id="path-1-outside-1" maskUnits="userSpaceOnUse" x="0" y="0" width="19" height="19" fill="black">
<rect fill="white" width="19" height="19"/>
<path d="M17.7198 15.1386C17.5651 15.1386 17.4396 15.2516 17.4396 15.3911V17.495H1.5605V16.99H14.7303C14.7397 16.99 14.7491 16.9896 14.7583 16.9887C14.7654 16.9881 14.7723 16.987 14.7793 16.9859L14.7856 16.985C14.7937 16.9836 14.8017 16.9817 14.8096 16.9796L14.8121 16.979C14.8202 16.9768 14.828 16.9742 14.8358 16.9714L14.8379 16.9707C14.8454 16.9679 14.8527 16.9647 14.8598 16.9613L14.8627 16.9601C14.8694 16.9569 14.8759 16.9532 14.8822 16.9496L14.8863 16.9474C14.8925 16.9436 14.8985 16.9395 14.9043 16.9353L14.9083 16.9326C14.9154 16.9273 14.9222 16.9218 14.9286 16.916L17.8802 14.2512C17.9526 14.2056 18 14.13 18 14.0444L17.9998 14.0416L18 14.0387V5.9648V3.60877C18 2.91267 17.3715 2.34639 16.5989 2.34639H15.3844V1.75743C15.3844 1.33977 15.0074 1 14.5438 1C14.0803 1 13.7032 1.33977 13.7032 1.75743V2.34639H12.0219V1.75743C12.0219 1.33977 11.6448 1 11.1812 1C10.7177 1 10.3406 1.33977 10.3406 1.75743V2.34639H8.65923V1.75743C8.65927 1.33977 8.28218 1 7.81863 1C7.35509 1 6.97799 1.33977 6.97799 1.75743V2.34639H5.29664V1.75743C5.29664 1.33977 4.91955 1 4.45601 1C3.99246 1 3.61537 1.33977 3.61537 1.75743V2.34639H2.40106C1.62849 2.34639 1 2.91267 1 3.60877V5.9648L1.00007 5.96609V16.7375V17.7475C1.00007 17.8869 1.12555 18 1.28029 18H17.7198C17.8745 18 18 17.8869 18 17.7475V15.3911C18 15.2516 17.8746 15.1386 17.7198 15.1386ZM15.0106 16.1272V14.2969H17.0379L15.0106 16.1272ZM14.2636 2.60278L14.2639 2.59886L14.2636 2.59495V1.75743C14.2636 1.61821 14.3893 1.50495 14.5438 1.50495C14.6984 1.50495 14.8241 1.61821 14.8241 1.75743V3.4405C14.8241 3.57972 14.6984 3.69297 14.5438 3.69297C14.3893 3.69297 14.2636 3.57972 14.2636 3.4405V2.60278ZM10.901 2.60082L10.9011 2.59886L10.901 2.5969V1.75743C10.901 1.61821 11.0267 1.50495 11.1812 1.50495C11.3357 1.50495 11.4614 1.61821 11.4614 1.75743V3.4405C11.4614 3.57972 11.3357 3.69297 11.1812 3.69297C11.0267 3.69297 10.901 3.57972 10.901 3.4405V2.60082ZM7.53842 1.75743C7.53842 1.61821 7.66412 1.50495 7.81863 1.50495C7.97315 1.50495 8.09884 1.61821 8.09884 1.75743V3.4405C8.09884 3.57972 7.97315 3.69297 7.81863 3.69297C7.66412 3.69297 7.53842 3.57972 7.53842 3.4405V1.75743ZM4.17579 2.59956V2.59823V1.75743C4.17579 1.61821 4.30149 1.50495 4.45601 1.50495C4.61052 1.50495 4.73622 1.61821 4.73622 1.75743V3.4405C4.73622 3.57972 4.61052 3.69297 4.45601 3.69297C4.30149 3.69297 4.17579 3.57972 4.17579 3.4405V2.59956ZM1.56043 3.60877C1.56043 3.19111 1.93752 2.85134 2.40106 2.85134H3.61537V3.4405C3.61537 3.85816 3.99246 4.19793 4.45601 4.19793C4.91955 4.19793 5.29664 3.85816 5.29664 3.4405V2.85134H6.97799V3.4405C6.97799 3.85816 7.35509 4.19793 7.81863 4.19793C8.28218 4.19793 8.65927 3.85816 8.65927 3.4405V2.85134H10.3406V3.4405C10.3406 3.85816 10.7177 4.19793 11.1813 4.19793C11.6448 4.19793 12.0219 3.85816 12.0219 3.4405V2.85134H13.7032V3.4405C13.7032 3.85816 14.0803 4.19793 14.5439 4.19793C15.0074 4.19793 15.3845 3.85816 15.3845 3.4405V2.85134H16.599C17.0626 2.85134 17.4397 3.19111 17.4397 3.60877V5.71232H2.40117C2.24644 5.71232 2.12096 5.82538 2.12096 5.9648C2.12096 6.10422 2.24644 6.21727 2.40117 6.21727H17.4396V13.7919H14.7304C14.5756 13.7919 14.4502 13.905 14.4502 14.0444V16.485H1.5605V5.9648L1.56043 5.9635V3.60877Z"/>
</mask>
<path d="M17.7198 15.1386C17.5651 15.1386 17.4396 15.2516 17.4396 15.3911V17.495H1.5605V16.99H14.7303C14.7397 16.99 14.7491 16.9896 14.7583 16.9887C14.7654 16.9881 14.7723 16.987 14.7793 16.9859L14.7856 16.985C14.7937 16.9836 14.8017 16.9817 14.8096 16.9796L14.8121 16.979C14.8202 16.9768 14.828 16.9742 14.8358 16.9714L14.8379 16.9707C14.8454 16.9679 14.8527 16.9647 14.8598 16.9613L14.8627 16.9601C14.8694 16.9569 14.8759 16.9532 14.8822 16.9496L14.8863 16.9474C14.8925 16.9436 14.8985 16.9395 14.9043 16.9353L14.9083 16.9326C14.9154 16.9273 14.9222 16.9218 14.9286 16.916L17.8802 14.2512C17.9526 14.2056 18 14.13 18 14.0444L17.9998 14.0416L18 14.0387V5.9648V3.60877C18 2.91267 17.3715 2.34639 16.5989 2.34639H15.3844V1.75743C15.3844 1.33977 15.0074 1 14.5438 1C14.0803 1 13.7032 1.33977 13.7032 1.75743V2.34639H12.0219V1.75743C12.0219 1.33977 11.6448 1 11.1812 1C10.7177 1 10.3406 1.33977 10.3406 1.75743V2.34639H8.65923V1.75743C8.65927 1.33977 8.28218 1 7.81863 1C7.35509 1 6.97799 1.33977 6.97799 1.75743V2.34639H5.29664V1.75743C5.29664 1.33977 4.91955 1 4.45601 1C3.99246 1 3.61537 1.33977 3.61537 1.75743V2.34639H2.40106C1.62849 2.34639 1 2.91267 1 3.60877V5.9648L1.00007 5.96609V16.7375V17.7475C1.00007 17.8869 1.12555 18 1.28029 18H17.7198C17.8745 18 18 17.8869 18 17.7475V15.3911C18 15.2516 17.8746 15.1386 17.7198 15.1386ZM15.0106 16.1272V14.2969H17.0379L15.0106 16.1272ZM14.2636 2.60278L14.2639 2.59886L14.2636 2.59495V1.75743C14.2636 1.61821 14.3893 1.50495 14.5438 1.50495C14.6984 1.50495 14.8241 1.61821 14.8241 1.75743V3.4405C14.8241 3.57972 14.6984 3.69297 14.5438 3.69297C14.3893 3.69297 14.2636 3.57972 14.2636 3.4405V2.60278ZM10.901 2.60082L10.9011 2.59886L10.901 2.5969V1.75743C10.901 1.61821 11.0267 1.50495 11.1812 1.50495C11.3357 1.50495 11.4614 1.61821 11.4614 1.75743V3.4405C11.4614 3.57972 11.3357 3.69297 11.1812 3.69297C11.0267 3.69297 10.901 3.57972 10.901 3.4405V2.60082ZM7.53842 1.75743C7.53842 1.61821 7.66412 1.50495 7.81863 1.50495C7.97315 1.50495 8.09884 1.61821 8.09884 1.75743V3.4405C8.09884 3.57972 7.97315 3.69297 7.81863 3.69297C7.66412 3.69297 7.53842 3.57972 7.53842 3.4405V1.75743ZM4.17579 2.59956V2.59823V1.75743C4.17579 1.61821 4.30149 1.50495 4.45601 1.50495C4.61052 1.50495 4.73622 1.61821 4.73622 1.75743V3.4405C4.73622 3.57972 4.61052 3.69297 4.45601 3.69297C4.30149 3.69297 4.17579 3.57972 4.17579 3.4405V2.59956ZM1.56043 3.60877C1.56043 3.19111 1.93752 2.85134 2.40106 2.85134H3.61537V3.4405C3.61537 3.85816 3.99246 4.19793 4.45601 4.19793C4.91955 4.19793 5.29664 3.85816 5.29664 3.4405V2.85134H6.97799V3.4405C6.97799 3.85816 7.35509 4.19793 7.81863 4.19793C8.28218 4.19793 8.65927 3.85816 8.65927 3.4405V2.85134H10.3406V3.4405C10.3406 3.85816 10.7177 4.19793 11.1813 4.19793C11.6448 4.19793 12.0219 3.85816 12.0219 3.4405V2.85134H13.7032V3.4405C13.7032 3.85816 14.0803 4.19793 14.5439 4.19793C15.0074 4.19793 15.3845 3.85816 15.3845 3.4405V2.85134H16.599C17.0626 2.85134 17.4397 3.19111 17.4397 3.60877V5.71232H2.40117C2.24644 5.71232 2.12096 5.82538 2.12096 5.9648C2.12096 6.10422 2.24644 6.21727 2.40117 6.21727H17.4396V13.7919H14.7304C14.5756 13.7919 14.4502 13.905 14.4502 14.0444V16.485H1.5605V5.9648L1.56043 5.9635V3.60877Z" fill="#F3B95A"/>
<path d="M17.7198 15.1386C17.5651 15.1386 17.4396 15.2516 17.4396 15.3911V17.495H1.5605V16.99H14.7303C14.7397 16.99 14.7491 16.9896 14.7583 16.9887C14.7654 16.9881 14.7723 16.987 14.7793 16.9859L14.7856 16.985C14.7937 16.9836 14.8017 16.9817 14.8096 16.9796L14.8121 16.979C14.8202 16.9768 14.828 16.9742 14.8358 16.9714L14.8379 16.9707C14.8454 16.9679 14.8527 16.9647 14.8598 16.9613L14.8627 16.9601C14.8694 16.9569 14.8759 16.9532 14.8822 16.9496L14.8863 16.9474C14.8925 16.9436 14.8985 16.9395 14.9043 16.9353L14.9083 16.9326C14.9154 16.9273 14.9222 16.9218 14.9286 16.916L17.8802 14.2512C17.9526 14.2056 18 14.13 18 14.0444L17.9998 14.0416L18 14.0387V5.9648V3.60877C18 2.91267 17.3715 2.34639 16.5989 2.34639H15.3844V1.75743C15.3844 1.33977 15.0074 1 14.5438 1C14.0803 1 13.7032 1.33977 13.7032 1.75743V2.34639H12.0219V1.75743C12.0219 1.33977 11.6448 1 11.1812 1C10.7177 1 10.3406 1.33977 10.3406 1.75743V2.34639H8.65923V1.75743C8.65927 1.33977 8.28218 1 7.81863 1C7.35509 1 6.97799 1.33977 6.97799 1.75743V2.34639H5.29664V1.75743C5.29664 1.33977 4.91955 1 4.45601 1C3.99246 1 3.61537 1.33977 3.61537 1.75743V2.34639H2.40106C1.62849 2.34639 1 2.91267 1 3.60877V5.9648L1.00007 5.96609V16.7375V17.7475C1.00007 17.8869 1.12555 18 1.28029 18H17.7198C17.8745 18 18 17.8869 18 17.7475V15.3911C18 15.2516 17.8746 15.1386 17.7198 15.1386ZM15.0106 16.1272V14.2969H17.0379L15.0106 16.1272ZM14.2636 2.60278L14.2639 2.59886L14.2636 2.59495V1.75743C14.2636 1.61821 14.3893 1.50495 14.5438 1.50495C14.6984 1.50495 14.8241 1.61821 14.8241 1.75743V3.4405C14.8241 3.57972 14.6984 3.69297 14.5438 3.69297C14.3893 3.69297 14.2636 3.57972 14.2636 3.4405V2.60278ZM10.901 2.60082L10.9011 2.59886L10.901 2.5969V1.75743C10.901 1.61821 11.0267 1.50495 11.1812 1.50495C11.3357 1.50495 11.4614 1.61821 11.4614 1.75743V3.4405C11.4614 3.57972 11.3357 3.69297 11.1812 3.69297C11.0267 3.69297 10.901 3.57972 10.901 3.4405V2.60082ZM7.53842 1.75743C7.53842 1.61821 7.66412 1.50495 7.81863 1.50495C7.97315 1.50495 8.09884 1.61821 8.09884 1.75743V3.4405C8.09884 3.57972 7.97315 3.69297 7.81863 3.69297C7.66412 3.69297 7.53842 3.57972 7.53842 3.4405V1.75743ZM4.17579 2.59956V2.59823V1.75743C4.17579 1.61821 4.30149 1.50495 4.45601 1.50495C4.61052 1.50495 4.73622 1.61821 4.73622 1.75743V3.4405C4.73622 3.57972 4.61052 3.69297 4.45601 3.69297C4.30149 3.69297 4.17579 3.57972 4.17579 3.4405V2.59956ZM1.56043 3.60877C1.56043 3.19111 1.93752 2.85134 2.40106 2.85134H3.61537V3.4405C3.61537 3.85816 3.99246 4.19793 4.45601 4.19793C4.91955 4.19793 5.29664 3.85816 5.29664 3.4405V2.85134H6.97799V3.4405C6.97799 3.85816 7.35509 4.19793 7.81863 4.19793C8.28218 4.19793 8.65927 3.85816 8.65927 3.4405V2.85134H10.3406V3.4405C10.3406 3.85816 10.7177 4.19793 11.1813 4.19793C11.6448 4.19793 12.0219 3.85816 12.0219 3.4405V2.85134H13.7032V3.4405C13.7032 3.85816 14.0803 4.19793 14.5439 4.19793C15.0074 4.19793 15.3845 3.85816 15.3845 3.4405V2.85134H16.599C17.0626 2.85134 17.4397 3.19111 17.4397 3.60877V5.71232H2.40117C2.24644 5.71232 2.12096 5.82538 2.12096 5.9648C2.12096 6.10422 2.24644 6.21727 2.40117 6.21727H17.4396V13.7919H14.7304C14.5756 13.7919 14.4502 13.905 14.4502 14.0444V16.485H1.5605V5.9648L1.56043 5.9635V3.60877Z" stroke="#F3B95A" stroke-width="0.2" mask="url(#path-1-outside-1)"/>
<path d="M5.69289 8.37679L5.69289 8.37679C6.23574 7.88771 6.95632 7.61934 7.72094 7.61934C8.37411 7.61934 8.99505 7.81509 9.50061 8.17709C10.0062 7.81509 10.6272 7.61934 11.2803 7.61934C12.0449 7.61934 12.7655 7.88767 13.3083 8.37679C13.8514 8.86607 14.1524 9.5188 14.1524 10.2146C14.1524 10.9103 13.8514 11.563 13.3083 12.0524L9.74892 15.2594C9.68185 15.3198 9.59241 15.3526 9.50057 15.3526C9.40882 15.3526 9.31933 15.3199 9.25226 15.2594L5.69289 8.37679ZM5.69289 8.37679C5.14982 8.8661 4.84883 9.51883 4.84883 10.2146C4.84883 10.9103 5.14978 11.563 5.69289 12.0524L9.25222 15.2594L5.69289 8.37679ZM9.2523 8.84526C9.31937 8.90578 9.40888 8.93852 9.50065 8.93852C9.59249 8.93852 9.68192 8.90573 9.749 8.84529C10.157 8.47773 10.7004 8.27429 11.2804 8.27429C11.8603 8.27429 12.4038 8.4777 12.8117 8.84529L12.8117 8.8453C13.2195 9.21259 13.4421 9.69879 13.4421 10.2146C13.442 10.7303 13.2194 11.2165 12.8117 11.5838L12.8607 11.6383L12.8117 11.5838L9.50065 14.5672L6.18966 11.5838L6.13946 11.6396L6.18966 11.5838C5.78199 11.2165 5.55936 10.7303 5.55936 10.2146V10.2145C5.55933 9.69883 5.78195 9.21262 6.18963 8.84529L6.18963 8.84529C6.59756 8.4777 7.14103 8.27429 7.72098 8.27429C8.30091 8.27429 8.84437 8.47769 9.2523 8.84526ZM9.2523 8.84526L9.30254 8.78957M9.2523 8.84526C9.25231 8.84527 9.25232 8.84528 9.25233 8.84529L9.30254 8.78957M9.30254 8.78957C9.35505 8.83696 9.42636 8.86352 9.50065 8.86352C9.57498 8.86352 9.64624 8.83692 9.69879 8.78957C10.1213 8.40893 10.6829 8.19929 11.2804 8.19929L9.30254 8.78957Z" fill="#F3B95A" stroke="#F3B95A" stroke-width="0.15"/>
</svg>
