<svg width="17" height="21" viewBox="0 0 17 21" fill="none" xmlns="http://www.w3.org/2000/svg">
<path d="M16.2222 20.2778V3.47619C16.2222 3.31397 16.1527 3.17492 16.06 3.05905L13.1632 0.162222C13.0473 0.0695238 12.9083 0 12.746 0H0.579365C0.254921 0 0 0.254921 0 0.579365V20.2778C0 20.6022 0.254921 20.8571 0.579365 20.8571H15.6429C15.9673 20.8571 16.2222 20.6022 16.2222 20.2778ZM12.746 1.39048L14.8317 3.47619H12.746V1.39048ZM15.0635 19.6984H1.15873V1.15873H11.5873V4.05556C11.5873 4.38 11.8422 4.63492 12.1667 4.63492H15.0635V19.6984Z" fill="#F3B95A"/>
<path d="M12.167 9.27051H4.05593C3.73148 9.27051 3.47656 9.52543 3.47656 9.84987C3.47656 10.1743 3.73148 10.4292 4.05593 10.4292H12.167C12.4915 10.4292 12.7464 10.1743 12.7464 9.84987C12.7464 9.52543 12.4915 9.27051 12.167 9.27051Z" fill="#F3B95A"/>
<path d="M4.05593 6.95215C3.73148 6.95215 3.47656 7.20707 3.47656 7.53151C3.47656 7.85596 3.73148 8.11088 4.05593 8.11088H12.167C12.4915 8.11088 12.7464 7.85596 12.7464 7.53151C12.7464 7.20707 12.4915 6.95215 12.167 6.95215H4.05593Z" fill="#F3B95A"/>
<path d="M12.167 11.5879H4.05593C3.73148 11.5879 3.47656 11.8428 3.47656 12.1673C3.47656 12.4917 3.73148 12.7466 4.05593 12.7466H12.167C12.4915 12.7466 12.7464 12.4917 12.7464 12.1673C12.7464 11.8428 12.4915 11.5879 12.167 11.5879Z" fill="#F3B95A"/>
<path d="M12.167 13.9043H4.05593C3.73148 13.9043 3.47656 14.1592 3.47656 14.4837C3.47656 14.8081 3.73148 15.063 4.05593 15.063H12.167C12.4915 15.063 12.7464 14.8081 12.7464 14.4837C12.7464 14.1592 12.4915 13.9043 12.167 13.9043Z" fill="#F3B95A"/>
<path d="M12.167 16.2227H4.05593C3.73148 16.2227 3.47656 16.4776 3.47656 16.802C3.47656 17.1265 3.73148 17.3814 4.05593 17.3814H12.167C12.4915 17.3814 12.7464 17.1265 12.7464 16.802C12.7464 16.4776 12.4915 16.2227 12.167 16.2227Z" fill="#F3B95A"/>
</svg>
