<svg width="17" height="20" viewBox="0 0 17 20" fill="none" xmlns="http://www.w3.org/2000/svg">
<path d="M11.7291 12.7797C13.7873 9.54992 13.5286 9.95286 13.5879 9.86865C14.3373 8.8117 14.7333 7.56772 14.7333 6.27111C14.7333 2.83258 11.943 0 8.5 0C5.06819 0 2.26667 2.82699 2.26667 6.27111C2.26667 7.56689 2.67104 8.84344 3.44496 9.91463L5.27083 12.7797C3.31866 13.0797 0 13.9737 0 15.9422C0 16.6598 0.468369 17.6825 2.69968 18.4793C4.25771 19.0358 6.31762 19.3422 8.5 19.3422C12.5809 19.3422 17 18.1911 17 15.9422C17 13.9734 13.6852 13.0803 11.7291 12.7797ZM4.39163 9.29126C4.3854 9.28151 4.3789 9.27199 4.3721 9.26262C3.7281 8.37666 3.4 7.32666 3.4 6.27111C3.4 3.4371 5.682 1.13333 8.5 1.13333C11.3121 1.13333 13.6 3.43812 13.6 6.27111C13.6 7.32836 13.2781 8.34273 12.6689 9.20535C12.6143 9.27735 12.8991 8.8349 8.5 15.7378L4.39163 9.29126ZM8.5 18.2089C4.04245 18.2089 1.13333 16.8986 1.13333 15.9422C1.13333 15.2994 2.62812 14.2424 5.94048 13.8304L8.02211 17.0968C8.12615 17.2601 8.30635 17.3589 8.49996 17.3589C8.69357 17.3589 8.87381 17.26 8.97781 17.0968L11.0594 13.8304C14.3718 14.2424 15.8667 15.2994 15.8667 15.9422C15.8667 16.8905 12.9837 18.2089 8.5 18.2089Z" fill="#F3B95A"/>
<path d="M8.49935 3.43848C6.93705 3.43848 5.66602 4.70951 5.66602 6.27181C5.66602 7.83411 6.93705 9.10514 8.49935 9.10514C10.0616 9.10514 11.3327 7.83411 11.3327 6.27181C11.3327 4.70951 10.0616 3.43848 8.49935 3.43848ZM8.49935 7.97181C7.56197 7.97181 6.79935 7.20919 6.79935 6.27181C6.79935 5.33443 7.56197 4.57181 8.49935 4.57181C9.43673 4.57181 10.1993 5.33443 10.1993 6.27181C10.1993 7.20919 9.43673 7.97181 8.49935 7.97181Z" fill="#F3B95A"/>
</svg>
