<svg width="17" height="17" viewBox="0 0 17 17" fill="none" xmlns="http://www.w3.org/2000/svg">
<path d="M11.5289 10.0007L9.15863 8.22298V4.60178C9.15863 4.23767 8.86432 3.94336 8.50021 3.94336C8.13611 3.94336 7.8418 4.23767 7.8418 4.60178V8.55222C7.8418 8.75961 7.93925 8.95517 8.10516 9.07895L10.7388 11.0542C10.8573 11.1431 10.9956 11.1859 11.1332 11.1859C11.334 11.1859 11.5315 11.0956 11.6606 10.9218C11.8792 10.6314 11.8199 10.2186 11.5289 10.0007Z" fill="#F3B95A"/>
<path d="M8.5 0C3.81281 0 0 3.81281 0 8.5C0 13.1872 3.81281 17 8.5 17C13.1872 17 17 13.1872 17 8.5C17 3.81281 13.1872 0 8.5 0ZM8.5 15.6832C4.5397 15.6832 1.3168 12.4603 1.3168 8.5C1.3168 4.5397 4.5397 1.3168 8.5 1.3168C12.461 1.3168 15.6832 4.5397 15.6832 8.5C15.6832 12.4603 12.4603 15.6832 8.5 15.6832Z" fill="#F3B95A"/>
</svg>
