<svg width="17" height="17" viewBox="0 0 17 17" fill="none" xmlns="http://www.w3.org/2000/svg">
<g clip-path="url(#clip0)">
<mask id="path-1-outside-1" maskUnits="userSpaceOnUse" x="7.22656" y="-0.999023" width="10" height="19" fill="black">
<rect fill="white" x="7.22656" y="-0.999023" width="10" height="19"/>
<path d="M16.9402 15.4136L14.6571 8.11938C14.9091 7.97854 15.0815 7.71252 15.0815 7.40405C15.0815 7.06935 14.8796 6.78164 14.5921 6.65338L15.2822 3.89263C15.331 3.6981 15.3557 3.49795 15.3557 3.29699V3.06484C15.3557 2.39383 14.8861 1.83287 14.259 1.6864V0.000976562H13.7106V1.66485C13.2227 1.74263 12.808 2.06756 12.6199 2.53802L12.6138 2.55342L12.6078 2.53802C12.4197 2.06756 12.0048 1.74263 11.5171 1.66485V0.000976562H10.9687V1.68614C10.3416 1.83287 9.87197 2.39356 9.87197 3.06457C9.87197 3.41882 9.91548 3.77307 10.0017 4.11741L10.6355 6.65338C10.3479 6.78164 10.1462 7.06935 10.1462 7.40405C10.1462 7.71252 10.3186 7.97854 10.5706 8.11938L8.28735 15.4136C8.1358 15.8981 8.27236 16.4203 8.64414 16.7764C8.64655 16.7788 8.64937 16.7813 8.65204 16.7835C8.80587 16.9274 9.00602 16.9996 9.20618 16.9996C9.40941 16.9996 9.6125 16.9253 9.76714 16.7769L9.87612 16.6728C9.97479 16.5778 10.1412 16.5781 10.2399 16.6725L10.3487 16.7769C10.6582 17.0736 11.162 17.0736 11.4716 16.7769L11.5802 16.6728C11.6788 16.5778 11.8452 16.5781 11.944 16.6725L12.0529 16.7769C12.3624 17.0736 12.8658 17.0736 13.1753 16.7769L13.2842 16.6725C13.3826 16.5781 13.5494 16.5781 13.6478 16.6725L13.7567 16.7769C14.0659 17.0741 14.5696 17.0736 14.8791 16.7769L14.988 16.6728C15.0868 16.5778 15.2532 16.5781 15.3518 16.6725L15.4607 16.7769C15.7678 17.0712 16.2657 17.0733 16.5755 16.784C16.5783 16.7813 16.5813 16.7788 16.5838 16.7764C16.9553 16.4203 17.0922 15.8981 16.9402 15.4136ZM10.9687 7.67824C10.8176 7.67824 10.6945 7.55547 10.6945 7.40405C10.6945 7.25277 10.8176 7.12987 10.9687 7.12987H14.259C14.41 7.12987 14.5332 7.25277 14.5332 7.40405C14.5332 7.55547 14.41 7.67824 14.259 7.67824H10.9687ZM10.4203 3.06484C10.4203 2.58501 10.8107 2.19448 11.2906 2.19448C11.6487 2.19448 11.9656 2.40923 12.0987 2.74152L12.3593 3.39298C12.4011 3.49714 12.5017 3.56542 12.6138 3.56542C12.7259 3.56542 12.8266 3.49714 12.8682 3.39298L13.129 2.74152C13.262 2.40923 13.5793 2.19448 13.937 2.19448C14.4168 2.19448 14.8073 2.58501 14.8073 3.06484V3.29699C14.8073 3.45309 14.7881 3.6088 14.7503 3.75982L14.0448 6.58149H11.1828L10.5336 3.98474C10.4584 3.68391 10.4203 3.37437 10.4203 3.06484ZM9.49656 16.2765L9.38745 16.381C9.28878 16.4756 9.12263 16.4756 9.0241 16.381C9.02222 16.379 9.02008 16.3772 9.01807 16.3753C8.80172 16.1641 8.72233 15.8592 8.81056 15.5773L11.1113 8.22662H11.4567L9.88736 16.0734C9.74411 16.1035 9.60795 16.1702 9.49656 16.2765ZM11.2003 16.2765L11.0918 16.381C10.9931 16.4753 10.8267 16.4753 10.7283 16.381L10.6192 16.2762C10.5629 16.2225 10.4988 16.1817 10.4319 16.1474L12.0161 8.22662H12.3397V16.2924L12.3229 16.2765C12.0139 15.9799 11.5103 15.9799 11.2003 16.2765ZM14.4994 16.381C14.401 16.4758 14.2349 16.4753 14.1361 16.381L14.027 16.2762C13.7174 15.9802 13.214 15.9799 12.9048 16.2765L12.888 16.2924V8.22662H13.2115L14.7958 16.1477C14.7289 16.182 14.6648 16.2228 14.6085 16.2769L14.4994 16.381ZM16.2098 16.3753C16.2076 16.3772 16.2055 16.3793 16.2035 16.381C16.1048 16.475 15.9384 16.475 15.8402 16.381L15.7311 16.2762C15.62 16.1699 15.4834 16.1032 15.3403 16.0734L13.7708 8.22662H14.1164L16.4171 15.5776C16.5051 15.8592 16.4258 16.1641 16.2098 16.3753Z"/>
</mask>
<path d="M16.9402 15.4136L14.6571 8.11938C14.9091 7.97854 15.0815 7.71252 15.0815 7.40405C15.0815 7.06935 14.8796 6.78164 14.5921 6.65338L15.2822 3.89263C15.331 3.6981 15.3557 3.49795 15.3557 3.29699V3.06484C15.3557 2.39383 14.8861 1.83287 14.259 1.6864V0.000976562H13.7106V1.66485C13.2227 1.74263 12.808 2.06756 12.6199 2.53802L12.6138 2.55342L12.6078 2.53802C12.4197 2.06756 12.0048 1.74263 11.5171 1.66485V0.000976562H10.9687V1.68614C10.3416 1.83287 9.87197 2.39356 9.87197 3.06457C9.87197 3.41882 9.91548 3.77307 10.0017 4.11741L10.6355 6.65338C10.3479 6.78164 10.1462 7.06935 10.1462 7.40405C10.1462 7.71252 10.3186 7.97854 10.5706 8.11938L8.28735 15.4136C8.1358 15.8981 8.27236 16.4203 8.64414 16.7764C8.64655 16.7788 8.64937 16.7813 8.65204 16.7835C8.80587 16.9274 9.00602 16.9996 9.20618 16.9996C9.40941 16.9996 9.6125 16.9253 9.76714 16.7769L9.87612 16.6728C9.97479 16.5778 10.1412 16.5781 10.2399 16.6725L10.3487 16.7769C10.6582 17.0736 11.162 17.0736 11.4716 16.7769L11.5802 16.6728C11.6788 16.5778 11.8452 16.5781 11.944 16.6725L12.0529 16.7769C12.3624 17.0736 12.8658 17.0736 13.1753 16.7769L13.2842 16.6725C13.3826 16.5781 13.5494 16.5781 13.6478 16.6725L13.7567 16.7769C14.0659 17.0741 14.5696 17.0736 14.8791 16.7769L14.988 16.6728C15.0868 16.5778 15.2532 16.5781 15.3518 16.6725L15.4607 16.7769C15.7678 17.0712 16.2657 17.0733 16.5755 16.784C16.5783 16.7813 16.5813 16.7788 16.5838 16.7764C16.9553 16.4203 17.0922 15.8981 16.9402 15.4136ZM10.9687 7.67824C10.8176 7.67824 10.6945 7.55547 10.6945 7.40405C10.6945 7.25277 10.8176 7.12987 10.9687 7.12987H14.259C14.41 7.12987 14.5332 7.25277 14.5332 7.40405C14.5332 7.55547 14.41 7.67824 14.259 7.67824H10.9687ZM10.4203 3.06484C10.4203 2.58501 10.8107 2.19448 11.2906 2.19448C11.6487 2.19448 11.9656 2.40923 12.0987 2.74152L12.3593 3.39298C12.4011 3.49714 12.5017 3.56542 12.6138 3.56542C12.7259 3.56542 12.8266 3.49714 12.8682 3.39298L13.129 2.74152C13.262 2.40923 13.5793 2.19448 13.937 2.19448C14.4168 2.19448 14.8073 2.58501 14.8073 3.06484V3.29699C14.8073 3.45309 14.7881 3.6088 14.7503 3.75982L14.0448 6.58149H11.1828L10.5336 3.98474C10.4584 3.68391 10.4203 3.37437 10.4203 3.06484ZM9.49656 16.2765L9.38745 16.381C9.28878 16.4756 9.12263 16.4756 9.0241 16.381C9.02222 16.379 9.02008 16.3772 9.01807 16.3753C8.80172 16.1641 8.72233 15.8592 8.81056 15.5773L11.1113 8.22662H11.4567L9.88736 16.0734C9.74411 16.1035 9.60795 16.1702 9.49656 16.2765ZM11.2003 16.2765L11.0918 16.381C10.9931 16.4753 10.8267 16.4753 10.7283 16.381L10.6192 16.2762C10.5629 16.2225 10.4988 16.1817 10.4319 16.1474L12.0161 8.22662H12.3397V16.2924L12.3229 16.2765C12.0139 15.9799 11.5103 15.9799 11.2003 16.2765ZM14.4994 16.381C14.401 16.4758 14.2349 16.4753 14.1361 16.381L14.027 16.2762C13.7174 15.9802 13.214 15.9799 12.9048 16.2765L12.888 16.2924V8.22662H13.2115L14.7958 16.1477C14.7289 16.182 14.6648 16.2228 14.6085 16.2769L14.4994 16.381ZM16.2098 16.3753C16.2076 16.3772 16.2055 16.3793 16.2035 16.381C16.1048 16.475 15.9384 16.475 15.8402 16.381L15.7311 16.2762C15.62 16.1699 15.4834 16.1032 15.3403 16.0734L13.7708 8.22662H14.1164L16.4171 15.5776C16.5051 15.8592 16.4258 16.1641 16.2098 16.3753Z" fill="#F3B95A"/>
<path d="M16.9402 15.4136L14.6571 8.11938C14.9091 7.97854 15.0815 7.71252 15.0815 7.40405C15.0815 7.06935 14.8796 6.78164 14.5921 6.65338L15.2822 3.89263C15.331 3.6981 15.3557 3.49795 15.3557 3.29699V3.06484C15.3557 2.39383 14.8861 1.83287 14.259 1.6864V0.000976562H13.7106V1.66485C13.2227 1.74263 12.808 2.06756 12.6199 2.53802L12.6138 2.55342L12.6078 2.53802C12.4197 2.06756 12.0048 1.74263 11.5171 1.66485V0.000976562H10.9687V1.68614C10.3416 1.83287 9.87197 2.39356 9.87197 3.06457C9.87197 3.41882 9.91548 3.77307 10.0017 4.11741L10.6355 6.65338C10.3479 6.78164 10.1462 7.06935 10.1462 7.40405C10.1462 7.71252 10.3186 7.97854 10.5706 8.11938L8.28735 15.4136C8.1358 15.8981 8.27236 16.4203 8.64414 16.7764C8.64655 16.7788 8.64937 16.7813 8.65204 16.7835C8.80587 16.9274 9.00602 16.9996 9.20618 16.9996C9.40941 16.9996 9.6125 16.9253 9.76714 16.7769L9.87612 16.6728C9.97479 16.5778 10.1412 16.5781 10.2399 16.6725L10.3487 16.7769C10.6582 17.0736 11.162 17.0736 11.4716 16.7769L11.5802 16.6728C11.6788 16.5778 11.8452 16.5781 11.944 16.6725L12.0529 16.7769C12.3624 17.0736 12.8658 17.0736 13.1753 16.7769L13.2842 16.6725C13.3826 16.5781 13.5494 16.5781 13.6478 16.6725L13.7567 16.7769C14.0659 17.0741 14.5696 17.0736 14.8791 16.7769L14.988 16.6728C15.0868 16.5778 15.2532 16.5781 15.3518 16.6725L15.4607 16.7769C15.7678 17.0712 16.2657 17.0733 16.5755 16.784C16.5783 16.7813 16.5813 16.7788 16.5838 16.7764C16.9553 16.4203 17.0922 15.8981 16.9402 15.4136ZM10.9687 7.67824C10.8176 7.67824 10.6945 7.55547 10.6945 7.40405C10.6945 7.25277 10.8176 7.12987 10.9687 7.12987H14.259C14.41 7.12987 14.5332 7.25277 14.5332 7.40405C14.5332 7.55547 14.41 7.67824 14.259 7.67824H10.9687ZM10.4203 3.06484C10.4203 2.58501 10.8107 2.19448 11.2906 2.19448C11.6487 2.19448 11.9656 2.40923 12.0987 2.74152L12.3593 3.39298C12.4011 3.49714 12.5017 3.56542 12.6138 3.56542C12.7259 3.56542 12.8266 3.49714 12.8682 3.39298L13.129 2.74152C13.262 2.40923 13.5793 2.19448 13.937 2.19448C14.4168 2.19448 14.8073 2.58501 14.8073 3.06484V3.29699C14.8073 3.45309 14.7881 3.6088 14.7503 3.75982L14.0448 6.58149H11.1828L10.5336 3.98474C10.4584 3.68391 10.4203 3.37437 10.4203 3.06484ZM9.49656 16.2765L9.38745 16.381C9.28878 16.4756 9.12263 16.4756 9.0241 16.381C9.02222 16.379 9.02008 16.3772 9.01807 16.3753C8.80172 16.1641 8.72233 15.8592 8.81056 15.5773L11.1113 8.22662H11.4567L9.88736 16.0734C9.74411 16.1035 9.60795 16.1702 9.49656 16.2765ZM11.2003 16.2765L11.0918 16.381C10.9931 16.4753 10.8267 16.4753 10.7283 16.381L10.6192 16.2762C10.5629 16.2225 10.4988 16.1817 10.4319 16.1474L12.0161 8.22662H12.3397V16.2924L12.3229 16.2765C12.0139 15.9799 11.5103 15.9799 11.2003 16.2765ZM14.4994 16.381C14.401 16.4758 14.2349 16.4753 14.1361 16.381L14.027 16.2762C13.7174 15.9802 13.214 15.9799 12.9048 16.2765L12.888 16.2924V8.22662H13.2115L14.7958 16.1477C14.7289 16.182 14.6648 16.2228 14.6085 16.2769L14.4994 16.381ZM16.2098 16.3753C16.2076 16.3772 16.2055 16.3793 16.2035 16.381C16.1048 16.475 15.9384 16.475 15.8402 16.381L15.7311 16.2762C15.62 16.1699 15.4834 16.1032 15.3403 16.0734L13.7708 8.22662H14.1164L16.4171 15.5776C16.5051 15.8592 16.4258 16.1641 16.2098 16.3753Z" stroke="#F3B95A" stroke-width="0.2" mask="url(#path-1-outside-1)"/>
<path d="M0.018676 6.78094C0.0799807 6.85964 0.174328 6.90568 0.27418 6.90568H1.64512C1.7881 6.90568 1.91453 6.81167 1.95568 6.67459L1.95569 6.67458L2.26348 5.64882L2.41859 7.97374L0.018676 6.78094ZM0.018676 6.78094C-0.0425482 6.70247 -0.0645867 6.60005 -0.0403482 6.50309L1.0564 2.11608L1.05641 2.11607C1.08108 2.01755 1.15008 1.93647 1.24319 1.89656L1.2432 1.89656L2.96606 1.15834V0.275165C2.96606 0.0959813 3.11123 -0.0490234 3.29025 -0.0490234H6.03213C6.211 -0.0490234 6.35632 0.0959654 6.35632 0.275165V1.15834L8.07918 1.89656L8.05949 1.94252L8.07918 1.89656C8.1723 1.93646 8.24133 2.01756 8.26585 2.11614L9.36257 6.50298M0.018676 6.78094L9.36257 6.50298M7.05917 5.64882L6.90405 7.97384C6.89265 8.14444 6.751 8.27662 6.58051 8.27662H2.74187C2.57143 8.27662 2.42973 8.14449 2.4186 7.97383L7.05917 5.64882ZM7.05917 5.64882L7.36693 6.67449C7.36694 6.6745 7.36694 6.67451 7.36694 6.67451L7.36696 6.67458L7.41485 6.66021C7.44939 6.77615 7.55636 6.85568 7.67726 6.85568H9.0482L7.05917 5.64882ZM9.36257 6.50298C9.38699 6.59974 9.36493 6.70247 9.3037 6.78094L9.36257 6.50298ZM6.52914 3.79857L6.54287 3.7505L7.00284 2.14062L6.22145 1.80567L4.98538 5.26674V7.62824H6.27708L6.53112 3.81855C6.53112 3.81844 6.53113 3.81834 6.53113 3.81823L6.53115 3.81794L6.52914 3.79857ZM6.52914 3.79857L6.53342 3.7998L6.52914 3.79857ZM2.77957 3.75099L2.77951 3.75076L2.31941 2.14062L3.10093 1.80566L4.337 5.26674V7.62824H3.0453L2.79126 3.81874L2.74134 3.82154L2.79123 3.81821L2.79124 3.81848C2.78991 3.79512 2.78555 3.7723 2.77957 3.75099ZM4.66119 4.24656L3.75026 1.69611H5.57212L4.66119 4.24656ZM3.61444 0.599353H5.70794V1.04773H3.61444V0.599353ZM2.12988 3.83766L1.40389 6.2573H0.68939L1.6465 2.42926L1.71865 2.39847L2.12988 3.83766ZM8.63286 6.2573H7.91849L7.19249 3.83739L7.60358 2.39827L7.67587 2.42922L8.63286 6.2573Z" fill="#F3B95A" stroke="#F3B95A" stroke-width="0.1"/>
<path d="M5.16446 16.7765L5.16446 16.7766C5.18947 16.934 5.32527 17.0501 5.48482 17.0501H6.58157C6.76042 17.0501 6.90576 16.9052 6.90576 16.7259V9.0486C6.90576 8.8694 6.76044 8.72441 6.58157 8.72441H2.74294C2.56392 8.72441 2.41875 8.86942 2.41875 9.0486V16.7259C2.41875 16.9052 2.56394 17.0501 2.74294 17.0501H3.83969C3.99908 17.0501 4.13506 16.9341 4.15992 16.7765L4.66225 13.5951L5.16446 16.7765ZM4.3419 11.4658L4.34189 11.4658L3.56281 16.4017H3.06713V9.37279H6.25738V16.4017H5.7617L4.98223 11.4659L4.93283 11.4736L4.98222 11.4658L4.98223 11.4659C4.95765 11.3081 4.82162 11.1921 4.66225 11.1921C4.50269 11.1921 4.3669 11.3081 4.3419 11.4658Z" fill="#F3B95A" stroke="#F3B95A" stroke-width="0.1"/>
</g>
<defs>
<clipPath id="clip0">
<rect width="17" height="17" fill="white"/>
</clipPath>
</defs>
</svg>
