<svg width="512" height="512" viewBox="0 0 512 512" fill="none" xmlns="http://www.w3.org/2000/svg">
<path d="M512 151H421V90H512V0H391V151H241V90H331V0H211V151H60V90H151V0H30V151H0V512H512V151ZM421 30H482V60H421V30ZM241 30H301V60H241V30ZM60 30H121V60H60V30ZM121 482H91V406C91 397.729 97.729 391 106 391C114.271 391 121 397.729 121 406V482ZM301 482H211V406C211 381.187 231.187 361 256 361C280.813 361 301 381.187 301 406V482ZM421 482H391V406C391 397.729 397.729 391 406 391C414.271 391 421 397.729 421 406V482ZM482 482H451V406C451 381.187 430.813 361 406 361C381.187 361 361 381.187 361 406V482H331V406C331 364.645 297.355 331 256 331C214.645 331 181 364.645 181 406V482H151V406C151 381.187 130.813 361 106 361C81.187 361 61 381.187 61 406V482H30V181H482V482Z" fill="black"/>
<path d="M151 256C151 231.187 130.813 211 106 211C81.187 211 61 231.187 61 256V301H151V256ZM121 271H91V256C91 247.729 97.729 241 106 241C114.271 241 121 247.729 121 256V271Z" fill="black"/>
<path d="M301 256C301 231.187 280.813 211 256 211C231.187 211 211 231.187 211 256V301H301V256ZM271 271H241V256C241 247.729 247.729 241 256 241C264.271 241 271 247.729 271 256V271Z" fill="black"/>
<path d="M451 256C451 231.187 430.813 211 406 211C381.187 211 361 231.187 361 256V301H451V256ZM421 271H391V256C391 247.729 397.729 241 406 241C414.271 241 421 247.729 421 256V271Z" fill="black"/>
</svg>
