<svg width="512" height="512" viewBox="0 0 512 512" fill="none" xmlns="http://www.w3.org/2000/svg">
<path d="M208.32 491.359C211.36 494.24 215.36 496 219.68 496C223.84 496 227.84 494.24 230.88 491.359L385.92 336.16C408.639 313.599 421.12 283.519 421.12 251.679C421.12 248.96 420.8 246.399 420.639 243.679C432.639 231.679 461.599 202.719 461.599 202.719C558.72 100.319 417.92 -46.8802 311.04 44.7994C238.24 -22.721 121.76 39.5191 128.32 131.839C40.7997 140 -26.2403 251.679 53.4403 336.16L208.32 491.359ZM138.08 163.839C165.6 163.359 190.56 177.599 208.48 198.08C211.52 201.12 215.84 202.719 219.84 202.719C224.16 202.719 228.32 200.959 231.2 197.919C248.96 177.279 273.759 163.519 301.44 163.839C377.599 162.08 418.88 260.799 363.36 313.599L219.68 457.439L75.9999 313.599C20.7997 260.479 61.7597 162.24 138.08 163.839V163.839Z" fill="black"/>
</svg>
