<svg width="36" height="9" viewBox="0 0 36 9" fill="none" xmlns="http://www.w3.org/2000/svg">
<path d="M5.056 1.024V0.4H8.048V1.024L7.104 1.2L4.816 4.016L7.04 7.2L8.256 7.424V8H4.352V7.424L5.488 7.216L3.92 4.928L2.16 7.216L3.36 7.424V8H0.16V7.424L1.184 7.232L3.52 4.336L1.376 1.2L0.272 1.024V0.4H3.84V1.024L2.864 1.2L4.4 3.424L6.112 1.232L5.056 1.024ZM13.2934 8.208C12.6747 8.208 12.0827 8.064 11.5174 7.776C10.9627 7.47733 10.5094 7.03467 10.1574 6.448C9.80538 5.85067 9.62938 5.11467 9.62938 4.24C9.62938 3.35467 9.80538 2.61333 10.1574 2.016C10.5094 1.408 10.9627 0.954666 11.5174 0.656C12.0827 0.346666 12.6747 0.191999 13.2934 0.191999C13.912 0.191999 14.4987 0.346666 15.0534 0.656C15.6187 0.954666 16.0774 1.408 16.4294 2.016C16.792 2.61333 16.9734 3.35467 16.9734 4.24C16.9734 5.11467 16.792 5.85067 16.4294 6.448C16.0774 7.03467 15.6187 7.47733 15.0534 7.776C14.4987 8.064 13.912 8.208 13.2934 8.208ZM13.2934 7.488C13.9867 7.488 14.52 7.216 14.8934 6.672C15.2667 6.11733 15.4534 5.30667 15.4534 4.24C15.4534 3.16267 15.2667 2.34133 14.8934 1.776C14.52 1.21067 13.9867 0.927999 13.2934 0.927999C12.6 0.927999 12.0667 1.21067 11.6934 1.776C11.3307 2.34133 11.1494 3.16267 11.1494 4.24C11.1494 5.30667 11.3307 6.11733 11.6934 6.672C12.0667 7.216 12.6 7.488 13.2934 7.488ZM23.2341 1.024V0.4H26.2261V1.024L25.2821 1.2L22.9941 4.016L25.2181 7.2L26.4341 7.424V8H22.5301V7.424L23.6661 7.216L22.0981 4.928L20.3381 7.216L21.5381 7.424V8H18.3381V7.424L19.3621 7.232L21.6981 4.336L19.5541 1.2L18.4501 1.024V0.4H22.0181V1.024L21.0421 1.2L22.5781 3.424L24.2901 1.232L23.2341 1.024ZM31.4715 8.208C30.8528 8.208 30.2608 8.064 29.6955 7.776C29.1408 7.47733 28.6875 7.03467 28.3355 6.448C27.9835 5.85067 27.8075 5.11467 27.8075 4.24C27.8075 3.35467 27.9835 2.61333 28.3355 2.016C28.6875 1.408 29.1408 0.954666 29.6955 0.656C30.2608 0.346666 30.8528 0.191999 31.4715 0.191999C32.0902 0.191999 32.6768 0.346666 33.2315 0.656C33.7968 0.954666 34.2555 1.408 34.6075 2.016C34.9702 2.61333 35.1515 3.35467 35.1515 4.24C35.1515 5.11467 34.9702 5.85067 34.6075 6.448C34.2555 7.03467 33.7968 7.47733 33.2315 7.776C32.6768 8.064 32.0902 8.208 31.4715 8.208ZM31.4715 7.488C32.1648 7.488 32.6982 7.216 33.0715 6.672C33.4448 6.11733 33.6315 5.30667 33.6315 4.24C33.6315 3.16267 33.4448 2.34133 33.0715 1.776C32.6982 1.21067 32.1648 0.927999 31.4715 0.927999C30.7782 0.927999 30.2448 1.21067 29.8715 1.776C29.5088 2.34133 29.3275 3.16267 29.3275 4.24C29.3275 5.30667 29.5088 6.11733 29.8715 6.672C30.2448 7.216 30.7782 7.488 31.4715 7.488Z" fill="black"/>
</svg>
